SeanSlab-WideBold.ufo
<glyph name="exclam" format="1">
  <advance width="299"/>
  <unicode hex="0021"/>
  <outline>
    <contour>
      <point x="199" y="229" type="line"/>
      <point x="214" y="722" type="line"/>
      <point x="85" y="722" type="line"/>
      <point x="100" y="229" type="line"/>
    </contour>
    <contour>
      <point x="225" y="52" type="curve"/>
      <point x="225" y="94"/>
      <point x="192" y="113"/>
      <point x="149" y="113" type="curve"/>
      <point x="105" y="113"/>
      <point x="76" y="91"/>
      <point x="76" y="52" type="curve"/>
      <point x="219" y="52"/>
      <point x="81" y="52"/>
      <point x="225" y="52" type="curve"/>
      <point x="225" y="9"/>
      <point x="193" y="-9"/>
      <point x="148" y="-9" type="curve"/>
      <point x="105" y="-9"/>
      <point x="76" y="12"/>
      <point x="76" y="52" type="curve"/>
      <point x="219" y="52"/>
      <point x="81" y="52"/>
    </contour>
  </outline>
</glyph>
<glyph name="quotedbl" format="1">
  <advance width="512"/>
  <unicode hex="0022"/>
  <outline>
    <contour>
      <point x="201" y="620" type="line"/>
      <point x="209" y="843" type="line"/>
      <point x="69" y="843" type="line"/>
      <point x="77" y="620" type="line"/>
    </contour>
    <contour>
      <point x="435" y="620" type="line"/>
      <point x="443" y="843" type="line"/>
      <point x="302" y="843" type="line"/>
      <point x="311" y="620" type="line"/>
    </contour>
  </outline>
</glyph>
<glyph name="numbersign" format="1">
  <advance width="840"/>
  <unicode hex="0023"/>
  <outline>
    <contour>
      <point x="46" y="222" type="curve"/>
      <point x="668" y="222" type="curve"/>
      <point x="705" y="316" type="curve"/>
      <point x="85" y="316" type="curve"/>
    </contour>
    <contour>
      <point x="130" y="442" type="curve"/>
      <point x="757" y="442" type="curve"/>
      <point x="793" y="535" type="curve"/>
      <point x="167" y="535" type="curve"/>
    </contour>
    <contour>
      <point x="519" y="39" type="curve"/>
      <point x="791" y="722" type="curve"/>
      <point x="665" y="722" type="curve"/>
      <point x="393" y="39" type="curve"/>
    </contour>
    <contour>
      <point x="183" y="46" type="curve"/>
      <point x="451" y="722" type="curve"/>
      <point x="326" y="722" type="curve"/>
      <point x="62" y="46" type="curve"/>
    </contour>
  </outline>
</glyph>
<glyph name="dollar" format="1">
  <advance width="716"/>
  <unicode hex="0024"/>
  <outline>
    <contour>
      <point x="161" y="93" type="curve"/>
      <point x="161" y="213"/>
      <point x="161" y="113"/>
      <point x="161" y="233" type="curve"/>
      <point x="64" y="233"/>
      <point x="161" y="233"/>
      <point x="64" y="233" type="curve"/>
      <point x="64" y="113"/>
      <point x="64" y="213"/>
      <point x="64" y="93" type="curve"/>
      <point x="161" y="93"/>
      <point x="64" y="93"/>
    </contour>
    <contour>
      <point x="527" y="635" type="curve"/>
      <point x="527" y="515"/>
      <point x="527" y="614"/>
      <point x="527" y="494" type="curve"/>
      <point x="624" y="494"/>
      <point x="527" y="494"/>
      <point x="624" y="494" type="curve"/>
      <point x="624" y="614"/>
      <point x="624" y="515"/>
      <point x="624" y="635" type="curve"/>
      <point x="527" y="635"/>
      <point x="624" y="635"/>
    </contour>
    <contour>
      <point x="399" y="-40" type="curve"/>
      <point x="399" y="-9"/>
      <point x="399" y="59"/>
      <point x="399" y="90" type="curve"/>
      <point x="273" y="90"/>
      <point x="399" y="90"/>
      <point x="273" y="90" type="curve"/>
      <point x="273" y="59"/>
      <point x="273" y="-9"/>
      <point x="273" y="-40" type="curve"/>
      <point x="399" y="-40"/>
      <point x="273" y="-40"/>
    </contour>
    <contour>
      <point x="414" y="639" type="curve"/>
      <point x="414" y="670"/>
      <point x="414" y="743"/>
      <point x="414" y="773" type="curve"/>
      <point x="288" y="773"/>
      <point x="414" y="773"/>
      <point x="288" y="773" type="curve"/>
      <point x="288" y="743"/>
      <point x="288" y="670"/>
      <point x="288" y="639" type="curve"/>
      <point x="414" y="639"/>
      <point x="288" y="639"/>
    </contour>
    <contour>
      <point x="64" y="93" type="curve"/>
      <point x="140" y="66"/>
      <point x="230" y="43"/>
      <point x="330" y="43" type="curve"/>
      <point x="510" y="43"/>
      <point x="668" y="76"/>
      <point x="668" y="217" type="curve"/>
      <point x="668" y="341"/>
      <point x="530" y="373"/>
      <point x="391" y="416" type="curve"/>
      <point x="295" y="445"/>
      <point x="199" y="459"/>
      <point x="199" y="524" type="curve"/>
      <point x="199" y="583"/>
      <point x="272" y="594"/>
      <point x="354" y="594" type="curve"/>
      <point x="433" y="594"/>
      <point x="489" y="583"/>
      <point x="561" y="556" type="curve"/>
      <point x="624" y="635"/>
      <point x="561" y="556"/>
      <point x="624" y="635" type="curve"/>
      <point x="533" y="669"/>
      <point x="461" y="687"/>
      <point x="361" y="687" type="curve"/>
      <point x="203" y="687"/>
      <point x="73" y="649"/>
      <point x="73" y="524" type="curve"/>
      <point x="73" y="406"/>
      <point x="185" y="372"/>
      <point x="317" y="332" type="curve"/>
      <point x="421" y="300"/>
      <point x="542" y="288"/>
      <point x="542" y="212" type="curve"/>
      <point x="542" y="139"/>
      <point x="446" y="136"/>
      <point x="342" y="136" type="curve"/>
      <point x="262" y="136"/>
      <point x="192" y="156"/>
      <point x="132" y="176" type="curve"/>
      <point x="64" y="92"/>
      <point x="132" y="177"/>
    </contour>
  </outline>
</glyph>
<glyph name="percent" format="1">
  <advance width="1319"/>
  <unicode hex="0025"/>
  <outline>
    <contour>
      <point x="458" y="-46" type="line"/>
      <point x="993" y="716" type="line"/>
      <point x="877" y="716" type="line"/>
      <point x="343" y="-46" type="line"/>
    </contour>
    <contour>
      <point x="161" y="499" type="curve"/>
      <point x="161" y="578"/>
      <point x="209" y="627"/>
      <point x="288" y="627" type="curve"/>
      <point x="368" y="628"/>
      <point x="416" y="578"/>
      <point x="416" y="497" type="curve"/>
      <point x="416" y="418"/>
      <point x="372" y="366"/>
      <point x="295" y="366" type="curve"/>
      <point x="212" y="366"/>
      <point x="161" y="416"/>
      <point x="161" y="499" type="curve"/>
      <point x="117" y="499"/>
      <point x="87" y="499"/>
      <point x="42" y="499" type="curve"/>
      <point x="42" y="355"/>
      <point x="141" y="274"/>
      <point x="289" y="274" type="curve"/>
      <point x="439" y="274"/>
      <point x="540" y="355"/>
      <point x="540" y="502" type="curve"/>
      <point x="540" y="643"/>
      <point x="440" y="719"/>
      <point x="293" y="720" type="curve"/>
      <point x="144" y="720"/>
      <point x="42" y="642"/>
      <point x="42" y="499" type="curve"/>
      <point x="87" y="499"/>
      <point x="117" y="499"/>
    </contour>
    <contour>
      <point x="898" y="171" type="curve"/>
      <point x="898" y="250"/>
      <point x="946" y="300"/>
      <point x="1025" y="300" type="curve"/>
      <point x="1105" y="301"/>
      <point x="1153" y="251"/>
      <point x="1153" y="170" type="curve"/>
      <point x="1153" y="91"/>
      <point x="1109" y="39"/>
      <point x="1032" y="39" type="curve"/>
      <point x="949" y="39"/>
      <point x="898" y="89"/>
      <point x="898" y="171" type="curve"/>
      <point x="854" y="171"/>
      <point x="824" y="171"/>
      <point x="779" y="171" type="curve"/>
      <point x="779" y="28"/>
      <point x="878" y="-54"/>
      <point x="1026" y="-54" type="curve"/>
      <point x="1176" y="-54"/>
      <point x="1277" y="28"/>
      <point x="1277" y="175" type="curve"/>
      <point x="1277" y="316"/>
      <point x="1177" y="391"/>
      <point x="1030" y="392" type="curve"/>
      <point x="881" y="392"/>
      <point x="779" y="315"/>
      <point x="779" y="171" type="curve"/>
      <point x="824" y="171"/>
      <point x="854" y="171"/>
    </contour>
  </outline>
</glyph>
<glyph name="ampersand" format="1">
  <advance width="864"/>
  <unicode hex="0026"/>
  <outline>
    <contour>
      <point x="838" y="65" type="line"/>
      <point x="712" y="160"/>
      <point x="566" y="272"/>
      <point x="437" y="372" type="curve"/>
      <point x="365" y="429"/>
      <point x="272" y="462"/>
      <point x="272" y="554" type="curve"/>
      <point x="272" y="605"/>
      <point x="313" y="634"/>
      <point x="368" y="634" type="curve"/>
      <point x="432" y="634"/>
      <point x="486" y="613"/>
      <point x="486" y="556" type="curve"/>
      <point x="485" y="469"/>
      <point x="400" y="448"/>
      <point x="315" y="413" type="curve"/>
      <point x="188" y="360"/>
      <point x="61" y="327"/>
      <point x="61" y="196" type="curve"/>
      <point x="61" y="51"/>
      <point x="199" y="-5"/>
      <point x="362" y="-5" type="curve"/>
      <point x="581" y="-5"/>
      <point x="733" y="110"/>
      <point x="821" y="313" type="curve"/>
      <point x="712" y="337"/>
      <point x="821" y="313"/>
      <point x="712" y="337" type="curve"/>
      <point x="644" y="182"/>
      <point x="534" y="88"/>
      <point x="367" y="88" type="curve"/>
      <point x="271" y="88"/>
      <point x="187" y="111"/>
      <point x="187" y="196" type="curve"/>
      <point x="187" y="287"/>
      <point x="279" y="302"/>
      <point x="367" y="339" type="curve"/>
      <point x="490" y="391"/>
      <point x="609" y="428"/>
      <point x="611" y="556" type="curve"/>
      <point x="611" y="676"/>
      <point x="504" y="727"/>
      <point x="374" y="727" type="curve"/>
      <point x="247" y="727"/>
      <point x="147" y="671"/>
      <point x="147" y="554" type="curve"/>
      <point x="147" y="437"/>
      <point x="257" y="387"/>
      <point x="351" y="316" type="curve"/>
      <point x="480" y="215"/>
      <point x="648" y="86"/>
      <point x="774" y="-11" type="curve"/>
    </contour>
  </outline>
</glyph>
<glyph name="quotesingle" format="1">
  <advance width="278"/>
  <unicode hex="0027"/>
  <outline>
    <contour>
      <point x="201" y="620" type="line"/>
      <point x="209" y="843" type="line"/>
      <point x="69" y="843" type="line"/>
      <point x="77" y="620" type="line"/>
    </contour>
  </outline>
</glyph>
<glyph name="parenleft" format="1">
  <advance width="459"/>
  <unicode hex="0028"/>
  <outline>
    <contour>
      <point x="453" y="-210" type="curve"/>
      <point x="269" y="-65"/>
      <point x="173" y="91"/>
      <point x="173" y="326" type="curve"/>
      <point x="173" y="562"/>
      <point x="269" y="716"/>
      <point x="452" y="866" type="curve"/>
      <point x="377" y="926"/>
      <point x="452" y="866"/>
      <point x="377" y="926" type="curve"/>
      <point x="167" y="760"/>
      <point x="49" y="594"/>
      <point x="49" y="326" type="curve"/>
      <point x="49" y="58"/>
      <point x="168" y="-109"/>
      <point x="378" y="-276" type="curve"/>
      <point x="453" y="-210"/>
      <point x="378" y="-276"/>
    </contour>
  </outline>
</glyph>
<glyph name="parenright" format="1">
  <advance width="467"/>
  <unicode hex="0029"/>
  <outline>
    <contour>
      <point x="74" y="-290" type="curve"/>
      <point x="288" y="-115"/>
      <point x="419" y="51"/>
      <point x="419" y="329" type="curve"/>
      <point x="419" y="599"/>
      <point x="295" y="764"/>
      <point x="78" y="928" type="curve"/>
      <point x="4" y="862"/>
      <point x="78" y="928"/>
      <point x="4" y="862" type="curve"/>
      <point x="192" y="715"/>
      <point x="295" y="563"/>
      <point x="295" y="324" type="curve"/>
      <point x="295" y="81"/>
      <point x="183" y="-71"/>
      <point x="-1" y="-229" type="curve"/>
      <point x="74" y="-290"/>
      <point x="-1" y="-229"/>
    </contour>
  </outline>
</glyph>
<glyph name="asterisk" format="1">
  <advance width="627"/>
  <unicode hex="002A"/>
  <outline>
    <contour>
      <point x="356" y="612" type="line"/>
      <point x="362" y="835" type="line"/>
      <point x="261" y="835" type="line"/>
      <point x="267" y="612" type="line"/>
    </contour>
    <contour>
      <point x="355" y="553" type="line"/>
      <point x="567" y="622" type="line"/>
      <point x="533" y="717" type="line"/>
      <point x="324" y="637" type="line"/>
    </contour>
    <contour>
      <point x="297" y="536" type="line"/>
      <point x="434" y="359" type="line"/>
      <point x="511" y="424" type="line"/>
      <point x="365" y="592" type="line"/>
    </contour>
    <contour>
      <point x="265" y="590" type="line"/>
      <point x="120" y="421" type="line"/>
      <point x="197" y="357" type="line"/>
      <point x="333" y="533" type="line"/>
    </contour>
    <contour>
      <point x="302" y="633" type="line"/>
      <point x="94" y="713" type="line"/>
      <point x="60" y="619" type="line"/>
      <point x="272" y="550" type="line"/>
    </contour>
  </outline>
</glyph>
<glyph name="plus" format="1">
  <advance width="725"/>
  <unicode hex="002B"/>
  <outline>
    <contour>
      <point x="48" y="261" type="curve"/>
      <point x="676" y="261" type="line"/>
      <point x="676" y="363"/>
      <point x="676" y="261"/>
      <point x="676" y="363" type="curve"/>
      <point x="48" y="363" type="line"/>
      <point x="48" y="261"/>
      <point x="48" y="363"/>
    </contour>
    <contour>
      <point x="424" y="21" type="curve"/>
      <point x="424" y="587" type="line"/>
      <point x="298" y="587"/>
      <point x="431" y="587"/>
      <point x="306" y="587" type="curve"/>
      <point x="306" y="21" type="line"/>
      <point x="431" y="21"/>
      <point x="298" y="21"/>
    </contour>
  </outline>
</glyph>
<glyph name="hyphen" format="1">
  <advance width="525"/>
  <unicode hex="002D"/>
  <outline>
    <contour>
      <point x="79" y="230" type="curve"/>
      <point x="201" y="230"/>
      <point x="323" y="230"/>
      <point x="445" y="230" type="curve"/>
      <point x="445" y="333"/>
      <point x="445" y="230"/>
      <point x="445" y="333" type="curve"/>
      <point x="323" y="333"/>
      <point x="201" y="333"/>
      <point x="79" y="333" type="curve"/>
      <point x="79" y="230"/>
      <point x="79" y="333"/>
    </contour>
  </outline>
</glyph>
<glyph name="period" format="1">
  <advance width="295"/>
  <unicode hex="002E"/>
  <outline>
    <contour>
      <point x="222" y="52" type="curve"/>
      <point x="222" y="94"/>
      <point x="190" y="113"/>
      <point x="146" y="113" type="curve"/>
      <point x="103" y="113"/>
      <point x="73" y="91"/>
      <point x="73" y="52" type="curve"/>
      <point x="217" y="52"/>
      <point x="79" y="52"/>
      <point x="222" y="52" type="curve"/>
      <point x="222" y="9"/>
      <point x="190" y="-9"/>
      <point x="146" y="-9" type="curve"/>
      <point x="102" y="-9"/>
      <point x="73" y="12"/>
      <point x="73" y="52" type="curve"/>
      <point x="217" y="52"/>
      <point x="79" y="52"/>
    </contour>
  </outline>
</glyph>
<glyph name="slash" format="1">
  <advance width="723"/>
  <unicode hex="002F"/>
  <outline>
    <contour>
      <point x="158" y="-23" type="curve"/>
      <point x="335" y="249"/>
      <point x="514" y="521"/>
      <point x="692" y="793" type="curve"/>
      <point x="566" y="793"/>
      <point x="692" y="793"/>
      <point x="566" y="793" type="curve"/>
      <point x="388" y="521"/>
      <point x="210" y="249"/>
      <point x="31" y="-23" type="curve"/>
      <point x="158" y="-23"/>
      <point x="31" y="-23"/>
    </contour>
  </outline>
</glyph>
<glyph name="zero" format="1">
  <advance width="921"/>
  <unicode hex="0030"/>
  <outline>
    <contour>
      <point x="191" y="360" type="curve"/>
      <point x="191" y="529"/>
      <point x="290" y="629"/>
      <point x="457" y="629" type="curve"/>
      <point x="626" y="629"/>
      <point x="729" y="532"/>
      <point x="729" y="363" type="curve"/>
      <point x="729" y="194"/>
      <point x="632" y="94"/>
      <point x="468" y="94" type="curve"/>
      <point x="297" y="94"/>
      <point x="191" y="190"/>
      <point x="191" y="360" type="curve"/>
      <point x="64" y="360"/>
      <point x="191" y="360"/>
      <point x="63" y="360" type="curve"/>
      <point x="63" y="125"/>
      <point x="219" y="-5"/>
      <point x="462" y="-5" type="curve"/>
      <point x="704" y="-5"/>
      <point x="858" y="126"/>
      <point x="858" y="363" type="curve"/>
      <point x="858" y="597"/>
      <point x="707" y="727"/>
      <point x="469" y="727" type="curve"/>
      <point x="222" y="727"/>
      <point x="63" y="598"/>
      <point x="63" y="360" type="curve"/>
      <point x="191" y="360"/>
      <point x="64" y="360"/>
    </contour>
  </outline>
</glyph>
<glyph name="one" format="1">
  <advance width="555"/>
  <unicode hex="0031"/>
  <outline>
    <contour>
      <point x="330" y="0" type="curve"/>
      <point x="390" y="0"/>
      <point x="451" y="0"/>
      <point x="512" y="0" type="curve"/>
      <point x="512" y="93"/>
      <point x="512" y="0"/>
      <point x="512" y="93" type="curve"/>
      <point x="330" y="93"/>
      <point x="512" y="93"/>
      <point x="330" y="93" type="curve"/>
      <point x="330" y="0"/>
      <point x="330" y="93"/>
    </contour>
    <contour>
      <point x="330" y="93" type="curve"/>
      <point x="148" y="93"/>
      <point x="330" y="93"/>
      <point x="148" y="93" type="curve"/>
      <point x="148" y="0"/>
      <point x="148" y="93"/>
      <point x="148" y="0" type="curve"/>
      <point x="208" y="0"/>
      <point x="269" y="0"/>
      <point x="330" y="0" type="curve"/>
      <point x="330" y="93"/>
      <point x="330" y="0"/>
    </contour>
    <contour>
      <point x="81" y="480" type="curve"/>
      <point x="358" y="659"/>
      <point x="81" y="480"/>
      <point x="358" y="659" type="curve"/>
      <point x="265" y="722"/>
      <point x="358" y="659"/>
      <point x="265" y="722" type="curve"/>
      <point x="26" y="566"/>
      <point x="265" y="722"/>
      <point x="26" y="566" type="curve"/>
      <point x="81" y="480"/>
      <point x="26" y="566"/>
    </contour>
    <contour>
      <point x="390" y="0" type="curve"/>
      <point x="390" y="241"/>
      <point x="390" y="481"/>
      <point x="390" y="722" type="curve"/>
      <point x="265" y="722"/>
      <point x="390" y="722"/>
      <point x="265" y="722" type="curve"/>
      <point x="265" y="481"/>
      <point x="265" y="241"/>
      <point x="265" y="0" type="curve"/>
      <point x="390" y="0"/>
      <point x="265" y="0"/>
    </contour>
  </outline>
</glyph>
<glyph name="two" format="1">
  <advance width="759"/>
  <unicode hex="0032"/>
  <outline>
    <contour>
      <point x="691" y="93" type="curve"/>
      <point x="691" y="211"/>
      <point x="691" y="92"/>
      <point x="691" y="210" type="curve"/>
      <point x="593" y="210"/>
      <point x="691" y="210"/>
      <point x="593" y="210" type="curve"/>
      <point x="593" y="92"/>
      <point x="593" y="211"/>
      <point x="593" y="93" type="curve"/>
      <point x="691" y="93"/>
      <point x="593" y="93"/>
    </contour>
    <contour>
      <point x="54" y="0" type="curve"/>
      <point x="300" y="0"/>
      <point x="503" y="0"/>
      <point x="691" y="0" type="curve"/>
      <point x="691" y="93"/>
      <point x="691" y="0"/>
      <point x="691" y="93" type="curve"/>
      <point x="482" y="93"/>
      <point x="262" y="93"/>
      <point x="54" y="93" type="curve"/>
      <point x="54" y="0"/>
      <point x="54" y="93"/>
    </contour>
    <contour>
      <point x="149" y="518" type="curve"/>
      <point x="216" y="592"/>
      <point x="273" y="629"/>
      <point x="361" y="629" type="curve"/>
      <point x="456" y="629"/>
      <point x="526" y="597"/>
      <point x="526" y="507" type="curve"/>
      <point x="526" y="401"/>
      <point x="433" y="344"/>
      <point x="332" y="279" type="curve"/>
      <point x="239" y="216"/>
      <point x="147" y="155"/>
      <point x="54" y="93" type="curve"/>
      <point x="56" y="0"/>
      <point x="54" y="93"/>
      <point x="56" y="0" type="curve"/>
      <point x="216" y="67"/>
      <point x="311" y="137"/>
      <point x="411" y="205" type="curve"/>
      <point x="542" y="287"/>
      <point x="643" y="357"/>
      <point x="643" y="512" type="curve"/>
      <point x="643" y="664"/>
      <point x="530" y="727"/>
      <point x="367" y="727" type="curve"/>
      <point x="236" y="727"/>
      <point x="137" y="680"/>
      <point x="66" y="576" type="curve"/>
      <point x="149" y="518"/>
      <point x="66" y="576"/>
    </contour>
  </outline>
</glyph>
<glyph name="three" format="1">
  <advance width="683"/>
  <unicode hex="0033"/>
  <outline>
    <contour>
      <point x="51" y="54" type="curve"/>
      <point x="111" y="20"/>
      <point x="196" y="-5"/>
      <point x="294" y="-5" type="curve"/>
      <point x="480" y="-5"/>
      <point x="622" y="42"/>
      <point x="622" y="218" type="curve"/>
      <point x="622" y="368"/>
      <point x="437" y="413"/>
      <point x="195" y="413" type="curve"/>
      <point x="195" y="334"/>
      <point x="195" y="413"/>
      <point x="195" y="334" type="curve"/>
      <point x="345" y="334"/>
      <point x="502" y="311"/>
      <point x="502" y="214" type="curve"/>
      <point x="502" y="106"/>
      <point x="399" y="93"/>
      <point x="297" y="93" type="curve"/>
      <point x="241" y="93"/>
      <point x="174" y="107"/>
      <point x="105" y="136" type="curve"/>
      <point x="51" y="54"/>
      <point x="105" y="136"/>
    </contour>
    <contour>
      <point x="115" y="570" type="curve"/>
      <point x="156" y="602"/>
      <point x="224" y="629"/>
      <point x="290" y="629" type="curve"/>
      <point x="385" y="629"/>
      <point x="460" y="614"/>
      <point x="460" y="530" type="curve"/>
      <point x="460" y="443"/>
      <point x="328" y="422"/>
      <point x="195" y="422" type="curve"/>
      <point x="195" y="343"/>
      <point x="195" y="421"/>
      <point x="195" y="343" type="curve"/>
      <point x="404" y="343"/>
      <point x="580" y="387"/>
      <point x="580" y="535" type="curve"/>
      <point x="580" y="679"/>
      <point x="458" y="727"/>
      <point x="299" y="727" type="curve"/>
      <point x="196" y="727"/>
      <point x="101" y="688"/>
      <point x="52" y="642" type="curve"/>
      <point x="115" y="570"/>
      <point x="52" y="642"/>
    </contour>
  </outline>
</glyph>
<glyph name="four" format="1">
  <advance width="766"/>
  <unicode hex="0034"/>
  <outline>
    <contour>
      <point x="474" y="93" type="line"/>
      <point x="320" y="93" type="line"/>
      <point x="320" y="0" type="line"/>
      <point x="474" y="0" type="line"/>
    </contour>
    <contour>
      <point x="474" y="0" type="line"/>
      <point x="628" y="0" type="line"/>
      <point x="628" y="93" type="line"/>
      <point x="474" y="93" type="line"/>
    </contour>
    <contour>
      <point x="82" y="243" type="line"/>
      <point x="509" y="662" type="line"/>
      <point x="413" y="702" type="line"/>
      <point x="36" y="336" type="line"/>
    </contour>
    <contour>
      <point x="722" y="336" type="line"/>
      <point x="36" y="336" type="line"/>
      <point x="36" y="233" type="line"/>
      <point x="722" y="233" type="line"/>
    </contour>
    <contour>
      <point x="538" y="38" type="line"/>
      <point x="538" y="702" type="line"/>
      <point x="413" y="702" type="line"/>
      <point x="413" y="38" type="line"/>
    </contour>
  </outline>
</glyph>
<glyph name="five" format="1">
  <advance width="680"/>
  <unicode hex="0035"/>
  <outline>
    <contour>
      <point x="96" y="722" type="curve"/>
      <point x="96" y="626"/>
      <point x="96" y="513"/>
      <point x="96" y="378" type="curve"/>
      <point x="216" y="350"/>
      <point x="96" y="378"/>
      <point x="216" y="350" type="curve"/>
      <point x="216" y="438"/>
      <point x="216" y="541"/>
      <point x="216" y="629" type="curve"/>
      <point x="96" y="722"/>
      <point x="216" y="629"/>
    </contour>
    <contour>
      <point x="216" y="350" type="curve"/>
      <point x="241" y="367"/>
      <point x="293" y="378"/>
      <point x="325" y="378" type="curve"/>
      <point x="430" y="378"/>
      <point x="499" y="334"/>
      <point x="499" y="238" type="curve"/>
      <point x="499" y="142"/>
      <point x="409" y="93"/>
      <point x="301" y="93" type="curve"/>
      <point x="234" y="93"/>
      <point x="179" y="102"/>
      <point x="109" y="128" type="curve"/>
      <point x="54" y="43"/>
      <point x="109" y="128"/>
      <point x="54" y="43" type="curve"/>
      <point x="135" y="11"/>
      <point x="207" y="-5"/>
      <point x="296" y="-5" type="curve"/>
      <point x="475" y="-5"/>
      <point x="625" y="75"/>
      <point x="625" y="238" type="curve"/>
      <point x="625" y="394"/>
      <point x="501" y="477"/>
      <point x="331" y="477" type="curve"/>
      <point x="253" y="477"/>
      <point x="156" y="450"/>
      <point x="96" y="381" type="curve"/>
      <point x="216" y="350"/>
      <point x="96" y="381"/>
    </contour>
    <contour>
      <point x="588" y="722" type="curve"/>
      <point x="412" y="722"/>
      <point x="254" y="722"/>
      <point x="96" y="722" type="curve"/>
      <point x="216" y="629"/>
      <point x="96" y="722"/>
      <point x="216" y="629" type="curve"/>
      <point x="334" y="629"/>
      <point x="452" y="629"/>
      <point x="588" y="629" type="curve"/>
      <point x="588" y="722"/>
      <point x="588" y="629"/>
    </contour>
  </outline>
</glyph>
<glyph name="six" format="1">
  <advance width="755"/>
  <unicode hex="0036"/>
  <outline>
    <contour>
      <point x="161" y="224" type="curve"/>
      <point x="212" y="313"/>
      <point x="291" y="345"/>
      <point x="396" y="345" type="curve"/>
      <point x="495" y="345"/>
      <point x="568" y="312"/>
      <point x="568" y="221" type="curve"/>
      <point x="568" y="131"/>
      <point x="493" y="99"/>
      <point x="397" y="99" type="curve"/>
      <point x="272" y="99"/>
      <point x="179" y="146"/>
      <point x="179" y="256" type="curve"/>
      <point x="179" y="504"/>
      <point x="409" y="577"/>
      <point x="671" y="636" type="curve"/>
      <point x="643" y="729"/>
      <point x="671" y="636"/>
      <point x="643" y="729" type="curve"/>
      <point x="346" y="671"/>
      <point x="59" y="561"/>
      <point x="59" y="252" type="curve"/>
      <point x="59" y="73"/>
      <point x="198" y="-10"/>
      <point x="391" y="-10" type="curve"/>
      <point x="567" y="-10"/>
      <point x="695" y="61"/>
      <point x="695" y="221" type="curve"/>
      <point x="695" y="378"/>
      <point x="571" y="443"/>
      <point x="406" y="443" type="curve"/>
      <point x="259" y="443"/>
      <point x="148" y="369"/>
      <point x="77" y="269" type="curve"/>
      <point x="161" y="224"/>
      <point x="77" y="269"/>
    </contour>
  </outline>
</glyph>
<glyph name="seven" format="1">
  <advance width="684"/>
  <unicode hex="0037"/>
  <outline>
    <contour>
      <point x="153" y="512" type="line"/>
      <point x="153" y="629" type="line"/>
      <point x="56" y="629" type="line"/>
      <point x="56" y="512" type="line"/>
    </contour>
    <contour>
      <point x="56" y="629" type="line"/>
      <point x="662" y="629" type="line"/>
      <point x="662" y="722" type="line"/>
      <point x="56" y="722" type="line"/>
    </contour>
    <contour>
      <point x="586" y="722" type="line"/>
      <point x="92" y="0" type="line"/>
      <point x="237" y="0" type="line"/>
      <point x="662" y="629" type="line"/>
    </contour>
  </outline>
</glyph>
<glyph name="eight" format="1">
  <advance width="738"/>
  <unicode hex="0038"/>
  <outline>
    <contour>
      <point x="89" y="541" type="curve"/>
      <point x="89" y="411"/>
      <point x="204" y="391"/>
      <point x="333" y="346" type="curve"/>
      <point x="444" y="306"/>
      <point x="547" y="295"/>
      <point x="547" y="190" type="curve"/>
      <point x="547" y="109"/>
      <point x="468" y="90"/>
      <point x="369" y="90" type="curve"/>
      <point x="269" y="90"/>
      <point x="191" y="109"/>
      <point x="191" y="190" type="curve"/>
      <point x="191" y="297"/>
      <point x="298" y="306"/>
      <point x="410" y="347" type="curve"/>
      <point x="535" y="394"/>
      <point x="649" y="412"/>
      <point x="649" y="540" type="curve"/>
      <point x="649" y="684"/>
      <point x="533" y="727"/>
      <point x="369" y="727" type="curve"/>
      <point x="209" y="727"/>
      <point x="89" y="682"/>
      <point x="89" y="541" type="curve"/>
      <point x="215" y="541"/>
      <point x="89" y="541"/>
      <point x="215" y="541" type="curve"/>
      <point x="215" y="611"/>
      <point x="280" y="632"/>
      <point x="363" y="632" type="curve"/>
      <point x="455" y="632"/>
      <point x="523" y="615"/>
      <point x="523" y="540" type="curve"/>
      <point x="523" y="448"/>
      <point x="428" y="444"/>
      <point x="331" y="410" type="curve"/>
      <point x="189" y="359"/>
      <point x="65" y="333"/>
      <point x="65" y="190" type="curve"/>
      <point x="65" y="39"/>
      <point x="192" y="-5"/>
      <point x="363" y="-5" type="curve"/>
      <point x="538" y="-5"/>
      <point x="673" y="34"/>
      <point x="673" y="190" type="curve"/>
      <point x="673" y="331"/>
      <point x="549" y="359"/>
      <point x="410" y="410" type="curve"/>
      <point x="312" y="447"/>
      <point x="215" y="450"/>
      <point x="215" y="541" type="curve"/>
      <point x="89" y="541"/>
      <point x="215" y="541"/>
    </contour>
  </outline>
</glyph>
<glyph name="nine" format="1">
  <advance width="756"/>
  <unicode hex="0039"/>
  <outline>
    <contour>
      <point x="595" y="495" type="curve"/>
      <point x="544" y="408"/>
      <point x="474" y="377"/>
      <point x="371" y="377" type="curve"/>
      <point x="266" y="377"/>
      <point x="186" y="411"/>
      <point x="186" y="506" type="curve"/>
      <point x="186" y="592"/>
      <point x="262" y="622"/>
      <point x="359" y="622" type="curve"/>
      <point x="483" y="622"/>
      <point x="576" y="579"/>
      <point x="576" y="466" type="curve"/>
      <point x="576" y="219"/>
      <point x="355" y="144"/>
      <point x="86" y="90" type="curve"/>
      <point x="114" y="-8"/>
      <point x="85" y="90"/>
      <point x="114" y="-8" type="curve"/>
      <point x="432" y="42"/>
      <point x="697" y="161"/>
      <point x="697" y="470" type="curve"/>
      <point x="697" y="649"/>
      <point x="557" y="732"/>
      <point x="364" y="732" type="curve"/>
      <point x="188" y="732"/>
      <point x="61" y="661"/>
      <point x="61" y="501" type="curve"/>
      <point x="61" y="344"/>
      <point x="188" y="279"/>
      <point x="360" y="279" type="curve"/>
      <point x="506" y="279"/>
      <point x="598" y="338"/>
      <point x="656" y="464" type="curve"/>
      <point x="595" y="495"/>
      <point x="656" y="464"/>
    </contour>
  </outline>
</glyph>
<glyph name="colon" format="1">
  <advance width="310"/>
  <unicode hex="003A"/>
  <outline>
    <contour>
      <point x="230" y="296" type="curve"/>
      <point x="230" y="338"/>
      <point x="197" y="358"/>
      <point x="154" y="358" type="curve"/>
      <point x="110" y="358"/>
      <point x="81" y="336"/>
      <point x="81" y="296" type="curve"/>
      <point x="224" y="296"/>
      <point x="86" y="296"/>
      <point x="230" y="296" type="curve"/>
      <point x="230" y="254"/>
      <point x="197" y="236"/>
      <point x="153" y="236" type="curve"/>
      <point x="110" y="236"/>
      <point x="81" y="256"/>
      <point x="81" y="296" type="curve"/>
      <point x="224" y="296"/>
      <point x="86" y="296"/>
    </contour>
    <contour>
      <point x="229" y="144" type="curve"/>
      <point x="229" y="185"/>
      <point x="197" y="205"/>
      <point x="153" y="205" type="curve"/>
      <point x="110" y="205"/>
      <point x="80" y="183"/>
      <point x="80" y="144" type="curve"/>
      <point x="224" y="144"/>
      <point x="85" y="144"/>
      <point x="229" y="144" type="curve"/>
      <point x="229" y="101"/>
      <point x="197" y="83"/>
      <point x="152" y="83" type="curve"/>
      <point x="109" y="83"/>
      <point x="80" y="103"/>
      <point x="80" y="144" type="curve"/>
      <point x="224" y="144"/>
      <point x="85" y="144"/>
    </contour>
  </outline>
</glyph>
<glyph name="semicolon" format="1">
  <advance width="331"/>
  <unicode hex="003B"/>
  <outline>
    <contour>
      <point x="78" y="-152" type="line"/>
      <point x="184" y="-152"/>
      <point x="253" y="-83"/>
      <point x="253" y="11" type="curve"/>
      <point x="253" y="81"/>
      <point x="219" y="135"/>
      <point x="163" y="135" type="curve"/>
      <point x="121" y="135"/>
      <point x="89" y="114"/>
      <point x="89" y="73" type="curve"/>
      <point x="89" y="32"/>
      <point x="120" y="11"/>
      <point x="166" y="10" type="curve"/>
      <point x="165" y="-31"/>
      <point x="151" y="-78"/>
      <point x="78" y="-85" type="curve"/>
    </contour>
    <contour>
      <point x="234" y="388" type="curve"/>
      <point x="234" y="430"/>
      <point x="202" y="450"/>
      <point x="159" y="450" type="curve"/>
      <point x="115" y="450"/>
      <point x="85" y="427"/>
      <point x="85" y="388" type="curve"/>
      <point x="229" y="388"/>
      <point x="91" y="388"/>
      <point x="234" y="388" type="curve"/>
      <point x="234" y="346"/>
      <point x="202" y="327"/>
      <point x="158" y="327" type="curve"/>
      <point x="114" y="327"/>
      <point x="85" y="348"/>
      <point x="85" y="388" type="curve"/>
      <point x="229" y="388"/>
      <point x="91" y="388"/>
    </contour>
  </outline>
</glyph>
<glyph name="less" format="1">
  <advance width="887"/>
  <unicode hex="003C"/>
  <outline>
    <contour>
      <point x="806" y="621" type="curve"/>
      <point x="552" y="531"/>
      <point x="297" y="441"/>
      <point x="42" y="351" type="curve"/>
      <point x="42" y="249"/>
      <point x="42" y="351"/>
      <point x="42" y="249" type="curve"/>
      <point x="297" y="339"/>
      <point x="552" y="429"/>
      <point x="806" y="519" type="curve"/>
      <point x="806" y="621"/>
      <point x="806" y="519"/>
    </contour>
    <contour>
      <point x="819" y="87" type="curve"/>
      <point x="560" y="175"/>
      <point x="302" y="263"/>
      <point x="42" y="351" type="curve"/>
      <point x="42" y="249"/>
      <point x="42" y="351"/>
      <point x="42" y="249" type="curve"/>
      <point x="302" y="161"/>
      <point x="560" y="73"/>
      <point x="819" y="-15" type="curve"/>
      <point x="819" y="87"/>
      <point x="819" y="-15"/>
    </contour>
  </outline>
</glyph>
<glyph name="equal" format="1">
  <advance width="959"/>
  <unicode hex="003D"/>
  <outline>
    <contour>
      <point x="85" y="168" type="curve"/>
      <point x="348" y="168"/>
      <point x="611" y="168"/>
      <point x="874" y="168" type="curve"/>
      <point x="874" y="267"/>
      <point x="874" y="168"/>
      <point x="874" y="267" type="curve"/>
      <point x="611" y="267"/>
      <point x="348" y="267"/>
      <point x="85" y="267" type="curve"/>
      <point x="85" y="168"/>
      <point x="85" y="267"/>
    </contour>
    <contour>
      <point x="85" y="390" type="curve"/>
      <point x="348" y="390"/>
      <point x="611" y="390"/>
      <point x="874" y="390" type="curve"/>
      <point x="874" y="489"/>
      <point x="874" y="390"/>
      <point x="874" y="489" type="curve"/>
      <point x="611" y="489"/>
      <point x="348" y="489"/>
      <point x="85" y="489" type="curve"/>
      <point x="85" y="390"/>
      <point x="85" y="489"/>
    </contour>
  </outline>
</glyph>
<glyph name="greater" format="1">
  <advance width="889"/>
  <unicode hex="003E"/>
  <outline>
    <contour>
      <point x="82" y="-15" type="curve"/>
      <point x="337" y="75"/>
      <point x="592" y="165"/>
      <point x="846" y="255" type="curve"/>
      <point x="846" y="357"/>
      <point x="846" y="255"/>
      <point x="846" y="357" type="curve"/>
      <point x="592" y="267"/>
      <point x="337" y="177"/>
      <point x="82" y="87" type="curve"/>
      <point x="82" y="-15"/>
      <point x="82" y="87"/>
    </contour>
    <contour>
      <point x="69" y="519" type="curve"/>
      <point x="328" y="431"/>
      <point x="587" y="343"/>
      <point x="846" y="255" type="curve"/>
      <point x="846" y="357"/>
      <point x="846" y="255"/>
      <point x="846" y="357" type="curve"/>
      <point x="587" y="445"/>
      <point x="328" y="533"/>
      <point x="69" y="621" type="curve"/>
      <point x="69" y="519"/>
      <point x="69" y="621"/>
    </contour>
  </outline>
</glyph>
<glyph name="question" format="1">
  <advance width="634"/>
  <unicode hex="003F"/>
  <outline>
    <contour>
      <point x="215" y="371" type="curve"/>
      <point x="215" y="334"/>
      <point x="215" y="258"/>
      <point x="215" y="221" type="curve"/>
      <point x="340" y="221"/>
      <point x="215" y="221"/>
      <point x="340" y="221" type="curve"/>
      <point x="340" y="258"/>
      <point x="340" y="334"/>
      <point x="340" y="371" type="curve"/>
      <point x="215" y="371"/>
      <point x="340" y="371"/>
    </contour>
    <contour>
      <point x="109" y="578" type="line"/>
      <point x="149" y="615"/>
      <point x="214" y="649"/>
      <point x="286" y="649" type="curve"/>
      <point x="383" y="649"/>
      <point x="459" y="610"/>
      <point x="459" y="519" type="curve"/>
      <point x="459" y="418"/>
      <point x="358" y="371"/>
      <point x="229" y="371" type="curve"/>
      <point x="229" y="337"/>
      <point x="229" y="313"/>
      <point x="229" y="278" type="curve"/>
      <point x="427" y="278"/>
      <point x="579" y="357"/>
      <point x="579" y="519" type="curve"/>
      <point x="579" y="670"/>
      <point x="455" y="745"/>
      <point x="293" y="745" type="curve"/>
      <point x="192" y="745"/>
      <point x="113" y="713"/>
      <point x="44" y="649" type="curve"/>
    </contour>
    <contour>
      <point x="353" y="20" type="curve"/>
      <point x="353" y="61"/>
      <point x="321" y="80"/>
      <point x="278" y="80" type="curve"/>
      <point x="235" y="80"/>
      <point x="206" y="58"/>
      <point x="206" y="20" type="curve"/>
      <point x="353" y="20"/>
      <point x="206" y="20"/>
      <point x="353" y="20" type="curve"/>
      <point x="353" y="-22"/>
      <point x="321" y="-40"/>
      <point x="278" y="-40" type="curve"/>
      <point x="235" y="-40"/>
      <point x="206" y="-20"/>
      <point x="206" y="20" type="curve"/>
      <point x="353" y="20"/>
      <point x="206" y="20"/>
    </contour>
  </outline>
</glyph>
<glyph name="at" format="1">
  <advance width="1058"/>
  <unicode hex="0040"/>
  <outline>
    <contour>
      <point x="729" y="-14" type="curve"/>
      <point x="662" y="-38"/>
      <point x="614" y="-46"/>
      <point x="546" y="-46" type="curve"/>
      <point x="333" y="-46"/>
      <point x="176" y="24"/>
      <point x="176" y="215" type="curve"/>
      <point x="176" y="402"/>
      <point x="332" y="467"/>
      <point x="539" y="467" type="curve"/>
      <point x="735" y="467"/>
      <point x="878" y="395"/>
      <point x="878" y="217" type="curve"/>
      <point x="878" y="161"/>
      <point x="868" y="117"/>
      <point x="822" y="117" type="curve"/>
      <point x="771" y="117"/>
      <point x="753" y="161"/>
      <point x="753" y="220" type="curve"/>
      <point x="753" y="346"/>
      <point x="661" y="410"/>
      <point x="528" y="410" type="curve"/>
      <point x="381" y="410"/>
      <point x="281" y="351"/>
      <point x="281" y="217" type="curve"/>
      <point x="281" y="83"/>
      <point x="373" y="16"/>
      <point x="513" y="16" type="curve"/>
      <point x="635" y="16"/>
      <point x="708" y="82"/>
      <point x="734" y="201" type="curve"/>
      <point x="654" y="220"/>
      <point x="734" y="201"/>
      <point x="654" y="220" type="curve"/>
      <point x="633" y="152"/>
      <point x="599" y="109"/>
      <point x="530" y="109" type="curve"/>
      <point x="452" y="109"/>
      <point x="400" y="147"/>
      <point x="400" y="221" type="curve"/>
      <point x="400" y="287"/>
      <point x="448" y="316"/>
      <point x="517" y="316" type="curve"/>
      <point x="590" y="316"/>
      <point x="638" y="284"/>
      <point x="638" y="215" type="curve"/>
      <point x="638" y="101"/>
      <point x="699" y="29"/>
      <point x="812" y="29" type="curve"/>
      <point x="930" y="29"/>
      <point x="997" y="101"/>
      <point x="997" y="221" type="curve"/>
      <point x="997" y="462"/>
      <point x="807" y="564"/>
      <point x="545" y="564" type="curve"/>
      <point x="263" y="564"/>
      <point x="57" y="467"/>
      <point x="57" y="210" type="curve"/>
      <point x="57" y="-42"/>
      <point x="261" y="-140"/>
      <point x="540" y="-140" type="curve"/>
      <point x="632" y="-140"/>
      <point x="705" y="-122"/>
      <point x="771" y="-93" type="curve"/>
      <point x="729" y="-14"/>
      <point x="771" y="-93"/>
    </contour>
  </outline>
</glyph>
<glyph name="B" format="1">
  <advance width="850"/>
  <unicode hex="0042"/>
  <outline>
    <contour>
      <point x="230" y="722" type="curve"/>
      <point x="176" y="722"/>
      <point x="123" y="722"/>
      <point x="69" y="722" type="curve"/>
      <point x="69" y="629"/>
      <point x="69" y="722"/>
      <point x="69" y="629" type="curve"/>
      <point x="231" y="629"/>
      <point x="68" y="629"/>
      <point x="230" y="629" type="curve"/>
      <point x="230" y="722"/>
      <point x="230" y="629"/>
    </contour>
    <contour>
      <point x="229" y="93" type="curve"/>
      <point x="67" y="93"/>
      <point x="230" y="93"/>
      <point x="68" y="93" type="curve"/>
      <point x="68" y="0"/>
      <point x="68" y="93"/>
      <point x="68" y="0" type="curve"/>
      <point x="121" y="0"/>
      <point x="175" y="0"/>
      <point x="229" y="0" type="curve"/>
      <point x="229" y="93"/>
      <point x="229" y="0"/>
    </contour>
    <contour>
      <point x="217" y="629" type="curve"/>
      <point x="306" y="629"/>
      <point x="395" y="629"/>
      <point x="485" y="629" type="curve"/>
      <point x="554" y="629"/>
      <point x="609" y="602"/>
      <point x="609" y="535" type="curve"/>
      <point x="609" y="467"/>
      <point x="533" y="452"/>
      <point x="458" y="452" type="curve"/>
      <point x="377" y="452"/>
      <point x="297" y="452"/>
      <point x="217" y="452" type="curve"/>
      <point x="217" y="364"/>
      <point x="217" y="446"/>
      <point x="217" y="358" type="curve"/>
      <point x="277" y="358"/>
      <point x="336" y="358"/>
      <point x="397" y="358" type="curve"/>
      <point x="531" y="358"/>
      <point x="735" y="385"/>
      <point x="735" y="535" type="curve"/>
      <point x="735" y="667"/>
      <point x="629" y="722"/>
      <point x="486" y="722" type="curve"/>
      <point x="395" y="722"/>
      <point x="307" y="722"/>
      <point x="217" y="722" type="curve"/>
      <point x="217" y="634"/>
      <point x="217" y="717"/>
    </contour>
    <contour>
      <point x="296" y="0" type="curve"/>
      <point x="296" y="241"/>
      <point x="296" y="481"/>
      <point x="296" y="722" type="curve"/>
      <point x="164" y="722"/>
      <point x="296" y="722"/>
      <point x="164" y="722" type="curve"/>
      <point x="164" y="481"/>
      <point x="164" y="241"/>
      <point x="164" y="0" type="curve"/>
      <point x="296" y="0"/>
      <point x="164" y="0"/>
    </contour>
    <contour>
      <point x="217" y="358" type="curve"/>
      <point x="297" y="358"/>
      <point x="377" y="358"/>
      <point x="458" y="358" type="curve"/>
      <point x="572" y="358"/>
      <point x="668" y="326"/>
      <point x="668" y="221" type="curve"/>
      <point x="668" y="126"/>
      <point x="589" y="93"/>
      <point x="483" y="93" type="curve"/>
      <point x="393" y="93"/>
      <point x="306" y="93"/>
      <point x="217" y="93" type="curve"/>
      <point x="217" y="5"/>
      <point x="217" y="88"/>
      <point x="217" y="0" type="curve"/>
      <point x="306" y="0"/>
      <point x="394" y="0"/>
      <point x="483" y="0" type="curve"/>
      <point x="663" y="0"/>
      <point x="794" y="60"/>
      <point x="794" y="220" type="curve"/>
      <point x="794" y="411"/>
      <point x="568" y="452"/>
      <point x="397" y="452" type="curve"/>
      <point x="336" y="452"/>
      <point x="277" y="452"/>
      <point x="217" y="452" type="curve"/>
      <point x="217" y="364"/>
      <point x="217" y="446"/>
    </contour>
  </outline>
</glyph>
<glyph name="D" format="1">
  <advance width="985"/>
  <unicode hex="0044"/>
  <outline>
    <contour>
      <point x="231" y="93" type="curve"/>
      <point x="68" y="93"/>
      <point x="231" y="93"/>
      <point x="69" y="93" type="curve"/>
      <point x="69" y="0"/>
      <point x="69" y="93"/>
      <point x="69" y="0" type="curve"/>
      <point x="123" y="0"/>
      <point x="177" y="0"/>
      <point x="231" y="0" type="curve"/>
      <point x="231" y="93"/>
      <point x="231" y="0"/>
    </contour>
    <contour>
      <point x="231" y="722" type="curve"/>
      <point x="177" y="722"/>
      <point x="123" y="722"/>
      <point x="69" y="722" type="curve"/>
      <point x="69" y="629"/>
      <point x="69" y="722"/>
      <point x="69" y="629" type="curve"/>
      <point x="231" y="629"/>
      <point x="68" y="629"/>
      <point x="231" y="629" type="curve"/>
      <point x="231" y="722"/>
      <point x="231" y="629"/>
    </contour>
    <contour>
      <point x="165" y="722" type="curve"/>
      <point x="165" y="481"/>
      <point x="165" y="241"/>
      <point x="165" y="0" type="curve"/>
      <point x="291" y="0"/>
      <point x="165" y="0"/>
      <point x="291" y="0" type="curve"/>
      <point x="291" y="241"/>
      <point x="291" y="481"/>
      <point x="291" y="722" type="curve"/>
      <point x="165" y="722"/>
      <point x="291" y="722"/>
    </contour>
    <contour>
      <point x="231" y="0" type="curve"/>
      <point x="312" y="0"/>
      <point x="394" y="0"/>
      <point x="477" y="0" type="curve"/>
      <point x="750" y="0"/>
      <point x="925" y="100"/>
      <point x="925" y="353" type="curve"/>
      <point x="925" y="616"/>
      <point x="748" y="722"/>
      <point x="467" y="722" type="curve"/>
      <point x="388" y="722"/>
      <point x="310" y="722"/>
      <point x="231" y="722" type="curve"/>
      <point x="231" y="629"/>
      <point x="231" y="722"/>
      <point x="231" y="629" type="curve"/>
      <point x="307" y="629"/>
      <point x="384" y="629"/>
      <point x="461" y="629" type="curve"/>
      <point x="670" y="629"/>
      <point x="800" y="546"/>
      <point x="800" y="350" type="curve"/>
      <point x="800" y="169"/>
      <point x="679" y="93"/>
      <point x="487" y="93" type="curve"/>
      <point x="401" y="93"/>
      <point x="316" y="93"/>
      <point x="231" y="93" type="curve"/>
      <point x="231" y="0"/>
      <point x="231" y="93"/>
    </contour>
    <contour>
      <point x="457" y="791" type="move" name="top"/>
    </contour>
  </outline>
</glyph>
<glyph name="F" format="1">
  <advance width="765"/>
  <unicode hex="0046"/>
  <outline>
    <contour>
      <point x="229" y="0" type="curve"/>
      <point x="283" y="0"/>
      <point x="229" y="0"/>
      <point x="391" y="0" type="curve"/>
      <point x="391" y="93"/>
      <point x="391" y="0"/>
      <point x="391" y="93" type="curve"/>
      <point x="229" y="93"/>
      <point x="391" y="93"/>
      <point x="229" y="93" type="curve"/>
      <point x="229" y="0"/>
      <point x="229" y="93"/>
    </contour>
    <contour>
      <point x="229" y="722" type="curve"/>
      <point x="176" y="722"/>
      <point x="122" y="722"/>
      <point x="67" y="722" type="curve"/>
      <point x="67" y="629"/>
      <point x="67" y="722"/>
      <point x="67" y="629" type="curve"/>
      <point x="230" y="629"/>
      <point x="67" y="629"/>
      <point x="229" y="629" type="curve"/>
      <point x="229" y="722"/>
      <point x="229" y="629"/>
    </contour>
    <contour>
      <point x="229" y="93" type="curve"/>
      <point x="67" y="93"/>
      <point x="230" y="93"/>
      <point x="67" y="93" type="curve"/>
      <point x="67" y="0"/>
      <point x="67" y="93"/>
      <point x="67" y="0" type="curve"/>
      <point x="122" y="0"/>
      <point x="176" y="0"/>
      <point x="229" y="0" type="curve"/>
      <point x="229" y="93"/>
      <point x="229" y="0"/>
    </contour>
    <contour>
      <point x="632" y="676" type="curve"/>
      <point x="632" y="556"/>
      <point x="632" y="676"/>
      <point x="632" y="556" type="curve"/>
      <point x="730" y="556"/>
      <point x="632" y="556"/>
      <point x="730" y="556" type="curve"/>
      <point x="730" y="676"/>
      <point x="730" y="556"/>
      <point x="730" y="676" type="curve"/>
      <point x="632" y="676"/>
      <point x="730" y="676"/>
    </contour>
    <contour>
      <point x="235" y="326" type="curve"/>
      <point x="369" y="326"/>
      <point x="504" y="326"/>
      <point x="638" y="326" type="curve"/>
      <point x="638" y="420"/>
      <point x="638" y="326"/>
      <point x="638" y="420" type="curve"/>
      <point x="504" y="420"/>
      <point x="369" y="420"/>
      <point x="235" y="420" type="curve"/>
      <point x="235" y="326"/>
      <point x="235" y="420"/>
    </contour>
    <contour>
      <point x="293" y="0" type="curve"/>
      <point x="293" y="722" type="line"/>
      <point x="166" y="722"/>
      <point x="293" y="722"/>
      <point x="166" y="722" type="curve"/>
      <point x="166" y="481"/>
      <point x="166" y="241"/>
      <point x="166" y="0" type="curve"/>
      <point x="293" y="0"/>
      <point x="166" y="0"/>
    </contour>
    <contour>
      <point x="215" y="629" type="curve"/>
      <point x="387" y="629"/>
      <point x="558" y="629"/>
      <point x="730" y="629" type="curve"/>
      <point x="730" y="722"/>
      <point x="730" y="629"/>
      <point x="730" y="722" type="curve"/>
      <point x="558" y="722"/>
      <point x="387" y="722"/>
      <point x="215" y="722" type="curve"/>
      <point x="215" y="629"/>
      <point x="215" y="722"/>
    </contour>
  </outline>
</glyph>
<glyph name="G" format="1">
  <advance width="986"/>
  <unicode hex="0047"/>
  <outline>
    <contour>
      <point x="795" y="645" type="curve"/>
      <point x="795" y="523"/>
      <point x="795" y="618"/>
      <point x="795" y="496" type="curve"/>
      <point x="892" y="496"/>
      <point x="795" y="496"/>
      <point x="892" y="496" type="curve"/>
      <point x="892" y="618"/>
      <point x="892" y="523"/>
      <point x="892" y="645" type="curve"/>
      <point x="795" y="645"/>
      <point x="892" y="645"/>
    </contour>
    <contour>
      <point x="879" y="360" type="curve"/>
      <point x="787" y="360"/>
      <point x="694" y="360"/>
      <point x="603" y="360" type="curve"/>
      <point x="603" y="267"/>
      <point x="603" y="360"/>
      <point x="603" y="267" type="curve"/>
      <point x="694" y="267"/>
      <point x="787" y="267"/>
      <point x="879" y="267" type="curve"/>
      <point x="879" y="360"/>
      <point x="879" y="267"/>
    </contour>
    <contour>
      <point x="914" y="79" type="curve"/>
      <point x="914" y="172"/>
      <point x="914" y="266"/>
      <point x="914" y="360" type="curve"/>
      <point x="799" y="360"/>
      <point x="914" y="360"/>
      <point x="799" y="360" type="curve"/>
      <point x="799" y="266"/>
      <point x="799" y="172"/>
      <point x="799" y="79" type="curve"/>
      <point x="914" y="79"/>
      <point x="799" y="79"/>
    </contour>
    <contour>
      <point x="892" y="645" type="curve"/>
      <point x="767" y="703"/>
      <point x="659" y="727"/>
      <point x="521" y="727" type="curve"/>
      <point x="250" y="727"/>
      <point x="60" y="614"/>
      <point x="60" y="361" type="curve"/>
      <point x="60" y="103"/>
      <point x="258" y="-5"/>
      <point x="535" y="-5" type="curve"/>
      <point x="682" y="-5"/>
      <point x="777" y="22"/>
      <point x="914" y="79" type="curve"/>
      <point x="850" y="148"/>
      <point x="914" y="79"/>
      <point x="850" y="148" type="curve"/>
      <point x="740" y="103"/>
      <point x="655" y="93"/>
      <point x="535" y="93" type="curve"/>
      <point x="329" y="93"/>
      <point x="186" y="177"/>
      <point x="186" y="370" type="curve"/>
      <point x="186" y="551"/>
      <point x="325" y="630"/>
      <point x="522" y="630" type="curve"/>
      <point x="635" y="630"/>
      <point x="725" y="613"/>
      <point x="829" y="565" type="curve"/>
      <point x="892" y="645"/>
      <point x="829" y="565"/>
    </contour>
    <contour>
      <point x="521" y="791" type="move" name="top"/>
    </contour>
    <contour>
      <point x="576" y="10" type="move" name="bottom"/>
    </contour>
  </outline>
</glyph>
<glyph name="H" format="1">
  <advance width="1048"/>
  <unicode hex="0048"/>
  <outline>
    <contour>
      <point x="841" y="629" type="curve"/>
      <point x="1024" y="629"/>
      <point x="820" y="629"/>
      <point x="1003" y="629" type="curve"/>
      <point x="1003" y="722"/>
      <point x="1003" y="629"/>
      <point x="1003" y="722" type="curve"/>
      <point x="942" y="722"/>
      <point x="902" y="722"/>
      <point x="841" y="722" type="curve"/>
      <point x="841" y="629"/>
      <point x="841" y="722"/>
    </contour>
    <contour>
      <point x="841" y="0" type="curve"/>
      <point x="902" y="0"/>
      <point x="942" y="0"/>
      <point x="1003" y="0" type="curve"/>
      <point x="1003" y="93"/>
      <point x="1003" y="0"/>
      <point x="1003" y="93" type="curve"/>
      <point x="820" y="93"/>
      <point x="1024" y="93"/>
      <point x="841" y="93" type="curve"/>
      <point x="841" y="0"/>
      <point x="841" y="93"/>
    </contour>
    <contour>
      <point x="841" y="93" type="curve"/>
      <point x="658" y="93"/>
      <point x="862" y="93"/>
      <point x="679" y="93" type="curve"/>
      <point x="679" y="0"/>
      <point x="679" y="93"/>
      <point x="679" y="0" type="curve"/>
      <point x="740" y="0"/>
      <point x="780" y="0"/>
      <point x="841" y="0" type="curve"/>
      <point x="841" y="93"/>
      <point x="841" y="0"/>
    </contour>
    <contour>
      <point x="841" y="722" type="curve"/>
      <point x="780" y="722"/>
      <point x="740" y="722"/>
      <point x="679" y="722" type="curve"/>
      <point x="679" y="629"/>
      <point x="679" y="722"/>
      <point x="679" y="629" type="curve"/>
      <point x="862" y="629"/>
      <point x="658" y="629"/>
      <point x="841" y="629" type="curve"/>
      <point x="841" y="722"/>
      <point x="841" y="629"/>
    </contour>
    <contour>
      <point x="207" y="629" type="curve"/>
      <point x="390" y="629"/>
      <point x="186" y="629"/>
      <point x="369" y="629" type="curve"/>
      <point x="369" y="722"/>
      <point x="369" y="629"/>
      <point x="369" y="722" type="curve"/>
      <point x="308" y="722"/>
      <point x="268" y="722"/>
      <point x="207" y="722" type="curve"/>
      <point x="207" y="629"/>
      <point x="207" y="722"/>
    </contour>
    <contour>
      <point x="207" y="722" type="curve"/>
      <point x="146" y="722"/>
      <point x="106" y="722"/>
      <point x="45" y="722" type="curve"/>
      <point x="45" y="629"/>
      <point x="45" y="722"/>
      <point x="45" y="629" type="curve"/>
      <point x="228" y="629"/>
      <point x="24" y="629"/>
      <point x="207" y="629" type="curve"/>
      <point x="207" y="722"/>
      <point x="207" y="629"/>
    </contour>
    <contour>
      <point x="207" y="0" type="curve"/>
      <point x="268" y="0"/>
      <point x="186" y="0"/>
      <point x="369" y="0" type="curve"/>
      <point x="369" y="93"/>
      <point x="369" y="0"/>
      <point x="369" y="93" type="curve"/>
      <point x="186" y="93"/>
      <point x="390" y="93"/>
      <point x="207" y="93" type="curve"/>
      <point x="207" y="0"/>
      <point x="207" y="93"/>
    </contour>
    <contour>
      <point x="207" y="93" type="curve"/>
      <point x="24" y="93"/>
      <point x="228" y="93"/>
      <point x="45" y="93" type="curve"/>
      <point x="45" y="0"/>
      <point x="45" y="93"/>
      <point x="45" y="0" type="curve"/>
      <point x="106" y="0"/>
      <point x="146" y="0"/>
      <point x="207" y="0" type="curve"/>
      <point x="207" y="93"/>
      <point x="207" y="0"/>
    </contour>
    <contour>
      <point x="270" y="0" type="curve"/>
      <point x="270" y="722" type="line"/>
      <point x="144" y="722"/>
      <point x="270" y="722"/>
      <point x="144" y="722" type="curve"/>
      <point x="144" y="481"/>
      <point x="144" y="241"/>
      <point x="144" y="0" type="curve"/>
      <point x="270" y="0"/>
      <point x="144" y="0"/>
    </contour>
    <contour>
      <point x="837" y="409" type="curve"/>
      <point x="627" y="409"/>
      <point x="417" y="409"/>
      <point x="207" y="409" type="curve"/>
      <point x="207" y="316"/>
      <point x="207" y="409"/>
      <point x="207" y="316" type="curve"/>
      <point x="417" y="316"/>
      <point x="627" y="316"/>
      <point x="837" y="316" type="curve"/>
      <point x="837" y="409"/>
      <point x="837" y="316"/>
    </contour>
    <contour>
      <point x="903" y="38" type="curve"/>
      <point x="903" y="253"/>
      <point x="903" y="469"/>
      <point x="903" y="684" type="curve"/>
      <point x="777" y="684"/>
      <point x="903" y="684"/>
      <point x="777" y="684" type="curve"/>
      <point x="777" y="38" type="line"/>
      <point x="903" y="38"/>
      <point x="777" y="38"/>
    </contour>
  </outline>
</glyph>
<glyph name="J" format="1">
  <advance width="576"/>
  <unicode hex="004A"/>
  <outline>
    <contour>
      <point x="392" y="722" type="curve"/>
      <point x="332" y="722"/>
      <point x="293" y="722"/>
      <point x="232" y="722" type="curve"/>
      <point x="232" y="629"/>
      <point x="232" y="722"/>
      <point x="232" y="629" type="curve"/>
      <point x="413" y="629"/>
      <point x="211" y="629"/>
      <point x="392" y="629" type="curve"/>
      <point x="392" y="722"/>
      <point x="392" y="629"/>
    </contour>
    <contour>
      <point x="392" y="629" type="curve"/>
      <point x="570" y="629"/>
      <point x="371" y="629"/>
      <point x="549" y="629" type="curve"/>
      <point x="549" y="722"/>
      <point x="549" y="629"/>
      <point x="549" y="722" type="curve"/>
      <point x="490" y="722"/>
      <point x="451" y="722"/>
      <point x="392" y="722" type="curve"/>
      <point x="392" y="629"/>
      <point x="392" y="722"/>
    </contour>
    <contour>
      <point x="4" y="44" type="curve"/>
      <point x="45" y="22"/>
      <point x="103" y="-4"/>
      <point x="174" y="-4" type="curve"/>
      <point x="344" y="-4"/>
      <point x="453" y="74"/>
      <point x="453" y="240" type="curve"/>
      <point x="453" y="400"/>
      <point x="453" y="562"/>
      <point x="453" y="722" type="curve"/>
      <point x="328" y="722"/>
      <point x="453" y="722"/>
      <point x="328" y="722" type="curve"/>
      <point x="328" y="562"/>
      <point x="328" y="400"/>
      <point x="328" y="240" type="curve"/>
      <point x="328" y="144"/>
      <point x="270" y="89"/>
      <point x="174" y="89" type="curve"/>
      <point x="129" y="89"/>
      <point x="99" y="102"/>
      <point x="62" y="118" type="curve"/>
      <point x="4" y="45"/>
      <point x="61" y="118"/>
    </contour>
  </outline>
</glyph>
<glyph name="K" format="1">
  <advance width="886"/>
  <unicode hex="004B"/>
  <outline>
    <contour>
      <point x="709" y="722" type="curve"/>
      <point x="646" y="722"/>
      <point x="516" y="722"/>
      <point x="453" y="722" type="curve"/>
      <point x="453" y="629"/>
      <point x="453" y="722"/>
      <point x="453" y="629" type="curve"/>
      <point x="641" y="629"/>
      <point x="522" y="629"/>
      <point x="709" y="629" type="curve"/>
      <point x="709" y="722"/>
      <point x="709" y="629"/>
    </contour>
    <contour>
      <point x="723" y="0" type="curve"/>
      <point x="785" y="0"/>
      <point x="800" y="0"/>
      <point x="862" y="0" type="curve"/>
      <point x="862" y="93"/>
      <point x="862" y="0"/>
      <point x="862" y="93" type="curve"/>
      <point x="677" y="93"/>
      <point x="908" y="93"/>
      <point x="723" y="93" type="curve"/>
      <point x="723" y="0"/>
      <point x="723" y="93"/>
    </contour>
    <contour>
      <point x="707" y="629" type="curve"/>
      <point x="881" y="629"/>
      <point x="646" y="629"/>
      <point x="820" y="629" type="curve"/>
      <point x="820" y="722"/>
      <point x="820" y="629"/>
      <point x="820" y="722" type="curve"/>
      <point x="761" y="722"/>
      <point x="765" y="722"/>
      <point x="707" y="722" type="curve"/>
      <point x="707" y="629"/>
      <point x="707" y="722"/>
    </contour>
    <contour>
      <point x="207" y="722" type="curve"/>
      <point x="146" y="722"/>
      <point x="106" y="722"/>
      <point x="45" y="722" type="curve"/>
      <point x="45" y="629"/>
      <point x="45" y="722"/>
      <point x="45" y="629" type="curve"/>
      <point x="227" y="629"/>
      <point x="24" y="629"/>
      <point x="207" y="629" type="curve"/>
      <point x="207" y="722"/>
      <point x="207" y="629"/>
    </contour>
    <contour>
      <point x="207" y="629" type="curve"/>
      <point x="373" y="629"/>
      <point x="192" y="629"/>
      <point x="358" y="629" type="curve"/>
      <point x="358" y="722"/>
      <point x="358" y="629"/>
      <point x="358" y="722" type="curve"/>
      <point x="302" y="722"/>
      <point x="262" y="722"/>
      <point x="207" y="722" type="curve"/>
      <point x="207" y="629"/>
      <point x="207" y="722"/>
    </contour>
    <contour>
      <point x="207" y="0" type="curve"/>
      <point x="268" y="0"/>
      <point x="183" y="0"/>
      <point x="367" y="0" type="curve"/>
      <point x="367" y="93"/>
      <point x="367" y="0"/>
      <point x="367" y="93" type="curve"/>
      <point x="183" y="93"/>
      <point x="391" y="93"/>
      <point x="207" y="93" type="curve"/>
      <point x="207" y="0"/>
      <point x="207" y="93"/>
    </contour>
    <contour>
      <point x="207" y="93" type="curve"/>
      <point x="24" y="93"/>
      <point x="227" y="93"/>
      <point x="45" y="93" type="curve"/>
      <point x="45" y="0"/>
      <point x="45" y="93"/>
      <point x="45" y="0" type="curve"/>
      <point x="106" y="0"/>
      <point x="146" y="0"/>
      <point x="207" y="0" type="curve"/>
      <point x="207" y="93"/>
      <point x="207" y="0"/>
    </contour>
    <contour>
      <point x="656" y="722" type="curve"/>
      <point x="227" y="380" type="line"/>
      <point x="387" y="380"/>
      <point x="224" y="380"/>
      <point x="385" y="380" type="curve"/>
      <point x="774" y="684" type="line"/>
      <point x="594" y="684"/>
      <point x="835" y="722"/>
    </contour>
    <contour>
      <point x="270" y="0" type="curve"/>
      <point x="270" y="722" type="line"/>
      <point x="144" y="722"/>
      <point x="270" y="722"/>
      <point x="144" y="722" type="curve"/>
      <point x="144" y="481"/>
      <point x="144" y="241"/>
      <point x="144" y="0" type="curve"/>
      <point x="270" y="0"/>
      <point x="144" y="0"/>
    </contour>
    <contour>
      <point x="811" y="40" type="curve"/>
      <point x="385" y="380" type="line"/>
      <point x="224" y="380"/>
      <point x="387" y="380"/>
      <point x="227" y="380" type="curve"/>
      <point x="682" y="0" type="line"/>
      <point x="870" y="0"/>
      <point x="623" y="40"/>
    </contour>
    <contour>
      <point x="498" y="3" type="move" name="bottom"/>
    </contour>
  </outline>
</glyph>
<glyph name="M" format="1">
  <advance width="1218"/>
  <unicode hex="004D"/>
  <outline>
    <contour>
      <point x="1035" y="0" type="curve"/>
      <point x="1095" y="0"/>
      <point x="1135" y="0"/>
      <point x="1195" y="0" type="curve"/>
      <point x="1195" y="93"/>
      <point x="1195" y="0"/>
      <point x="1195" y="93" type="curve"/>
      <point x="1014" y="93"/>
      <point x="1216" y="93"/>
      <point x="1035" y="93" type="curve"/>
      <point x="1035" y="0"/>
      <point x="1035" y="93"/>
    </contour>
    <contour>
      <point x="1035" y="93" type="curve"/>
      <point x="854" y="93"/>
      <point x="1056" y="93"/>
      <point x="875" y="93" type="curve"/>
      <point x="875" y="0"/>
      <point x="875" y="93"/>
      <point x="875" y="0" type="curve"/>
      <point x="935" y="0"/>
      <point x="974" y="0"/>
      <point x="1035" y="0" type="curve"/>
      <point x="1035" y="93"/>
      <point x="1035" y="0"/>
    </contour>
    <contour>
      <point x="185" y="93" type="curve"/>
      <point x="3" y="93"/>
      <point x="206" y="93"/>
      <point x="24" y="93" type="curve"/>
      <point x="24" y="0"/>
      <point x="24" y="93"/>
      <point x="24" y="0" type="curve"/>
      <point x="84" y="0"/>
      <point x="124" y="0"/>
      <point x="185" y="0" type="curve"/>
      <point x="185" y="93"/>
      <point x="185" y="0"/>
    </contour>
    <contour>
      <point x="252" y="722" type="curve"/>
      <point x="191" y="722"/>
      <point x="151" y="722"/>
      <point x="91" y="722" type="curve"/>
      <point x="91" y="629"/>
      <point x="91" y="722"/>
      <point x="91" y="629" type="curve"/>
      <point x="273" y="629"/>
      <point x="70" y="629"/>
      <point x="252" y="629" type="curve"/>
      <point x="252" y="722"/>
      <point x="252" y="629"/>
    </contour>
    <contour>
      <point x="966" y="629" type="curve"/>
      <point x="1148" y="629"/>
      <point x="945" y="629"/>
      <point x="1127" y="629" type="curve"/>
      <point x="1127" y="722"/>
      <point x="1127" y="629"/>
      <point x="1127" y="722" type="curve"/>
      <point x="1066" y="722"/>
      <point x="1026" y="722"/>
      <point x="966" y="722" type="curve"/>
      <point x="966" y="629"/>
      <point x="966" y="722"/>
    </contour>
    <contour>
      <point x="185" y="0" type="curve"/>
      <point x="245" y="0"/>
      <point x="164" y="0"/>
      <point x="345" y="0" type="curve"/>
      <point x="345" y="93"/>
      <point x="345" y="0"/>
      <point x="345" y="93" type="curve"/>
      <point x="164" y="93"/>
      <point x="366" y="93"/>
      <point x="185" y="93" type="curve"/>
      <point x="185" y="0"/>
      <point x="185" y="93"/>
    </contour>
    <contour>
      <point x="1105" y="0" type="curve"/>
      <point x="1079" y="241"/>
      <point x="1048" y="481"/>
      <point x="1023" y="722" type="curve"/>
      <point x="908" y="722"/>
      <point x="1023" y="722"/>
      <point x="908" y="722" type="curve"/>
      <point x="933" y="482"/>
      <point x="954" y="240"/>
      <point x="979" y="0" type="curve"/>
      <point x="1105" y="0"/>
      <point x="979" y="0"/>
    </contour>
    <contour>
      <point x="239" y="0" type="curve"/>
      <point x="263" y="241"/>
      <point x="286" y="481"/>
      <point x="310" y="722" type="curve"/>
      <point x="188" y="722"/>
      <point x="310" y="722"/>
      <point x="188" y="722" type="curve"/>
      <point x="163" y="481"/>
      <point x="139" y="241"/>
      <point x="114" y="0" type="curve"/>
      <point x="239" y="0"/>
      <point x="114" y="0"/>
    </contour>
    <contour>
      <point x="667" y="0" type="curve"/>
      <point x="549" y="241"/>
      <point x="432" y="481"/>
      <point x="314" y="722" type="curve"/>
      <point x="191" y="722"/>
      <point x="313" y="722"/>
      <point x="190" y="722" type="curve"/>
      <point x="308" y="481"/>
      <point x="425" y="241"/>
      <point x="542" y="0" type="curve"/>
      <point x="666" y="0"/>
      <point x="543" y="0"/>
    </contour>
    <contour>
      <point x="678" y="0" type="curve"/>
      <point x="793" y="241"/>
      <point x="908" y="481"/>
      <point x="1023" y="722" type="curve"/>
      <point x="901" y="722"/>
      <point x="1023" y="722"/>
      <point x="900" y="722" type="curve"/>
      <point x="784" y="481"/>
      <point x="668" y="241"/>
      <point x="552" y="0" type="curve"/>
      <point x="677" y="0"/>
      <point x="552" y="0"/>
    </contour>
  </outline>
</glyph>
<glyph name="P" format="1">
  <advance width="790"/>
  <unicode hex="0050"/>
  <outline>
    <contour>
      <point x="230" y="722" type="curve"/>
      <point x="177" y="722"/>
      <point x="123" y="722"/>
      <point x="68" y="722" type="curve"/>
      <point x="68" y="629"/>
      <point x="68" y="722"/>
      <point x="68" y="629" type="curve"/>
      <point x="231" y="629"/>
      <point x="68" y="629"/>
      <point x="230" y="629" type="curve"/>
      <point x="230" y="722"/>
      <point x="230" y="629"/>
    </contour>
    <contour>
      <point x="230" y="93" type="curve"/>
      <point x="68" y="93"/>
      <point x="231" y="93"/>
      <point x="68" y="93" type="curve"/>
      <point x="68" y="0"/>
      <point x="68" y="93"/>
      <point x="68" y="0" type="curve"/>
      <point x="123" y="0"/>
      <point x="177" y="0"/>
      <point x="230" y="0" type="curve"/>
      <point x="230" y="93"/>
      <point x="230" y="0"/>
    </contour>
    <contour>
      <point x="230" y="0" type="curve"/>
      <point x="284" y="0"/>
      <point x="230" y="0"/>
      <point x="391" y="0" type="curve"/>
      <point x="391" y="93"/>
      <point x="391" y="0"/>
      <point x="391" y="93" type="curve"/>
      <point x="230" y="93"/>
      <point x="392" y="93"/>
      <point x="230" y="93" type="curve"/>
      <point x="230" y="0"/>
      <point x="230" y="93"/>
    </contour>
    <contour>
      <point x="212" y="297" type="curve"/>
      <point x="283" y="271"/>
      <point x="366" y="252"/>
      <point x="443" y="252" type="curve"/>
      <point x="622" y="255"/>
      <point x="747" y="320"/>
      <point x="747" y="484" type="curve"/>
      <point x="747" y="653"/>
      <point x="592" y="722"/>
      <point x="401" y="722" type="curve"/>
      <point x="345" y="722"/>
      <point x="290" y="722"/>
      <point x="234" y="722" type="curve"/>
      <point x="234" y="629"/>
      <point x="234" y="722"/>
      <point x="234" y="629" type="curve"/>
      <point x="284" y="629"/>
      <point x="334" y="629"/>
      <point x="384" y="629" type="curve"/>
      <point x="513" y="629"/>
      <point x="622" y="594"/>
      <point x="622" y="487" type="curve"/>
      <point x="622" y="385"/>
      <point x="536" y="345"/>
      <point x="432" y="345" type="curve"/>
      <point x="364" y="345"/>
      <point x="315" y="357"/>
      <point x="252" y="381" type="curve"/>
      <point x="212" y="298"/>
      <point x="252" y="381"/>
    </contour>
    <contour>
      <point x="292" y="0" type="curve"/>
      <point x="292" y="241"/>
      <point x="292" y="481"/>
      <point x="292" y="722" type="curve"/>
      <point x="166" y="722"/>
      <point x="292" y="722"/>
      <point x="166" y="722" type="curve"/>
      <point x="166" y="481"/>
      <point x="166" y="241"/>
      <point x="166" y="0" type="curve"/>
      <point x="292" y="0"/>
      <point x="166" y="0"/>
    </contour>
  </outline>
</glyph>
<glyph name="R" format="1">
  <advance width="917"/>
  <unicode hex="0052"/>
  <outline>
    <contour>
      <point x="735" y="0" type="curve"/>
      <point x="789" y="0"/>
      <point x="844" y="0"/>
      <point x="900" y="0" type="curve"/>
      <point x="900" y="93"/>
      <point x="900" y="0"/>
      <point x="900" y="93" type="curve"/>
      <point x="734" y="93"/>
      <point x="900" y="93"/>
      <point x="735" y="93" type="curve"/>
      <point x="735" y="0"/>
      <point x="735" y="93"/>
    </contour>
    <contour>
      <point x="229" y="722" type="curve"/>
      <point x="174" y="722"/>
      <point x="120" y="722"/>
      <point x="67" y="722" type="curve"/>
      <point x="67" y="629"/>
      <point x="67" y="722"/>
      <point x="67" y="629" type="curve"/>
      <point x="229" y="629"/>
      <point x="67" y="629"/>
      <point x="229" y="629" type="curve"/>
      <point x="229" y="722"/>
      <point x="229" y="629"/>
    </contour>
    <contour>
      <point x="229" y="93" type="curve"/>
      <point x="67" y="93"/>
      <point x="229" y="93"/>
      <point x="67" y="93" type="curve"/>
      <point x="67" y="0"/>
      <point x="67" y="93"/>
      <point x="67" y="0" type="curve"/>
      <point x="120" y="0"/>
      <point x="174" y="0"/>
      <point x="229" y="0" type="curve"/>
      <point x="229" y="93"/>
      <point x="229" y="0"/>
    </contour>
    <contour>
      <point x="229" y="0" type="curve"/>
      <point x="282" y="0"/>
      <point x="228" y="0"/>
      <point x="390" y="0" type="curve"/>
      <point x="390" y="93"/>
      <point x="390" y="0"/>
      <point x="390" y="93" type="curve"/>
      <point x="228" y="93"/>
      <point x="391" y="93"/>
      <point x="229" y="93" type="curve"/>
      <point x="229" y="0"/>
      <point x="229" y="93"/>
    </contour>
    <contour>
      <point x="412" y="354" type="curve"/>
      <point x="494" y="262"/>
      <point x="641" y="92"/>
      <point x="723" y="0" type="curve"/>
      <point x="851" y="0"/>
      <point x="723" y="24"/>
      <point x="852" y="24" type="curve"/>
      <point x="777" y="108"/>
      <point x="639" y="270"/>
      <point x="565" y="354" type="curve"/>
      <point x="413" y="354"/>
      <point x="565" y="354"/>
    </contour>
    <contour>
      <point x="293" y="0" type="curve"/>
      <point x="293" y="241"/>
      <point x="293" y="481"/>
      <point x="293" y="722" type="curve"/>
      <point x="167" y="722"/>
      <point x="293" y="722"/>
      <point x="167" y="722" type="curve"/>
      <point x="167" y="481"/>
      <point x="167" y="241"/>
      <point x="167" y="0" type="curve"/>
      <point x="293" y="0"/>
      <point x="167" y="0"/>
    </contour>
    <contour>
      <point x="232" y="305" type="curve"/>
      <point x="302" y="305"/>
      <point x="371" y="305"/>
      <point x="441" y="305" type="curve"/>
      <point x="628" y="305"/>
      <point x="768" y="356"/>
      <point x="768" y="523" type="curve"/>
      <point x="768" y="677"/>
      <point x="637" y="722"/>
      <point x="464" y="722" type="curve"/>
      <point x="387" y="722"/>
      <point x="310" y="722"/>
      <point x="232" y="722" type="curve"/>
      <point x="232" y="629"/>
      <point x="232" y="722"/>
      <point x="232" y="629" type="curve"/>
      <point x="302" y="629"/>
      <point x="371" y="629"/>
      <point x="442" y="629" type="curve"/>
      <point x="554" y="629"/>
      <point x="642" y="611"/>
      <point x="642" y="513" type="curve"/>
      <point x="642" y="421"/>
      <point x="560" y="399"/>
      <point x="455" y="399" type="curve"/>
      <point x="381" y="399"/>
      <point x="306" y="399"/>
      <point x="232" y="399" type="curve"/>
      <point x="232" y="305"/>
      <point x="232" y="399"/>
    </contour>
    <contour>
      <point x="413" y="791" type="move" name="top"/>
    </contour>
    <contour>
      <point x="500" y="0" type="move" name="bottom"/>
    </contour>
  </outline>
</glyph>
<glyph name="U" format="1">
  <advance width="1037"/>
  <unicode hex="0055"/>
  <outline>
    <contour>
      <point x="833" y="629" type="curve"/>
      <point x="995" y="629"/>
      <point x="833" y="629"/>
      <point x="995" y="629" type="curve"/>
      <point x="995" y="722"/>
      <point x="995" y="629"/>
      <point x="995" y="722" type="curve"/>
      <point x="942" y="722"/>
      <point x="887" y="722"/>
      <point x="833" y="722" type="curve"/>
      <point x="833" y="629"/>
      <point x="833" y="722"/>
    </contour>
    <contour>
      <point x="833" y="722" type="curve"/>
      <point x="780" y="722"/>
      <point x="726" y="722"/>
      <point x="672" y="722" type="curve"/>
      <point x="672" y="629"/>
      <point x="672" y="722"/>
      <point x="672" y="629" type="curve"/>
      <point x="834" y="629"/>
      <point x="672" y="629"/>
      <point x="833" y="629" type="curve"/>
      <point x="833" y="722"/>
      <point x="833" y="629"/>
    </contour>
    <contour>
      <point x="206" y="722" type="curve"/>
      <point x="152" y="722"/>
      <point x="98" y="722"/>
      <point x="45" y="722" type="curve"/>
      <point x="44" y="629"/>
      <point x="45" y="722"/>
      <point x="44" y="629" type="curve"/>
      <point x="206" y="629"/>
      <point x="44" y="629"/>
      <point x="206" y="629" type="curve"/>
      <point x="206" y="722"/>
      <point x="206" y="629"/>
    </contour>
    <contour>
      <point x="206" y="629" type="curve"/>
      <point x="368" y="629"/>
      <point x="206" y="629"/>
      <point x="367" y="629" type="curve"/>
      <point x="367" y="722"/>
      <point x="367" y="629"/>
      <point x="367" y="722" type="curve"/>
      <point x="314" y="722"/>
      <point x="260" y="722"/>
      <point x="206" y="722" type="curve"/>
      <point x="206" y="629"/>
      <point x="206" y="722"/>
    </contour>
    <contour>
      <point x="146" y="684" type="curve"/>
      <point x="146" y="540"/>
      <point x="146" y="423"/>
      <point x="146" y="279" type="curve"/>
      <point x="146" y="70"/>
      <point x="287" y="-5"/>
      <point x="517" y="-5" type="curve"/>
      <point x="749" y="-5"/>
      <point x="891" y="74"/>
      <point x="891" y="287" type="curve"/>
      <point x="891" y="429"/>
      <point x="891" y="543"/>
      <point x="891" y="684" type="curve"/>
      <point x="779" y="684"/>
      <point x="888" y="684"/>
      <point x="776" y="684" type="curve"/>
      <point x="776" y="537"/>
      <point x="776" y="424"/>
      <point x="776" y="276" type="curve"/>
      <point x="776" y="144"/>
      <point x="677" y="98"/>
      <point x="528" y="98" type="curve"/>
      <point x="364" y="98"/>
      <point x="261" y="147"/>
      <point x="261" y="296" type="curve"/>
      <point x="261" y="434"/>
      <point x="261" y="547"/>
      <point x="261" y="684" type="curve"/>
      <point x="149" y="684"/>
      <point x="258" y="684"/>
    </contour>
    <contour>
      <point x="521" y="791" type="move" name="top"/>
    </contour>
    <contour>
      <point x="562" y="11" type="move" name="bottom"/>
    </contour>
  </outline>
</glyph>
<glyph name="V" format="1">
  <advance width="967"/>
  <unicode hex="0056"/>
  <outline>
    <contour>
      <point x="797" y="722" type="curve"/>
      <point x="739" y="722"/>
      <point x="681" y="722"/>
      <point x="622" y="722" type="curve"/>
      <point x="622" y="629"/>
      <point x="622" y="722"/>
      <point x="622" y="629" type="curve"/>
      <point x="797" y="629"/>
      <point x="622" y="629"/>
      <point x="797" y="629" type="curve"/>
      <point x="797" y="722"/>
      <point x="797" y="629"/>
    </contour>
    <contour>
      <point x="145" y="722" type="curve"/>
      <point x="96" y="722"/>
      <point x="47" y="722"/>
      <point x="-2" y="722" type="curve"/>
      <point x="-2" y="629"/>
      <point x="-2" y="722"/>
      <point x="-2" y="629" type="curve"/>
      <point x="145" y="629"/>
      <point x="-2" y="629"/>
      <point x="145" y="629" type="curve"/>
      <point x="145" y="722"/>
      <point x="145" y="629"/>
    </contour>
    <contour>
      <point x="812" y="629" type="curve"/>
      <point x="959" y="629"/>
      <point x="811" y="629"/>
      <point x="958" y="629" type="curve"/>
      <point x="958" y="722"/>
      <point x="958" y="629"/>
      <point x="958" y="722" type="curve"/>
      <point x="909" y="722"/>
      <point x="861" y="722"/>
      <point x="812" y="722" type="curve"/>
      <point x="812" y="629"/>
      <point x="812" y="722"/>
    </contour>
    <contour>
      <point x="159" y="629" type="curve"/>
      <point x="334" y="629"/>
      <point x="159" y="629"/>
      <point x="333" y="629" type="curve"/>
      <point x="333" y="722"/>
      <point x="333" y="629"/>
      <point x="333" y="722" type="curve"/>
      <point x="276" y="722"/>
      <point x="217" y="722"/>
      <point x="159" y="722" type="curve"/>
      <point x="159" y="629"/>
      <point x="159" y="722"/>
    </contour>
    <contour>
      <point x="769" y="722" type="curve"/>
      <point x="653" y="481"/>
      <point x="537" y="241"/>
      <point x="422" y="0" type="curve"/>
      <point x="551" y="0"/>
      <point x="421" y="0"/>
      <point x="549" y="0" type="curve"/>
      <point x="665" y="241"/>
      <point x="781" y="481"/>
      <point x="898" y="722" type="curve"/>
      <point x="769" y="722"/>
      <point x="898" y="722"/>
    </contour>
    <contour>
      <point x="59" y="722" type="curve"/>
      <point x="177" y="481"/>
      <point x="295" y="241"/>
      <point x="413" y="0" type="curve"/>
      <point x="542" y="0"/>
      <point x="412" y="0"/>
      <point x="541" y="0" type="curve"/>
      <point x="423" y="241"/>
      <point x="306" y="481"/>
      <point x="189" y="722" type="curve"/>
      <point x="59" y="722"/>
      <point x="188" y="722"/>
    </contour>
  </outline>
</glyph>
<glyph name="W" format="1">
  <advance width="1235"/>
  <unicode hex="0057"/>
  <outline>
    <contour>
      <point x="169" y="629" type="curve"/>
      <point x="322" y="629"/>
      <point x="169" y="629"/>
      <point x="322" y="629" type="curve"/>
      <point x="322" y="722"/>
      <point x="322" y="629"/>
      <point x="322" y="722" type="curve"/>
      <point x="271" y="722"/>
      <point x="220" y="722"/>
      <point x="169" y="722" type="curve"/>
      <point x="169" y="629"/>
      <point x="169" y="722"/>
    </contour>
    <contour>
      <point x="169" y="722" type="curve"/>
      <point x="115" y="722"/>
      <point x="61" y="722"/>
      <point x="8" y="722" type="curve"/>
      <point x="8" y="629"/>
      <point x="8" y="722"/>
      <point x="8" y="629" type="curve"/>
      <point x="169" y="629"/>
      <point x="8" y="629"/>
      <point x="169" y="629" type="curve"/>
      <point x="169" y="722"/>
      <point x="169" y="629"/>
    </contour>
    <contour>
      <point x="1064" y="722" type="curve"/>
      <point x="1013" y="722"/>
      <point x="963" y="722"/>
      <point x="912" y="722" type="curve"/>
      <point x="912" y="629"/>
      <point x="912" y="722"/>
      <point x="912" y="629" type="curve"/>
      <point x="1064" y="629"/>
      <point x="912" y="629"/>
      <point x="1064" y="629" type="curve"/>
      <point x="1064" y="722"/>
      <point x="1064" y="629"/>
    </contour>
    <contour>
      <point x="1065" y="629" type="curve"/>
      <point x="1225" y="629"/>
      <point x="1064" y="629"/>
      <point x="1225" y="629" type="curve"/>
      <point x="1225" y="722"/>
      <point x="1225" y="629"/>
      <point x="1225" y="722" type="curve"/>
      <point x="1172" y="722"/>
      <point x="1118" y="722"/>
      <point x="1065" y="722" type="curve"/>
      <point x="1065" y="629"/>
      <point x="1065" y="722"/>
    </contour>
    <contour>
      <point x="430" y="0" type="curve"/>
      <point x="513" y="241"/>
      <point x="594" y="481"/>
      <point x="678" y="722" type="curve"/>
      <point x="554" y="722"/>
      <point x="681" y="722"/>
      <point x="558" y="722" type="curve"/>
      <point x="479" y="480"/>
      <point x="401" y="241"/>
      <point x="321" y="0" type="curve"/>
      <point x="440" y="0"/>
      <point x="312" y="0"/>
    </contour>
    <contour>
      <point x="573" y="722" type="curve"/>
      <point x="649" y="481"/>
      <point x="718" y="241"/>
      <point x="793" y="0" type="curve"/>
      <point x="912" y="0"/>
      <point x="783" y="0"/>
      <point x="902" y="0" type="curve"/>
      <point x="832" y="241"/>
      <point x="764" y="480"/>
      <point x="690" y="722" type="curve"/>
      <point x="567" y="722"/>
      <point x="696" y="722"/>
    </contour>
    <contour>
      <point x="77" y="722" type="curve"/>
      <point x="152" y="481"/>
      <point x="228" y="241"/>
      <point x="304" y="0" type="curve"/>
      <point x="423" y="0"/>
      <point x="299" y="0"/>
      <point x="418" y="0" type="curve"/>
      <point x="344" y="241"/>
      <point x="275" y="481"/>
      <point x="202" y="722" type="curve"/>
      <point x="77" y="722"/>
      <point x="202" y="722"/>
    </contour>
    <contour>
      <point x="1031" y="722" type="curve"/>
      <point x="956" y="481"/>
      <point x="884" y="241"/>
      <point x="810" y="0" type="curve"/>
      <point x="929" y="0"/>
      <point x="801" y="0"/>
      <point x="920" y="0" type="curve"/>
      <point x="999" y="241"/>
      <point x="1077" y="481"/>
      <point x="1156" y="722" type="curve"/>
      <point x="1031" y="722"/>
      <point x="1156" y="722"/>
    </contour>
  </outline>
</glyph>
<glyph name="X" format="1">
  <advance width="903"/>
  <unicode hex="0058"/>
  <outline>
    <contour>
      <point x="182" y="0" type="curve"/>
      <point x="243" y="0"/>
      <point x="182" y="0"/>
      <point x="364" y="0" type="curve"/>
      <point x="364" y="93"/>
      <point x="364" y="0"/>
      <point x="364" y="93" type="curve"/>
      <point x="182" y="93"/>
      <point x="364" y="93"/>
      <point x="182" y="93" type="curve"/>
      <point x="182" y="0"/>
      <point x="182" y="93"/>
    </contour>
    <contour>
      <point x="181" y="93" type="curve"/>
      <point x="13" y="93"/>
      <point x="181" y="93"/>
      <point x="14" y="93" type="curve"/>
      <point x="14" y="0"/>
      <point x="14" y="93"/>
      <point x="14" y="0" type="curve"/>
      <point x="69" y="0"/>
      <point x="126" y="0"/>
      <point x="181" y="0" type="curve"/>
      <point x="181" y="93"/>
      <point x="181" y="0"/>
    </contour>
    <contour>
      <point x="718" y="0" type="curve"/>
      <point x="774" y="0"/>
      <point x="830" y="0"/>
      <point x="885" y="0" type="curve"/>
      <point x="885" y="93"/>
      <point x="885" y="0"/>
      <point x="885" y="93" type="curve"/>
      <point x="718" y="93"/>
      <point x="885" y="93"/>
      <point x="718" y="93" type="curve"/>
      <point x="718" y="0"/>
      <point x="718" y="93"/>
    </contour>
    <contour>
      <point x="717" y="93" type="curve"/>
      <point x="535" y="93"/>
      <point x="717" y="93"/>
      <point x="535" y="93" type="curve"/>
      <point x="535" y="0"/>
      <point x="535" y="93"/>
      <point x="535" y="0" type="curve"/>
      <point x="596" y="0"/>
      <point x="656" y="0"/>
      <point x="717" y="0" type="curve"/>
      <point x="717" y="93"/>
      <point x="717" y="0"/>
    </contour>
    <contour>
      <point x="684" y="629" type="curve"/>
      <point x="852" y="629"/>
      <point x="684" y="629"/>
      <point x="851" y="629" type="curve"/>
      <point x="851" y="722"/>
      <point x="851" y="629"/>
      <point x="851" y="722" type="curve"/>
      <point x="796" y="722"/>
      <point x="740" y="722"/>
      <point x="684" y="722" type="curve"/>
      <point x="684" y="629"/>
      <point x="684" y="722"/>
    </contour>
    <contour>
      <point x="685" y="722" type="curve"/>
      <point x="625" y="722"/>
      <point x="564" y="722"/>
      <point x="503" y="722" type="curve"/>
      <point x="503" y="629"/>
      <point x="503" y="722"/>
      <point x="503" y="629" type="curve"/>
      <point x="686" y="629"/>
      <point x="503" y="629"/>
      <point x="685" y="629" type="curve"/>
      <point x="685" y="722"/>
      <point x="685" y="629"/>
    </contour>
    <contour>
      <point x="225" y="722" type="curve"/>
      <point x="170" y="722"/>
      <point x="113" y="722"/>
      <point x="58" y="722" type="curve"/>
      <point x="58" y="629"/>
      <point x="58" y="722"/>
      <point x="58" y="629" type="curve"/>
      <point x="225" y="629"/>
      <point x="58" y="629"/>
      <point x="225" y="629" type="curve"/>
      <point x="225" y="722"/>
      <point x="225" y="629"/>
    </contour>
    <contour>
      <point x="224" y="629" type="curve"/>
      <point x="406" y="629"/>
      <point x="224" y="629"/>
      <point x="406" y="629" type="curve"/>
      <point x="406" y="722"/>
      <point x="406" y="629"/>
      <point x="406" y="722" type="curve"/>
      <point x="346" y="722"/>
      <point x="285" y="722"/>
      <point x="224" y="722" type="curve"/>
      <point x="224" y="629"/>
      <point x="224" y="722"/>
    </contour>
    <contour>
      <point x="680" y="722" type="curve"/>
      <point x="481" y="492"/>
      <point x="278" y="265"/>
      <point x="79" y="35" type="curve"/>
      <point x="203" y="35"/>
      <point x="79" y="0"/>
      <point x="203" y="0" type="curve"/>
      <point x="402" y="230"/>
      <point x="597" y="463"/>
      <point x="796" y="693" type="curve"/>
      <point x="680" y="693"/>
      <point x="796" y="722"/>
    </contour>
    <contour>
      <point x="115" y="692" type="curve"/>
      <point x="312" y="462"/>
      <point x="505" y="230"/>
      <point x="701" y="0" type="curve"/>
      <point x="827" y="0"/>
      <point x="701" y="23"/>
      <point x="827" y="23" type="curve"/>
      <point x="628" y="257"/>
      <point x="427" y="488"/>
      <point x="228" y="722" type="curve"/>
      <point x="115" y="722"/>
      <point x="228" y="692"/>
    </contour>
  </outline>
</glyph>
<glyph name="bracketleft" format="1">
  <advance width="380"/>
  <unicode hex="005B"/>
  <outline>
    <contour>
      <point x="329" y="769" type="curve"/>
      <point x="265" y="769"/>
      <point x="201" y="769"/>
      <point x="137" y="769" type="curve"/>
      <point x="121" y="769"/>
      <point x="98" y="769"/>
      <point x="83" y="769" type="curve"/>
      <point x="83" y="757"/>
      <point x="83" y="737"/>
      <point x="83" y="724" type="curve"/>
      <point x="83" y="459"/>
      <point x="83" y="194"/>
      <point x="83" y="-71" type="curve"/>
      <point x="83" y="-84"/>
      <point x="83" y="-102"/>
      <point x="83" y="-115" type="curve"/>
      <point x="97" y="-115"/>
      <point x="120" y="-115"/>
      <point x="136" y="-115" type="curve"/>
      <point x="200" y="-115"/>
      <point x="264" y="-115"/>
      <point x="329" y="-115" type="curve"/>
      <point x="329" y="-12"/>
      <point x="329" y="-115"/>
      <point x="329" y="-12" type="curve"/>
      <point x="264" y="-12"/>
      <point x="200" y="-12"/>
      <point x="136" y="-12" type="curve"/>
      <point x="209" y="-12"/>
      <point x="136" y="-12"/>
      <point x="209" y="-12" type="curve"/>
      <point x="209" y="-71"/>
      <point x="209" y="-12"/>
      <point x="209" y="-71" type="curve"/>
      <point x="209" y="194"/>
      <point x="209" y="459"/>
      <point x="209" y="724" type="curve"/>
      <point x="209" y="667"/>
      <point x="209" y="724"/>
      <point x="209" y="667" type="curve"/>
      <point x="137" y="667"/>
      <point x="209" y="667"/>
      <point x="137" y="667" type="curve"/>
      <point x="201" y="667"/>
      <point x="265" y="667"/>
      <point x="329" y="667" type="curve"/>
      <point x="329" y="769"/>
      <point x="329" y="667"/>
    </contour>
  </outline>
</glyph>
<glyph name="backslash" format="1">
  <advance width="689"/>
  <unicode hex="005C"/>
  <outline>
    <contour>
      <point x="656" y="-68" type="curve"/>
      <point x="493" y="236"/>
      <point x="329" y="540"/>
      <point x="164" y="844" type="curve"/>
      <point x="33" y="844"/>
      <point x="164" y="844"/>
      <point x="33" y="844" type="curve"/>
      <point x="197" y="540"/>
      <point x="361" y="236"/>
      <point x="525" y="-68" type="curve"/>
      <point x="656" y="-68"/>
      <point x="525" y="-68"/>
    </contour>
  </outline>
</glyph>
<glyph name="bracketright" format="1">
  <advance width="380"/>
  <unicode hex="005D"/>
  <outline>
    <contour>
      <point x="51" y="667" type="curve"/>
      <point x="115" y="667"/>
      <point x="178" y="667"/>
      <point x="243" y="667" type="curve"/>
      <point x="229" y="675"/>
      <point x="215" y="681"/>
      <point x="202" y="690" type="curve"/>
      <point x="190" y="699"/>
      <point x="182" y="714"/>
      <point x="171" y="724" type="curve"/>
      <point x="171" y="459"/>
      <point x="171" y="194"/>
      <point x="171" y="-71" type="curve"/>
      <point x="183" y="-61"/>
      <point x="193" y="-47"/>
      <point x="205" y="-38" type="curve"/>
      <point x="218" y="-29"/>
      <point x="231" y="-21"/>
      <point x="244" y="-12" type="curve"/>
      <point x="179" y="-12"/>
      <point x="115" y="-12"/>
      <point x="51" y="-12" type="curve"/>
      <point x="51" y="-115"/>
      <point x="51" y="-12"/>
      <point x="51" y="-115" type="curve"/>
      <point x="115" y="-115"/>
      <point x="179" y="-115"/>
      <point x="244" y="-115" type="curve"/>
      <point x="297" y="-115"/>
      <point x="244" y="-115"/>
      <point x="297" y="-115" type="curve"/>
      <point x="297" y="-71"/>
      <point x="297" y="-115"/>
      <point x="297" y="-71" type="curve"/>
      <point x="297" y="194"/>
      <point x="297" y="459"/>
      <point x="297" y="724" type="curve"/>
      <point x="297" y="769"/>
      <point x="297" y="724"/>
      <point x="297" y="769" type="curve"/>
      <point x="243" y="769"/>
      <point x="297" y="769"/>
      <point x="243" y="769" type="curve"/>
      <point x="178" y="769"/>
      <point x="115" y="769"/>
      <point x="51" y="769" type="curve"/>
      <point x="51" y="667"/>
      <point x="51" y="769"/>
    </contour>
  </outline>
</glyph>
<glyph name="asciicircum" format="1">
  <advance width="678"/>
  <unicode hex="005E"/>
  <outline>
    <contour>
      <point x="182" y="455" type="curve"/>
      <point x="255" y="559"/>
      <point x="328" y="661"/>
      <point x="401" y="764" type="curve"/>
      <point x="275" y="764"/>
      <point x="400" y="764"/>
      <point x="275" y="764" type="curve"/>
      <point x="202" y="661"/>
      <point x="129" y="559"/>
      <point x="57" y="455" type="curve"/>
      <point x="182" y="455"/>
      <point x="57" y="455"/>
    </contour>
    <contour>
      <point x="622" y="455" type="curve"/>
      <point x="550" y="557"/>
      <point x="474" y="662"/>
      <point x="401" y="764" type="curve"/>
      <point x="276" y="764"/>
      <point x="401" y="764"/>
      <point x="275" y="764" type="curve"/>
      <point x="347" y="662"/>
      <point x="423" y="557"/>
      <point x="496" y="455" type="curve"/>
      <point x="622" y="455"/>
      <point x="497" y="455"/>
    </contour>
  </outline>
</glyph>
<glyph name="underscore" format="1">
  <advance width="856"/>
  <unicode hex="005F"/>
  <outline>
    <contour>
      <point x="0" y="-188" type="curve"/>
      <point x="285" y="-188"/>
      <point x="571" y="-188"/>
      <point x="856" y="-188" type="curve"/>
      <point x="856" y="-95"/>
      <point x="856" y="-188"/>
      <point x="856" y="-95" type="curve"/>
      <point x="571" y="-95"/>
      <point x="285" y="-95"/>
      <point x="0" y="-95" type="curve"/>
      <point x="0" y="-188"/>
      <point x="0" y="-95"/>
    </contour>
  </outline>
</glyph>
<glyph name="grave" format="1">
  <advance width="443"/>
  <unicode hex="0060"/>
  <outline>
    <contour>
      <point x="378" y="550" type="line"/>
      <point x="228" y="716" type="line"/>
      <point x="63" y="716" type="line"/>
      <point x="249" y="550" type="line"/>
    </contour>
    <contour>
      <point x="304" y="551" type="move" name="_top"/>
    </contour>
  </outline>
</glyph>
<glyph name="b" format="1">
  <advance width="826"/>
  <unicode hex="0062"/>
  <outline>
    <contour>
      <point x="193" y="800" type="curve"/>
      <point x="134" y="800"/>
      <point x="91" y="800"/>
      <point x="31" y="800" type="curve"/>
      <point x="31" y="756"/>
      <point x="31" y="751"/>
      <point x="31" y="707" type="curve"/>
      <point x="125" y="707"/>
      <point x="100" y="707"/>
      <point x="193" y="707" type="curve"/>
      <point x="193" y="751"/>
      <point x="193" y="756"/>
    </contour>
    <contour>
      <point x="217" y="333" type="curve"/>
      <point x="275" y="396"/>
      <point x="347" y="441"/>
      <point x="452" y="441" type="curve"/>
      <point x="569" y="441"/>
      <point x="648" y="378"/>
      <point x="648" y="263" type="curve"/>
      <point x="650" y="151"/>
      <point x="568" y="91"/>
      <point x="452" y="92" type="curve"/>
      <point x="356" y="92"/>
      <point x="283" y="129"/>
      <point x="228" y="184" type="curve"/>
      <point x="193" y="160"/>
      <point x="187" y="156"/>
      <point x="152" y="132" type="curve"/>
      <point x="244" y="47"/>
      <point x="335" y="-5"/>
      <point x="475" y="-5" type="curve"/>
      <point x="654" y="-5"/>
      <point x="776" y="87"/>
      <point x="776" y="264" type="curve"/>
      <point x="776" y="444"/>
      <point x="653" y="539"/>
      <point x="472" y="539" type="curve"/>
      <point x="336" y="539"/>
      <point x="246" y="486"/>
      <point x="161" y="400" type="curve"/>
      <point x="189" y="371"/>
      <point x="189" y="361"/>
    </contour>
    <contour>
      <point x="254" y="0" type="curve"/>
      <point x="254" y="296"/>
      <point x="254" y="504"/>
      <point x="254" y="800" type="curve"/>
      <point x="195" y="800"/>
      <point x="187" y="800"/>
      <point x="128" y="800" type="curve"/>
      <point x="128" y="504"/>
      <point x="128" y="296"/>
      <point x="128" y="0" type="curve"/>
      <point x="187" y="0"/>
      <point x="195" y="0"/>
    </contour>
    <contour>
      <point x="193" y="93" type="curve"/>
      <point x="100" y="93"/>
      <point x="125" y="93"/>
      <point x="31" y="93" type="curve"/>
      <point x="31" y="49"/>
      <point x="31" y="44"/>
      <point x="31" y="0" type="curve"/>
      <point x="91" y="0"/>
      <point x="134" y="0"/>
      <point x="193" y="0" type="curve"/>
      <point x="193" y="44"/>
      <point x="193" y="48"/>
    </contour>
  </outline>
</glyph>
<glyph name="d" format="1">
  <advance width="821"/>
  <unicode hex="0064"/>
  <outline>
    <contour>
      <point x="627" y="800" type="curve"/>
      <point x="573" y="800"/>
      <point x="519" y="800"/>
      <point x="465" y="800" type="curve"/>
      <point x="465" y="707"/>
      <point x="465" y="800"/>
      <point x="465" y="707" type="curve"/>
      <point x="628" y="707"/>
      <point x="465" y="707"/>
      <point x="627" y="707" type="curve"/>
      <point x="627" y="799"/>
      <point x="627" y="707"/>
    </contour>
    <contour>
      <point x="628" y="0" type="curve"/>
      <point x="683" y="0"/>
      <point x="736" y="0"/>
      <point x="790" y="0" type="curve"/>
      <point x="790" y="93"/>
      <point x="790" y="0"/>
      <point x="790" y="93" type="curve"/>
      <point x="628" y="93"/>
      <point x="791" y="93"/>
      <point x="628" y="93" type="curve"/>
      <point x="628" y="-1"/>
      <point x="628" y="93"/>
    </contour>
    <contour>
      <point x="651" y="411" type="curve"/>
      <point x="574" y="492"/>
      <point x="466" y="538"/>
      <point x="356" y="538" type="curve"/>
      <point x="179" y="538"/>
      <point x="51" y="447"/>
      <point x="51" y="262" type="curve"/>
      <point x="51" y="78"/>
      <point x="179" y="-5"/>
      <point x="357" y="-5" type="curve"/>
      <point x="489" y="-5"/>
      <point x="582" y="52"/>
      <point x="653" y="148" type="curve"/>
      <point x="595" y="199"/>
      <point x="646" y="148"/>
      <point x="588" y="199" type="curve"/>
      <point x="528" y="122"/>
      <point x="461" y="89"/>
      <point x="372" y="89" type="curve"/>
      <point x="261" y="89"/>
      <point x="177" y="146"/>
      <point x="177" y="267" type="curve"/>
      <point x="177" y="388"/>
      <point x="264" y="444"/>
      <point x="376" y="444" type="curve"/>
      <point x="459" y="444"/>
      <point x="544" y="406"/>
      <point x="596" y="347" type="curve"/>
      <point x="656" y="404"/>
      <point x="592" y="355"/>
    </contour>
    <contour>
      <point x="693" y="0" type="curve"/>
      <point x="693" y="267"/>
      <point x="693" y="533"/>
      <point x="693" y="800" type="curve"/>
      <point x="561" y="800"/>
      <point x="693" y="800"/>
      <point x="561" y="800" type="curve"/>
      <point x="561" y="533"/>
      <point x="561" y="267"/>
      <point x="561" y="0" type="curve"/>
      <point x="693" y="0"/>
      <point x="561" y="0"/>
    </contour>
  </outline>
</glyph>
<glyph name="f" format="1">
  <advance width="600"/>
  <unicode hex="0066"/>
  <outline>
    <contour>
      <point x="479" y="766" type="curve"/>
      <point x="479" y="630"/>
      <point x="479" y="767"/>
      <point x="479" y="630" type="curve"/>
      <point x="576" y="630"/>
      <point x="479" y="630"/>
      <point x="576" y="630" type="curve"/>
      <point x="576" y="767"/>
      <point x="576" y="630"/>
      <point x="576" y="766" type="curve"/>
      <point x="479" y="766"/>
      <point x="576" y="766"/>
    </contour>
    <contour>
      <point x="249" y="-1" type="curve"/>
      <point x="310" y="-1"/>
      <point x="350" y="0"/>
      <point x="411" y="0" type="curve"/>
      <point x="411" y="93"/>
      <point x="411" y="0"/>
      <point x="411" y="93" type="curve"/>
      <point x="229" y="93"/>
      <point x="432" y="93"/>
      <point x="249" y="93" type="curve"/>
      <point x="249" y="-1"/>
      <point x="249" y="93"/>
    </contour>
    <contour>
      <point x="249" y="93" type="curve"/>
      <point x="67" y="93"/>
      <point x="270" y="93"/>
      <point x="88" y="93" type="curve"/>
      <point x="88" y="0"/>
      <point x="88" y="93"/>
      <point x="88" y="0" type="curve"/>
      <point x="149" y="0"/>
      <point x="189" y="-1"/>
      <point x="249" y="-1" type="curve"/>
      <point x="249" y="93"/>
      <point x="249" y="-1"/>
    </contour>
    <contour>
      <point x="31" y="440" type="curve"/>
      <point x="536" y="440" type="line"/>
      <point x="536" y="533"/>
      <point x="536" y="440"/>
      <point x="536" y="533" type="curve"/>
      <point x="31" y="533" type="line"/>
      <point x="31" y="440"/>
      <point x="31" y="533"/>
    </contour>
    <contour>
      <point x="313" y="0" type="curve"/>
      <point x="313" y="611" type="line"/>
      <point x="312" y="675"/>
      <point x="355" y="712"/>
      <point x="422" y="712" type="curve"/>
      <point x="457" y="712"/>
      <point x="493" y="704"/>
      <point x="525" y="692" type="curve"/>
      <point x="576" y="766"/>
      <point x="525" y="692"/>
      <point x="576" y="766" type="curve"/>
      <point x="527" y="786"/>
      <point x="475" y="802"/>
      <point x="422" y="802" type="curve"/>
      <point x="285" y="802"/>
      <point x="185" y="739"/>
      <point x="187" y="611" type="curve"/>
      <point x="187" y="0" type="line"/>
      <point x="313" y="0"/>
      <point x="187" y="0"/>
    </contour>
  </outline>
</glyph>
<glyph name="g" format="1">
  <advance width="703"/>
  <unicode hex="0067"/>
  <outline>
    <contour>
      <point x="484" y="452" type="curve"/>
      <point x="691" y="527" type="line"/>
      <point x="691" y="528"/>
      <point x="644" y="621"/>
      <point x="644" y="621" type="curve"/>
      <point x="422" y="517" type="line"/>
      <point x="483" y="451"/>
      <point x="422" y="518"/>
    </contour>
    <contour>
      <point x="204" y="341" type="curve"/>
      <point x="204" y="416"/>
      <point x="276" y="446"/>
      <point x="362" y="446" type="curve"/>
      <point x="446" y="446"/>
      <point x="513" y="415"/>
      <point x="513" y="341" type="curve"/>
      <point x="513" y="270"/>
      <point x="445" y="244"/>
      <point x="363" y="244" type="curve"/>
      <point x="279" y="244"/>
      <point x="204" y="266"/>
      <point x="204" y="341" type="curve"/>
      <point x="78" y="337"/>
      <point x="204" y="341"/>
      <point x="78" y="337" type="curve"/>
      <point x="78" y="204"/>
      <point x="203" y="151"/>
      <point x="352" y="151" type="curve"/>
      <point x="509" y="151"/>
      <point x="639" y="206"/>
      <point x="639" y="345" type="curve"/>
      <point x="639" y="481"/>
      <point x="514" y="539"/>
      <point x="362" y="539" type="curve"/>
      <point x="205" y="539"/>
      <point x="78" y="477"/>
      <point x="78" y="337" type="curve"/>
      <point x="204" y="341"/>
      <point x="78" y="337"/>
    </contour>
    <contour>
      <point x="206" y="243" type="curve"/>
      <point x="138" y="217"/>
      <point x="83" y="183"/>
      <point x="83" y="113" type="curve"/>
      <point x="83" y="-6"/>
      <point x="210" y="-20"/>
      <point x="344" y="-29" type="curve"/>
      <point x="459" y="-36"/>
      <point x="582" y="-30"/>
      <point x="582" y="-122" type="curve"/>
      <point x="582" y="-202"/>
      <point x="473" y="-211"/>
      <point x="365" y="-211" type="curve"/>
      <point x="261" y="-211"/>
      <point x="162" y="-196"/>
      <point x="162" y="-108" type="curve"/>
      <point x="162" y="-42"/>
      <point x="208" y="-11"/>
      <point x="263" y="5" type="curve"/>
      <point x="200" y="61"/>
      <point x="263" y="5"/>
      <point x="200" y="61" type="curve"/>
      <point x="110" y="35"/>
      <point x="36" y="-12"/>
      <point x="36" y="-113" type="curve"/>
      <point x="36" y="-266"/>
      <point x="188" y="-304"/>
      <point x="358" y="-304" type="curve"/>
      <point x="536" y="-304"/>
      <point x="700" y="-276"/>
      <point x="697" y="-114" type="curve"/>
      <point x="697" y="44"/>
      <point x="534" y="50"/>
      <point x="367" y="60" type="curve"/>
      <point x="289" y="64"/>
      <point x="209" y="66"/>
      <point x="209" y="122" type="curve"/>
      <point x="209" y="156"/>
      <point x="233" y="174"/>
      <point x="264" y="187" type="curve"/>
      <point x="206" y="243"/>
      <point x="264" y="187"/>
    </contour>
    <contour>
      <point x="352" y="625" type="move" name="top"/>
    </contour>
  </outline>
</glyph>
<glyph name="h" format="1">
  <advance width="802"/>
  <unicode hex="0068"/>
  <outline>
    <contour>
      <point x="636" y="-1" type="curve"/>
      <point x="697" y="-1"/>
      <point x="736" y="0"/>
      <point x="797" y="0" type="curve"/>
      <point x="797" y="93"/>
      <point x="797" y="0"/>
      <point x="797" y="93" type="curve"/>
      <point x="615" y="93"/>
      <point x="818" y="93"/>
      <point x="636" y="93" type="curve"/>
      <point x="636" y="-1"/>
      <point x="636" y="93"/>
    </contour>
    <contour>
      <point x="170" y="-1" type="curve"/>
      <point x="226" y="-1"/>
      <point x="150" y="-1"/>
      <point x="318" y="0" type="curve"/>
      <point x="318" y="93"/>
      <point x="318" y="0"/>
      <point x="318" y="93" type="curve"/>
      <point x="150" y="93"/>
      <point x="339" y="93"/>
      <point x="170" y="93" type="curve"/>
      <point x="170" y="-1"/>
      <point x="170" y="93"/>
    </contour>
    <contour>
      <point x="170" y="799" type="curve"/>
      <point x="109" y="799"/>
      <point x="69" y="800"/>
      <point x="9" y="800" type="curve"/>
      <point x="8" y="707"/>
      <point x="9" y="800"/>
      <point x="8" y="707" type="curve"/>
      <point x="191" y="707"/>
      <point x="-12" y="707"/>
      <point x="170" y="707" type="curve"/>
      <point x="170" y="799"/>
      <point x="170" y="707"/>
    </contour>
    <contour>
      <point x="170" y="93" type="curve"/>
      <point x="-12" y="93"/>
      <point x="191" y="93"/>
      <point x="9" y="93" type="curve"/>
      <point x="8" y="0"/>
      <point x="9" y="93"/>
      <point x="8" y="0" type="curve"/>
      <point x="69" y="0"/>
      <point x="109" y="-1"/>
      <point x="170" y="-1" type="curve"/>
      <point x="170" y="93"/>
      <point x="170" y="-1"/>
    </contour>
    <contour>
      <point x="205" y="290" type="curve"/>
      <point x="244" y="387"/>
      <point x="332" y="444"/>
      <point x="425" y="444" type="curve"/>
      <point x="516" y="444"/>
      <point x="574" y="392"/>
      <point x="574" y="304" type="curve"/>
      <point x="574" y="200"/>
      <point x="574" y="105"/>
      <point x="574" y="0" type="curve"/>
      <point x="700" y="0"/>
      <point x="574" y="0"/>
      <point x="700" y="0" type="curve"/>
      <point x="700" y="108"/>
      <point x="700" y="216"/>
      <point x="700" y="324" type="curve"/>
      <point x="700" y="473"/>
      <point x="602" y="538"/>
      <point x="446" y="538" type="curve"/>
      <point x="316" y="538"/>
      <point x="201" y="465"/>
      <point x="144" y="334" type="curve"/>
      <point x="207" y="287"/>
      <point x="142" y="337"/>
    </contour>
    <contour>
      <point x="233" y="0" type="curve"/>
      <point x="233" y="267"/>
      <point x="233" y="533"/>
      <point x="233" y="800" type="curve"/>
      <point x="107" y="800"/>
      <point x="233" y="800"/>
      <point x="107" y="800" type="curve"/>
      <point x="107" y="533"/>
      <point x="107" y="267"/>
      <point x="107" y="0" type="curve"/>
      <point x="233" y="0"/>
      <point x="107" y="0"/>
    </contour>
  </outline>
</glyph>
<glyph name="i" format="1">
  <advance width="371"/>
  <unicode hex="0069"/>
  <outline>
    <contour>
      <point x="194" y="93" type="curve"/>
      <point x="12" y="93"/>
      <point x="215" y="93"/>
      <point x="33" y="93" type="curve"/>
      <point x="32" y="0"/>
      <point x="33" y="93"/>
      <point x="32" y="0" type="curve"/>
      <point x="94" y="0"/>
      <point x="134" y="0"/>
      <point x="194" y="0" type="curve"/>
      <point x="194" y="93"/>
      <point x="194" y="0"/>
    </contour>
    <contour>
      <point x="194" y="0" type="curve"/>
      <point x="251" y="0"/>
      <point x="294" y="0"/>
      <point x="351" y="0" type="curve"/>
      <point x="351" y="93"/>
      <point x="351" y="0"/>
      <point x="351" y="93" type="curve"/>
      <point x="181" y="93"/>
      <point x="364" y="93"/>
      <point x="194" y="93" type="curve"/>
      <point x="194" y="0"/>
      <point x="194" y="93"/>
    </contour>
    <contour>
      <point x="194" y="533" type="curve"/>
      <point x="134" y="533"/>
      <point x="94" y="533"/>
      <point x="33" y="533" type="curve"/>
      <point x="32" y="440"/>
      <point x="33" y="533"/>
      <point x="32" y="440" type="curve"/>
      <point x="215" y="440"/>
      <point x="12" y="440"/>
      <point x="194" y="440" type="curve"/>
      <point x="194" y="533"/>
      <point x="194" y="440"/>
    </contour>
    <contour>
      <point x="261" y="0" type="curve"/>
      <point x="261" y="178"/>
      <point x="261" y="355"/>
      <point x="261" y="533" type="curve"/>
      <point x="129" y="533"/>
      <point x="261" y="533"/>
      <point x="129" y="533" type="curve"/>
      <point x="129" y="355"/>
      <point x="129" y="178"/>
      <point x="129" y="0" type="curve"/>
      <point x="261" y="0"/>
      <point x="129" y="0"/>
    </contour>
    <contour>
      <point x="268" y="685" type="curve"/>
      <point x="268" y="727"/>
      <point x="236" y="746"/>
      <point x="192" y="746" type="curve"/>
      <point x="149" y="746"/>
      <point x="119" y="724"/>
      <point x="119" y="685" type="curve"/>
      <point x="263" y="685"/>
      <point x="124" y="685"/>
      <point x="268" y="685" type="curve"/>
      <point x="268" y="642"/>
      <point x="236" y="624"/>
      <point x="192" y="624" type="curve"/>
      <point x="148" y="624"/>
      <point x="119" y="645"/>
      <point x="119" y="685" type="curve"/>
      <point x="263" y="685"/>
      <point x="124" y="685"/>
    </contour>
    <contour>
      <point x="193" y="625" type="move" name="top"/>
    </contour>
    <contour>
      <point x="252" y="10" type="move" name="bottom"/>
    </contour>
  </outline>
</glyph>
<glyph name="j" format="1">
  <advance width="373"/>
  <unicode hex="006A"/>
  <outline>
    <contour>
      <point x="213" y="533" type="curve"/>
      <point x="152" y="533"/>
      <point x="91" y="533"/>
      <point x="31" y="533" type="curve"/>
      <point x="31" y="440"/>
      <point x="31" y="533"/>
      <point x="31" y="440" type="curve"/>
      <point x="213" y="440"/>
      <point x="30" y="440"/>
      <point x="213" y="440" type="curve"/>
      <point x="213" y="533"/>
      <point x="213" y="440"/>
    </contour>
    <contour>
      <point x="-14" y="-302" type="curve"/>
      <point x="-2" y="-303"/>
      <point x="12" y="-305"/>
      <point x="28" y="-305" type="curve"/>
      <point x="164" y="-305"/>
      <point x="277" y="-250"/>
      <point x="277" y="-124" type="curve"/>
      <point x="277" y="95"/>
      <point x="277" y="314"/>
      <point x="277" y="534" type="curve"/>
      <point x="151" y="534"/>
      <point x="277" y="534"/>
      <point x="151" y="534" type="curve"/>
      <point x="151" y="314"/>
      <point x="151" y="95"/>
      <point x="151" y="-124" type="curve"/>
      <point x="151" y="-186"/>
      <point x="99" y="-215"/>
      <point x="33" y="-215" type="curve"/>
      <point x="23" y="-215"/>
      <point x="10" y="-214"/>
      <point x="4" y="-213" type="curve"/>
      <point x="-14" y="-302"/>
      <point x="4" y="-213"/>
    </contour>
    <contour>
      <point x="290" y="684" type="curve"/>
      <point x="290" y="726"/>
      <point x="258" y="746"/>
      <point x="215" y="746" type="curve"/>
      <point x="171" y="746"/>
      <point x="141" y="724"/>
      <point x="141" y="684" type="curve"/>
      <point x="285" y="684"/>
      <point x="147" y="684"/>
      <point x="290" y="684" type="curve"/>
      <point x="290" y="642"/>
      <point x="258" y="623"/>
      <point x="214" y="623" type="curve"/>
      <point x="170" y="623"/>
      <point x="141" y="644"/>
      <point x="141" y="684" type="curve"/>
      <point x="285" y="684"/>
      <point x="147" y="684"/>
    </contour>
  </outline>
</glyph>
<glyph name="k" format="1">
  <advance width="736"/>
  <unicode hex="006B"/>
  <outline>
    <contour>
      <point x="169" y="93" type="curve"/>
      <point x="-13" y="93"/>
      <point x="189" y="93"/>
      <point x="8" y="93" type="curve"/>
      <point x="8" y="0"/>
      <point x="8" y="93"/>
      <point x="8" y="0" type="curve"/>
      <point x="68" y="0"/>
      <point x="108" y="-1"/>
      <point x="169" y="-1" type="curve"/>
      <point x="169" y="93"/>
      <point x="169" y="-1"/>
    </contour>
    <contour>
      <point x="554" y="-1" type="curve"/>
      <point x="619" y="-1"/>
      <point x="652" y="0"/>
      <point x="717" y="0" type="curve"/>
      <point x="717" y="93"/>
      <point x="717" y="0"/>
      <point x="717" y="93" type="curve"/>
      <point x="520" y="93"/>
      <point x="751" y="93"/>
      <point x="554" y="93" type="curve"/>
      <point x="554" y="-1"/>
      <point x="554" y="93"/>
    </contour>
    <contour>
      <point x="550" y="440" type="curve"/>
      <point x="719" y="440"/>
      <point x="516" y="440"/>
      <point x="684" y="440" type="curve"/>
      <point x="684" y="533"/>
      <point x="684" y="440"/>
      <point x="684" y="533" type="curve"/>
      <point x="628" y="533"/>
      <point x="606" y="533"/>
      <point x="550" y="533" type="curve"/>
      <point x="550" y="440"/>
      <point x="550" y="533"/>
    </contour>
    <contour>
      <point x="169" y="-1" type="curve"/>
      <point x="216" y="-1"/>
      <point x="169" y="-1"/>
      <point x="311" y="0" type="curve"/>
      <point x="311" y="93"/>
      <point x="311" y="0"/>
      <point x="311" y="93" type="curve"/>
      <point x="169" y="93"/>
      <point x="312" y="93"/>
      <point x="169" y="93" type="curve"/>
      <point x="169" y="-1"/>
      <point x="169" y="93"/>
    </contour>
    <contour>
      <point x="566" y="533" type="curve"/>
      <point x="485" y="533"/>
      <point x="411" y="533"/>
      <point x="331" y="533" type="curve"/>
      <point x="331" y="440"/>
      <point x="331" y="533"/>
      <point x="331" y="440" type="curve"/>
      <point x="573" y="440"/>
      <point x="324" y="440"/>
      <point x="566" y="440" type="curve"/>
      <point x="566" y="533"/>
      <point x="566" y="440"/>
    </contour>
    <contour>
      <point x="172" y="799" type="curve"/>
      <point x="110" y="799"/>
      <point x="71" y="800"/>
      <point x="10" y="800" type="curve"/>
      <point x="10" y="707"/>
      <point x="10" y="800"/>
      <point x="10" y="707" type="curve"/>
      <point x="192" y="707"/>
      <point x="-11" y="707"/>
      <point x="172" y="707" type="curve"/>
      <point x="172" y="799"/>
      <point x="172" y="707"/>
    </contour>
    <contour>
      <point x="233" y="0" type="curve"/>
      <point x="233" y="800" type="line"/>
      <point x="107" y="800"/>
      <point x="233" y="800"/>
      <point x="107" y="800" type="curve"/>
      <point x="107" y="533"/>
      <point x="107" y="267"/>
      <point x="107" y="0" type="curve"/>
      <point x="233" y="0"/>
      <point x="107" y="0"/>
    </contour>
    <contour>
      <point x="513" y="533" type="curve"/>
      <point x="197" y="275" type="line"/>
      <point x="353" y="275"/>
      <point x="197" y="275"/>
      <point x="353" y="275" type="curve"/>
      <point x="645" y="498" type="line"/>
      <point x="471" y="498"/>
      <point x="687" y="533"/>
    </contour>
    <contour>
      <point x="668" y="45" type="curve"/>
      <point x="352" y="275" type="line"/>
      <point x="197" y="275"/>
      <point x="352" y="275"/>
      <point x="197" y="275" type="curve"/>
      <point x="544" y="0" type="line"/>
      <point x="718" y="0"/>
      <point x="494" y="45"/>
    </contour>
    <contour>
      <point x="422" y="-3" type="move" name="bottom"/>
    </contour>
  </outline>
</glyph>
<glyph name="l" format="1">
  <advance width="403"/>
  <unicode hex="006C"/>
  <outline>
    <contour>
      <point x="202" y="93" type="curve"/>
      <point x="20" y="93"/>
      <point x="202" y="93"/>
      <point x="20" y="93" type="curve"/>
      <point x="20" y="0"/>
      <point x="20" y="93"/>
      <point x="20" y="0" type="curve"/>
      <point x="81" y="0"/>
      <point x="141" y="-1"/>
      <point x="202" y="-1" type="curve"/>
      <point x="202" y="93"/>
      <point x="202" y="-1"/>
    </contour>
    <contour>
      <point x="205" y="799" type="curve"/>
      <point x="144" y="799"/>
      <point x="83" y="800"/>
      <point x="23" y="800" type="curve"/>
      <point x="23" y="707"/>
      <point x="23" y="800"/>
      <point x="23" y="707" type="curve"/>
      <point x="205" y="707"/>
      <point x="23" y="707"/>
      <point x="205" y="707" type="curve"/>
      <point x="205" y="799"/>
      <point x="205" y="707"/>
    </contour>
    <contour>
      <point x="202" y="-1" type="curve"/>
      <point x="263" y="-1"/>
      <point x="324" y="0"/>
      <point x="385" y="0" type="curve"/>
      <point x="385" y="93"/>
      <point x="385" y="0"/>
      <point x="385" y="93" type="curve"/>
      <point x="202" y="93"/>
      <point x="385" y="93"/>
      <point x="202" y="93" type="curve"/>
      <point x="202" y="-1"/>
      <point x="202" y="93"/>
    </contour>
    <contour>
      <point x="264" y="0" type="curve"/>
      <point x="264" y="267"/>
      <point x="264" y="533"/>
      <point x="264" y="800" type="curve"/>
      <point x="138" y="800"/>
      <point x="264" y="800"/>
      <point x="138" y="800" type="curve"/>
      <point x="138" y="533"/>
      <point x="138" y="267"/>
      <point x="138" y="0" type="curve"/>
      <point x="264" y="0"/>
      <point x="138" y="0"/>
    </contour>
    <contour>
      <point x="201" y="886" type="move" name="top"/>
    </contour>
    <contour>
      <point x="248" y="7" type="move" name="bottom"/>
    </contour>
  </outline>
</glyph>
<glyph name="m" format="1">
  <advance width="1226"/>
  <unicode hex="006D"/>
  <outline>
    <contour>
      <point x="632" y="0" type="curve"/>
      <point x="769" y="0"/>
      <point x="632" y="0"/>
      <point x="769" y="0" type="curve"/>
      <point x="769" y="93"/>
      <point x="769" y="0"/>
      <point x="769" y="93" type="curve"/>
      <point x="632" y="93"/>
      <point x="769" y="93"/>
      <point x="632" y="93" type="curve"/>
      <point x="632" y="0"/>
      <point x="632" y="93"/>
    </contour>
    <contour>
      <point x="1050" y="0" type="curve"/>
      <point x="1097" y="0"/>
      <point x="1144" y="0"/>
      <point x="1191" y="0" type="curve"/>
      <point x="1191" y="93"/>
      <point x="1191" y="0"/>
      <point x="1191" y="93" type="curve"/>
      <point x="1050" y="93"/>
      <point x="1191" y="93"/>
      <point x="1050" y="93" type="curve"/>
      <point x="1050" y="0"/>
      <point x="1050" y="93"/>
    </contour>
    <contour>
      <point x="216" y="93" type="curve"/>
      <point x="54" y="93"/>
      <point x="216" y="93"/>
      <point x="54" y="93" type="curve"/>
      <point x="54" y="0"/>
      <point x="54" y="93"/>
      <point x="54" y="0" type="curve"/>
      <point x="107" y="0"/>
      <point x="162" y="0"/>
      <point x="216" y="0" type="curve"/>
      <point x="216" y="93"/>
      <point x="216" y="0"/>
    </contour>
    <contour>
      <point x="216" y="0" type="curve"/>
      <point x="261" y="0"/>
      <point x="215" y="0"/>
      <point x="352" y="0" type="curve"/>
      <point x="352" y="93"/>
      <point x="352" y="0"/>
      <point x="352" y="93" type="curve"/>
      <point x="215" y="93"/>
      <point x="353" y="93"/>
      <point x="216" y="93" type="curve"/>
      <point x="216" y="0"/>
      <point x="216" y="93"/>
    </contour>
    <contour>
      <point x="216" y="533" type="curve"/>
      <point x="162" y="533"/>
      <point x="107" y="533"/>
      <point x="54" y="533" type="curve"/>
      <point x="54" y="440"/>
      <point x="54" y="533"/>
      <point x="54" y="440" type="curve"/>
      <point x="216" y="440"/>
      <point x="54" y="440"/>
      <point x="216" y="440" type="curve"/>
      <point x="216" y="533"/>
      <point x="216" y="440"/>
    </contour>
    <contour>
      <point x="666" y="281" type="curve"/>
      <point x="713" y="377"/>
      <point x="771" y="441"/>
      <point x="859" y="441" type="curve"/>
      <point x="946" y="441"/>
      <point x="986" y="402"/>
      <point x="986" y="314" type="curve"/>
      <point x="986" y="210"/>
      <point x="986" y="105"/>
      <point x="986" y="0" type="curve"/>
      <point x="1112" y="0"/>
      <point x="986" y="0"/>
      <point x="1112" y="0" type="curve"/>
      <point x="1112" y="108"/>
      <point x="1112" y="216"/>
      <point x="1112" y="324" type="curve"/>
      <point x="1112" y="473"/>
      <point x="1039" y="538"/>
      <point x="887" y="538" type="curve"/>
      <point x="758" y="538"/>
      <point x="672" y="460"/>
      <point x="604" y="329" type="curve"/>
      <point x="667" y="281"/>
      <point x="604" y="329"/>
    </contour>
    <contour>
      <point x="250" y="285" type="curve"/>
      <point x="297" y="380"/>
      <point x="354" y="441"/>
      <point x="442" y="441" type="curve"/>
      <point x="529" y="441"/>
      <point x="569" y="402"/>
      <point x="569" y="314" type="curve"/>
      <point x="569" y="210"/>
      <point x="569" y="105"/>
      <point x="569" y="0" type="curve"/>
      <point x="695" y="0"/>
      <point x="569" y="0"/>
      <point x="695" y="0" type="curve"/>
      <point x="695" y="108"/>
      <point x="695" y="216"/>
      <point x="695" y="324" type="curve"/>
      <point x="695" y="473"/>
      <point x="623" y="538"/>
      <point x="472" y="538" type="curve"/>
      <point x="341" y="538"/>
      <point x="268" y="467"/>
      <point x="188" y="333" type="curve"/>
      <point x="251" y="285"/>
      <point x="187" y="333"/>
    </contour>
    <contour>
      <point x="278" y="0" type="curve"/>
      <point x="278" y="178"/>
      <point x="278" y="355"/>
      <point x="278" y="533" type="curve"/>
      <point x="152" y="533"/>
      <point x="278" y="533"/>
      <point x="152" y="533" type="curve"/>
      <point x="152" y="355"/>
      <point x="152" y="178"/>
      <point x="152" y="0" type="curve"/>
      <point x="278" y="0"/>
      <point x="152" y="0"/>
    </contour>
  </outline>
</glyph>
<glyph name="p" format="1">
  <advance width="804"/>
  <unicode hex="0070"/>
  <outline>
    <contour>
      <point x="171" y="-207" type="curve"/>
      <point x="-14" y="-207"/>
      <point x="191" y="-207"/>
      <point x="7" y="-207" type="curve"/>
      <point x="7" y="-300"/>
      <point x="7" y="-207"/>
      <point x="7" y="-300" type="curve"/>
      <point x="69" y="-300"/>
      <point x="109" y="-300"/>
      <point x="171" y="-300" type="curve"/>
      <point x="171" y="-207"/>
      <point x="171" y="-300"/>
    </contour>
    <contour>
      <point x="171" y="-300" type="curve"/>
      <point x="228" y="-300"/>
      <point x="265" y="-300"/>
      <point x="322" y="-300" type="curve"/>
      <point x="322" y="-207"/>
      <point x="322" y="-300"/>
      <point x="322" y="-207" type="curve"/>
      <point x="150" y="-207"/>
      <point x="343" y="-207"/>
      <point x="171" y="-207" type="curve"/>
      <point x="171" y="-300"/>
      <point x="171" y="-207"/>
    </contour>
    <contour>
      <point x="172" y="533" type="curve"/>
      <point x="111" y="533"/>
      <point x="70" y="533"/>
      <point x="9" y="533" type="curve"/>
      <point x="8" y="440"/>
      <point x="9" y="533"/>
      <point x="8" y="440" type="curve"/>
      <point x="193" y="440"/>
      <point x="-13" y="440"/>
      <point x="172" y="440" type="curve"/>
      <point x="172" y="533"/>
      <point x="172" y="440"/>
    </contour>
    <contour>
      <point x="192" y="316" type="curve"/>
      <point x="255" y="398"/>
      <point x="332" y="448"/>
      <point x="442" y="448" type="curve"/>
      <point x="553" y="448"/>
      <point x="629" y="380"/>
      <point x="629" y="266" type="curve"/>
      <point x="631" y="152"/>
      <point x="552" y="87"/>
      <point x="437" y="88" type="curve"/>
      <point x="343" y="88"/>
      <point x="267" y="120"/>
      <point x="194" y="177" type="curve"/>
      <point x="163" y="155"/>
      <point x="166" y="136"/>
      <point x="135" y="114" type="curve"/>
      <point x="221" y="38"/>
      <point x="324" y="-5"/>
      <point x="451" y="-5" type="curve"/>
      <point x="631" y="-5"/>
      <point x="755" y="95"/>
      <point x="754" y="271" type="curve"/>
      <point x="754" y="440"/>
      <point x="636" y="539"/>
      <point x="462" y="539" type="curve"/>
      <point x="322" y="539"/>
      <point x="222" y="484"/>
      <point x="143" y="383" type="curve"/>
      <point x="169" y="351"/>
      <point x="166" y="347"/>
    </contour>
    <contour>
      <point x="234" y="-300" type="curve"/>
      <point x="234" y="-22"/>
      <point x="234" y="255"/>
      <point x="234" y="533" type="curve"/>
      <point x="108" y="533"/>
      <point x="234" y="533"/>
      <point x="108" y="533" type="curve"/>
      <point x="108" y="255"/>
      <point x="108" y="-22"/>
      <point x="108" y="-300" type="curve"/>
      <point x="234" y="-300"/>
      <point x="108" y="-300"/>
    </contour>
  </outline>
</glyph>
<glyph name="q" format="1">
  <advance width="828"/>
  <unicode hex="0071"/>
  <outline>
    <contour>
      <point x="641" y="440" type="curve"/>
      <point x="733" y="440"/>
      <point x="698" y="440"/>
      <point x="791" y="440" type="curve"/>
      <point x="791" y="483"/>
      <point x="791" y="490"/>
      <point x="791" y="533" type="curve"/>
      <point x="730" y="533"/>
      <point x="703" y="533"/>
      <point x="641" y="533" type="curve"/>
      <point x="641" y="490"/>
      <point x="641" y="483"/>
    </contour>
    <contour>
      <point x="641" y="-207" type="curve"/>
      <point x="542" y="-207"/>
      <point x="579" y="-207"/>
      <point x="479" y="-207" type="curve"/>
      <point x="479" y="-250"/>
      <point x="479" y="-257"/>
      <point x="479" y="-300" type="curve"/>
      <point x="545" y="-300"/>
      <point x="576" y="-300"/>
      <point x="641" y="-300" type="curve"/>
      <point x="641" y="-257"/>
      <point x="641" y="-250"/>
    </contour>
    <contour>
      <point x="641" y="-300" type="curve"/>
      <point x="702" y="-300"/>
      <point x="729" y="-300"/>
      <point x="790" y="-300" type="curve"/>
      <point x="790" y="-257"/>
      <point x="790" y="-250"/>
      <point x="790" y="-207" type="curve"/>
      <point x="698" y="-207"/>
      <point x="733" y="-207"/>
      <point x="641" y="-207" type="curve"/>
      <point x="641" y="-250"/>
      <point x="641" y="-257"/>
    </contour>
    <contour>
      <point x="669" y="393" type="curve"/>
      <point x="578" y="484"/>
      <point x="483" y="538"/>
      <point x="352" y="538" type="curve"/>
      <point x="173" y="538"/>
      <point x="51" y="438"/>
      <point x="51" y="263" type="curve"/>
      <point x="51" y="88"/>
      <point x="177" y="-5"/>
      <point x="357" y="-5" type="curve"/>
      <point x="493" y="-5"/>
      <point x="590" y="54"/>
      <point x="688" y="148" type="curve"/>
      <point x="657" y="174"/>
      <point x="647" y="178"/>
      <point x="616" y="203" type="curve"/>
      <point x="552" y="124"/>
      <point x="473" y="88"/>
      <point x="374" y="88" type="curve"/>
      <point x="258" y="88"/>
      <point x="177" y="152"/>
      <point x="177" y="267" type="curve"/>
      <point x="177" y="382"/>
      <point x="257" y="444"/>
      <point x="372" y="444" type="curve"/>
      <point x="474" y="444"/>
      <point x="556" y="397"/>
      <point x="620" y="327" type="curve"/>
      <point x="647" y="355"/>
      <point x="642" y="365"/>
    </contour>
    <contour>
      <point x="705" y="-300" type="curve"/>
      <point x="705" y="-2"/>
      <point x="705" y="235"/>
      <point x="705" y="533" type="curve"/>
      <point x="646" y="533"/>
      <point x="633" y="533"/>
      <point x="574" y="533" type="curve"/>
      <point x="574" y="235"/>
      <point x="574" y="-2"/>
      <point x="574" y="-300" type="curve"/>
      <point x="633" y="-300"/>
      <point x="646" y="-300"/>
    </contour>
  </outline>
</glyph>
<glyph name="r" format="1">
  <advance width="551"/>
  <unicode hex="0072"/>
  <outline>
    <contour>
      <point x="216" y="0" type="curve"/>
      <point x="273" y="0"/>
      <point x="313" y="0"/>
      <point x="369" y="0" type="curve"/>
      <point x="369" y="44"/>
      <point x="369" y="49"/>
      <point x="369" y="93" type="curve"/>
      <point x="282" y="93"/>
      <point x="304" y="93"/>
      <point x="216" y="93" type="curve"/>
      <point x="216" y="49"/>
      <point x="216" y="44"/>
    </contour>
    <contour>
      <point x="216" y="93" type="curve"/>
      <point x="123" y="93"/>
      <point x="147" y="93"/>
      <point x="54" y="93" type="curve"/>
      <point x="54" y="49"/>
      <point x="54" y="44"/>
      <point x="54" y="0" type="curve"/>
      <point x="114" y="0"/>
      <point x="156" y="0"/>
      <point x="216" y="0" type="curve"/>
      <point x="216" y="44"/>
      <point x="216" y="49"/>
    </contour>
    <contour>
      <point x="214" y="533" type="curve"/>
      <point x="155" y="533"/>
      <point x="112" y="533"/>
      <point x="53" y="533" type="curve"/>
      <point x="53" y="489"/>
      <point x="52" y="484"/>
      <point x="52" y="440" type="curve"/>
      <point x="146" y="440"/>
      <point x="121" y="440"/>
      <point x="214" y="440" type="curve"/>
      <point x="214" y="484"/>
      <point x="214" y="489"/>
    </contour>
    <contour>
      <point x="279" y="0" type="curve"/>
      <point x="279" y="196"/>
      <point x="279" y="337"/>
      <point x="279" y="533" type="curve"/>
      <point x="220" y="533"/>
      <point x="211" y="533"/>
      <point x="152" y="533" type="curve"/>
      <point x="152" y="337"/>
      <point x="152" y="196"/>
      <point x="152" y="0" type="curve"/>
      <point x="211" y="0"/>
      <point x="220" y="0"/>
    </contour>
    <contour>
      <point x="246" y="282" type="curve"/>
      <point x="310" y="398"/>
      <point x="400" y="428"/>
      <point x="528" y="428" type="curve"/>
      <point x="528" y="479"/>
      <point x="528" y="487"/>
      <point x="528" y="538" type="curve"/>
      <point x="381" y="538"/>
      <point x="281" y="477"/>
      <point x="206" y="351" type="curve"/>
      <point x="227" y="318"/>
      <point x="225" y="315"/>
    </contour>
    <contour>
      <point x="273" y="625" type="move" name="top"/>
    </contour>
    <contour>
      <point x="232" y="23" type="move" name="bottom"/>
    </contour>
  </outline>
</glyph>
<glyph name="s" format="1">
  <advance width="643"/>
  <unicode hex="0073"/>
  <outline>
    <contour>
      <point x="63" y="47" type="curve"/>
      <point x="156" y="15"/>
      <point x="228" y="-5"/>
      <point x="322" y="-5" type="curve"/>
      <point x="475" y="-5"/>
      <point x="593" y="30"/>
      <point x="593" y="158" type="curve"/>
      <point x="593" y="280"/>
      <point x="472" y="289"/>
      <point x="336" y="319" type="curve"/>
      <point x="261" y="336"/>
      <point x="187" y="347"/>
      <point x="187" y="394" type="curve"/>
      <point x="187" y="430"/>
      <point x="240" y="444"/>
      <point x="305" y="444" type="curve"/>
      <point x="366" y="444"/>
      <point x="439" y="428"/>
      <point x="481" y="409" type="curve"/>
      <point x="539" y="492"/>
      <point x="482" y="409"/>
      <point x="539" y="492" type="curve"/>
      <point x="485" y="517"/>
      <point x="388" y="538"/>
      <point x="310" y="538" type="curve"/>
      <point x="175" y="538"/>
      <point x="72" y="505"/>
      <point x="72" y="393" type="curve"/>
      <point x="72" y="283"/>
      <point x="171" y="256"/>
      <point x="296" y="229" type="curve"/>
      <point x="380" y="209"/>
      <point x="472" y="206"/>
      <point x="472" y="155" type="curve"/>
      <point x="472" y="109"/>
      <point x="412" y="89"/>
      <point x="339" y="89" type="curve"/>
      <point x="259" y="89"/>
      <point x="203" y="105"/>
      <point x="126" y="132" type="curve"/>
      <point x="62" y="47"/>
      <point x="126" y="132"/>
    </contour>
    <contour>
      <point x="441" y="492" type="curve"/>
      <point x="441" y="371"/>
      <point x="441" y="480"/>
      <point x="441" y="359" type="curve"/>
      <point x="539" y="359"/>
      <point x="441" y="359"/>
      <point x="539" y="359" type="curve"/>
      <point x="539" y="480"/>
      <point x="539" y="371"/>
      <point x="539" y="492" type="curve"/>
      <point x="442" y="492"/>
      <point x="538" y="492"/>
    </contour>
    <contour>
      <point x="158" y="47" type="curve"/>
      <point x="158" y="168"/>
      <point x="158" y="65"/>
      <point x="158" y="187" type="curve"/>
      <point x="60" y="187"/>
      <point x="158" y="187"/>
      <point x="60" y="187" type="curve"/>
      <point x="60" y="65"/>
      <point x="60" y="168"/>
      <point x="60" y="47" type="curve"/>
      <point x="158" y="47"/>
      <point x="60" y="47"/>
    </contour>
    <contour>
      <point x="313" y="625" type="move" name="top"/>
    </contour>
    <contour>
      <point x="347" y="6" type="move" name="bottom"/>
    </contour>
  </outline>
</glyph>
<glyph name="t" format="1">
  <advance width="509"/>
  <unicode hex="0074"/>
  <outline>
    <contour>
      <point x="16" y="440" type="curve"/>
      <point x="471" y="440" type="line"/>
      <point x="471" y="534"/>
      <point x="471" y="440"/>
      <point x="471" y="534" type="curve"/>
      <point x="16" y="534" type="line"/>
      <point x="16" y="440"/>
      <point x="16" y="534"/>
    </contour>
    <contour>
      <point x="457" y="110" type="curve"/>
      <point x="422" y="96"/>
      <point x="396" y="91"/>
      <point x="359" y="91" type="curve"/>
      <point x="304" y="91"/>
      <point x="272" y="115"/>
      <point x="272" y="170" type="curve"/>
      <point x="272" y="688" type="line"/>
      <point x="256" y="678"/>
      <point x="163" y="629"/>
      <point x="147" y="619" type="curve"/>
      <point x="147" y="165" type="line"/>
      <point x="147" y="46"/>
      <point x="225" y="-6"/>
      <point x="347" y="-6" type="curve"/>
      <point x="408" y="-6"/>
      <point x="449" y="10"/>
      <point x="490" y="27" type="curve"/>
      <point x="457" y="110"/>
      <point x="490" y="27"/>
    </contour>
    <contour>
      <point x="364" y="6" type="move" name="bottom"/>
    </contour>
  </outline>
</glyph>
<glyph name="v" format="1">
  <advance width="798"/>
  <unicode hex="0076"/>
  <outline>
    <contour>
      <point x="158" y="533" type="curve"/>
      <point x="111" y="533"/>
      <point x="65" y="533"/>
      <point x="19" y="533" type="curve"/>
      <point x="19" y="440"/>
      <point x="19" y="533"/>
      <point x="19" y="440" type="curve"/>
      <point x="158" y="440"/>
      <point x="19" y="440"/>
      <point x="158" y="440" type="curve"/>
      <point x="158" y="533"/>
      <point x="158" y="440"/>
    </contour>
    <contour>
      <point x="158" y="440" type="curve"/>
      <point x="319" y="440"/>
      <point x="158" y="440"/>
      <point x="319" y="440" type="curve"/>
      <point x="319" y="533"/>
      <point x="319" y="440"/>
      <point x="319" y="533" type="curve"/>
      <point x="265" y="533"/>
      <point x="211" y="533"/>
      <point x="158" y="533" type="curve"/>
      <point x="158" y="440"/>
      <point x="158" y="533"/>
    </contour>
    <contour>
      <point x="645" y="533" type="curve"/>
      <point x="591" y="533"/>
      <point x="538" y="533"/>
      <point x="484" y="533" type="curve"/>
      <point x="484" y="440"/>
      <point x="484" y="533"/>
      <point x="484" y="440" type="curve"/>
      <point x="645" y="440"/>
      <point x="483" y="440"/>
      <point x="645" y="440" type="curve"/>
      <point x="645" y="533"/>
      <point x="645" y="440"/>
    </contour>
    <contour>
      <point x="645" y="440" type="curve"/>
      <point x="791" y="440"/>
      <point x="645" y="440"/>
      <point x="790" y="440" type="curve"/>
      <point x="790" y="533"/>
      <point x="790" y="440"/>
      <point x="790" y="533" type="curve"/>
      <point x="742" y="533"/>
      <point x="694" y="533"/>
      <point x="645" y="533" type="curve"/>
      <point x="645" y="440"/>
      <point x="645" y="533"/>
    </contour>
    <contour>
      <point x="67" y="533" type="curve"/>
      <point x="154" y="355"/>
      <point x="241" y="178"/>
      <point x="328" y="0" type="curve"/>
      <point x="454" y="0"/>
      <point x="328" y="0"/>
      <point x="454" y="0" type="curve"/>
      <point x="368" y="178"/>
      <point x="282" y="355"/>
      <point x="196" y="533" type="curve"/>
      <point x="67" y="533"/>
      <point x="196" y="533"/>
    </contour>
    <contour>
      <point x="608" y="533" type="curve"/>
      <point x="336" y="0" type="line"/>
      <point x="462" y="0"/>
      <point x="336" y="0"/>
      <point x="462" y="0" type="curve"/>
      <point x="553" y="178"/>
      <point x="644" y="355"/>
      <point x="736" y="533" type="curve"/>
      <point x="608" y="533"/>
      <point x="736" y="533"/>
    </contour>
  </outline>
</glyph>
<glyph name="w" format="1">
  <advance width="1215"/>
  <unicode hex="0077"/>
  <outline>
    <contour>
      <point x="1049" y="440" type="curve"/>
      <point x="1202" y="440"/>
      <point x="1049" y="440"/>
      <point x="1202" y="440" type="curve"/>
      <point x="1202" y="533"/>
      <point x="1202" y="440"/>
      <point x="1202" y="533" type="curve"/>
      <point x="1151" y="533"/>
      <point x="1100" y="533"/>
      <point x="1049" y="533" type="curve"/>
      <point x="1049" y="440"/>
      <point x="1049" y="533"/>
    </contour>
    <contour>
      <point x="1049" y="533" type="curve"/>
      <point x="997" y="533"/>
      <point x="946" y="533"/>
      <point x="895" y="533" type="curve"/>
      <point x="895" y="440"/>
      <point x="895" y="533"/>
      <point x="895" y="440" type="curve"/>
      <point x="1049" y="440"/>
      <point x="895" y="440"/>
      <point x="1049" y="440" type="curve"/>
      <point x="1049" y="533"/>
      <point x="1049" y="440"/>
    </contour>
    <contour>
      <point x="169" y="533" type="curve"/>
      <point x="118" y="533"/>
      <point x="67" y="533"/>
      <point x="15" y="533" type="curve"/>
      <point x="15" y="440"/>
      <point x="15" y="533"/>
      <point x="15" y="440" type="curve"/>
      <point x="169" y="440"/>
      <point x="15" y="440"/>
      <point x="169" y="440" type="curve"/>
      <point x="169" y="533"/>
      <point x="169" y="440"/>
    </contour>
    <contour>
      <point x="169" y="440" type="curve"/>
      <point x="322" y="440"/>
      <point x="168" y="440"/>
      <point x="322" y="440" type="curve"/>
      <point x="322" y="533"/>
      <point x="322" y="440"/>
      <point x="322" y="533" type="curve"/>
      <point x="270" y="533"/>
      <point x="220" y="533"/>
      <point x="169" y="533" type="curve"/>
      <point x="169" y="440"/>
      <point x="169" y="533"/>
    </contour>
    <contour>
      <point x="422" y="0" type="curve"/>
      <point x="507" y="178"/>
      <point x="592" y="355"/>
      <point x="676" y="533" type="curve"/>
      <point x="550" y="533"/>
      <point x="676" y="533"/>
      <point x="550" y="533" type="curve"/>
      <point x="466" y="355"/>
      <point x="383" y="178"/>
      <point x="299" y="0" type="curve"/>
      <point x="422" y="0"/>
      <point x="299" y="0"/>
    </contour>
    <contour>
      <point x="1023" y="533" type="curve"/>
      <point x="944" y="355"/>
      <point x="866" y="178"/>
      <point x="788" y="0" type="curve"/>
      <point x="911" y="0"/>
      <point x="788" y="0"/>
      <point x="911" y="0" type="curve"/>
      <point x="991" y="178"/>
      <point x="1070" y="355"/>
      <point x="1149" y="533" type="curve"/>
      <point x="1023" y="533"/>
      <point x="1149" y="533"/>
    </contour>
    <contour>
      <point x="557" y="533" type="curve"/>
      <point x="634" y="355"/>
      <point x="710" y="178"/>
      <point x="786" y="0" type="curve"/>
      <point x="910" y="0"/>
      <point x="786" y="0"/>
      <point x="910" y="0" type="curve"/>
      <point x="835" y="178"/>
      <point x="758" y="355"/>
      <point x="682" y="533" type="curve"/>
      <point x="557" y="533"/>
      <point x="682" y="533"/>
    </contour>
    <contour>
      <point x="69" y="533" type="curve"/>
      <point x="145" y="355"/>
      <point x="221" y="178"/>
      <point x="297" y="0" type="curve"/>
      <point x="421" y="0"/>
      <point x="297" y="0"/>
      <point x="421" y="0" type="curve"/>
      <point x="345" y="178"/>
      <point x="270" y="355"/>
      <point x="195" y="533" type="curve"/>
      <point x="69" y="533"/>
      <point x="195" y="533"/>
    </contour>
  </outline>
</glyph>
<glyph name="x" format="1">
  <advance width="778"/>
  <unicode hex="0078"/>
  <outline>
    <contour>
      <point x="136" y="93" type="curve"/>
      <point x="-28" y="93"/>
      <point x="177" y="93"/>
      <point x="13" y="93" type="curve"/>
      <point x="13" y="0"/>
      <point x="13" y="93"/>
      <point x="13" y="0" type="curve"/>
      <point x="67" y="0"/>
      <point x="82" y="0"/>
      <point x="136" y="0" type="curve"/>
      <point x="136" y="93"/>
      <point x="136" y="0"/>
    </contour>
    <contour>
      <point x="636" y="93" type="curve"/>
      <point x="426" y="93"/>
      <point x="651" y="93"/>
      <point x="441" y="93" type="curve"/>
      <point x="441" y="-1"/>
      <point x="441" y="93"/>
      <point x="441" y="-1" type="curve"/>
      <point x="511" y="-1"/>
      <point x="566" y="0"/>
      <point x="636" y="0" type="curve"/>
      <point x="636" y="93"/>
      <point x="636" y="0"/>
    </contour>
    <contour>
      <point x="635" y="0" type="curve"/>
      <point x="687" y="0"/>
      <point x="718" y="0"/>
      <point x="769" y="0" type="curve"/>
      <point x="769" y="93"/>
      <point x="769" y="0"/>
      <point x="769" y="93" type="curve"/>
      <point x="612" y="93"/>
      <point x="792" y="93"/>
      <point x="635" y="93" type="curve"/>
      <point x="635" y="0"/>
      <point x="635" y="93"/>
    </contour>
    <contour>
      <point x="135" y="0" type="curve"/>
      <point x="205" y="0"/>
      <point x="126" y="0"/>
      <point x="337" y="0" type="curve"/>
      <point x="337" y="93"/>
      <point x="337" y="0"/>
      <point x="337" y="93" type="curve"/>
      <point x="126" y="93"/>
      <point x="346" y="93"/>
      <point x="135" y="93" type="curve"/>
      <point x="135" y="0"/>
      <point x="135" y="93"/>
    </contour>
    <contour>
      <point x="615" y="440" type="curve"/>
      <point x="779" y="440"/>
      <point x="590" y="440"/>
      <point x="754" y="440" type="curve"/>
      <point x="754" y="533"/>
      <point x="754" y="440"/>
      <point x="754" y="533" type="curve"/>
      <point x="699" y="533"/>
      <point x="670" y="533"/>
      <point x="615" y="533" type="curve"/>
      <point x="615" y="440"/>
      <point x="615" y="533"/>
    </contour>
    <contour>
      <point x="177" y="533" type="curve"/>
      <point x="122" y="533"/>
      <point x="94" y="533"/>
      <point x="39" y="533" type="curve"/>
      <point x="39" y="440"/>
      <point x="39" y="533"/>
      <point x="39" y="440" type="curve"/>
      <point x="204" y="440"/>
      <point x="12" y="440"/>
      <point x="177" y="440" type="curve"/>
      <point x="177" y="533"/>
      <point x="177" y="440"/>
    </contour>
    <contour>
      <point x="155" y="440" type="curve"/>
      <point x="357" y="440"/>
      <point x="142" y="440"/>
      <point x="344" y="440" type="curve"/>
      <point x="344" y="533"/>
      <point x="344" y="440"/>
      <point x="344" y="533" type="curve"/>
      <point x="276" y="533"/>
      <point x="222" y="533"/>
      <point x="155" y="533" type="curve"/>
      <point x="155" y="440"/>
      <point x="155" y="533"/>
    </contour>
    <contour>
      <point x="618" y="533" type="curve"/>
      <point x="556" y="533"/>
      <point x="504" y="533"/>
      <point x="444" y="533" type="curve"/>
      <point x="444" y="440"/>
      <point x="444" y="533"/>
      <point x="444" y="440" type="curve"/>
      <point x="627" y="440"/>
      <point x="435" y="440"/>
      <point x="618" y="440" type="curve"/>
      <point x="618" y="533"/>
      <point x="618" y="440"/>
    </contour>
    <contour>
      <point x="713" y="40" type="curve"/>
      <point x="669" y="83"/>
      <point x="227" y="490"/>
      <point x="183" y="533" type="curve"/>
      <point x="53" y="533"/>
      <point x="216" y="492"/>
      <point x="86" y="492" type="curve"/>
      <point x="129" y="449"/>
      <point x="559" y="46"/>
      <point x="602" y="3" type="curve"/>
      <point x="745" y="3"/>
      <point x="570" y="40"/>
    </contour>
    <contour>
      <point x="617" y="533" type="curve"/>
      <point x="573" y="490"/>
      <point x="107" y="83"/>
      <point x="63" y="39" type="curve"/>
      <point x="209" y="39"/>
      <point x="25" y="0"/>
      <point x="172" y="0" type="curve"/>
      <point x="216" y="43"/>
      <point x="657" y="442"/>
      <point x="701" y="486" type="curve"/>
      <point x="570" y="486"/>
      <point x="747" y="533"/>
    </contour>
  </outline>
</glyph>
<glyph name="y" format="1">
  <advance width="837"/>
  <unicode hex="0079"/>
  <outline>
    <contour>
      <point x="263" y="-207" type="curve"/>
      <point x="131" y="-207"/>
      <point x="263" y="-207"/>
      <point x="131" y="-207" type="curve"/>
      <point x="131" y="-300"/>
      <point x="131" y="-207"/>
      <point x="131" y="-300" type="curve"/>
      <point x="176" y="-300"/>
      <point x="219" y="-300"/>
      <point x="263" y="-300" type="curve"/>
      <point x="263" y="-207"/>
      <point x="263" y="-300"/>
    </contour>
    <contour>
      <point x="182" y="533" type="curve"/>
      <point x="128" y="533"/>
      <point x="73" y="533"/>
      <point x="18" y="533" type="curve"/>
      <point x="18" y="440"/>
      <point x="18" y="533"/>
      <point x="18" y="440" type="curve"/>
      <point x="182" y="440"/>
      <point x="18" y="440"/>
      <point x="182" y="440" type="curve"/>
      <point x="182" y="533"/>
      <point x="182" y="440"/>
    </contour>
    <contour>
      <point x="182" y="440" type="curve"/>
      <point x="351" y="440"/>
      <point x="182" y="440"/>
      <point x="350" y="440" type="curve"/>
      <point x="350" y="533"/>
      <point x="350" y="440"/>
      <point x="350" y="533" type="curve"/>
      <point x="294" y="533"/>
      <point x="239" y="533"/>
      <point x="182" y="533" type="curve"/>
      <point x="182" y="440"/>
      <point x="182" y="533"/>
    </contour>
    <contour>
      <point x="675" y="533" type="curve"/>
      <point x="614" y="533"/>
      <point x="554" y="533"/>
      <point x="493" y="533" type="curve"/>
      <point x="493" y="440"/>
      <point x="493" y="533"/>
      <point x="493" y="440" type="curve"/>
      <point x="675" y="440"/>
      <point x="493" y="440"/>
      <point x="675" y="440" type="curve"/>
      <point x="675" y="533"/>
      <point x="675" y="440"/>
    </contour>
    <contour>
      <point x="675" y="440" type="curve"/>
      <point x="828" y="440"/>
      <point x="675" y="440"/>
      <point x="827" y="440" type="curve"/>
      <point x="827" y="533"/>
      <point x="827" y="440"/>
      <point x="827" y="533" type="curve"/>
      <point x="776" y="533"/>
      <point x="725" y="533"/>
      <point x="675" y="533" type="curve"/>
      <point x="675" y="440"/>
      <point x="675" y="533"/>
    </contour>
    <contour>
      <point x="460" y="-5" type="curve"/>
      <point x="432" y="47"/>
      <point x="232" y="480"/>
      <point x="204" y="533" type="curve"/>
      <point x="75" y="533"/>
      <point x="204" y="533"/>
      <point x="75" y="533" type="curve"/>
      <point x="104" y="480"/>
      <point x="320" y="36"/>
      <point x="349" y="-17" type="curve"/>
      <point x="460" y="-17"/>
      <point x="349" y="-5"/>
    </contour>
    <contour>
      <point x="313" y="-300" type="curve"/>
      <point x="361" y="-218"/>
      <point x="727" y="451"/>
      <point x="775" y="533" type="curve"/>
      <point x="646" y="533"/>
      <point x="775" y="533"/>
      <point x="646" y="533" type="curve"/>
      <point x="598" y="451"/>
      <point x="231" y="-218"/>
      <point x="184" y="-300" type="curve"/>
      <point x="313" y="-300"/>
      <point x="184" y="-300"/>
    </contour>
    <contour>
      <point x="421" y="625" type="move" name="top"/>
    </contour>
  </outline>
</glyph>
<glyph name="braceleft" format="1">
  <advance width="385"/>
  <unicode hex="007B"/>
  <outline>
    <contour>
      <point x="331" y="-18" type="curve"/>
      <point x="277" y="-18"/>
      <point x="242" y="8"/>
      <point x="242" y="58" type="curve"/>
      <point x="242" y="111"/>
      <point x="242" y="163"/>
      <point x="242" y="216" type="curve"/>
      <point x="242" y="328"/>
      <point x="159" y="390"/>
      <point x="41" y="390" type="curve"/>
      <point x="41" y="292"/>
      <point x="41" y="390"/>
      <point x="41" y="292" type="curve"/>
      <point x="91" y="292"/>
      <point x="128" y="272"/>
      <point x="128" y="225" type="curve"/>
      <point x="128" y="171"/>
      <point x="128" y="117"/>
      <point x="128" y="63" type="curve"/>
      <point x="128" y="-51"/>
      <point x="211" y="-111"/>
      <point x="331" y="-111" type="curve"/>
      <point x="331" y="-18"/>
      <point x="331" y="-111"/>
    </contour>
    <contour>
      <point x="331" y="792" type="curve"/>
      <point x="211" y="792"/>
      <point x="128" y="734"/>
      <point x="128" y="621" type="curve"/>
      <point x="128" y="565"/>
      <point x="128" y="509"/>
      <point x="128" y="453" type="curve"/>
      <point x="128" y="407"/>
      <point x="90" y="390"/>
      <point x="41" y="390" type="curve"/>
      <point x="41" y="292"/>
      <point x="41" y="390"/>
      <point x="41" y="292" type="curve"/>
      <point x="159" y="292"/>
      <point x="242" y="353"/>
      <point x="242" y="467" type="curve"/>
      <point x="242" y="518"/>
      <point x="242" y="569"/>
      <point x="242" y="621" type="curve"/>
      <point x="242" y="672"/>
      <point x="277" y="699"/>
      <point x="331" y="699" type="curve"/>
      <point x="331" y="792"/>
      <point x="331" y="699"/>
    </contour>
  </outline>
</glyph>
<glyph name="braceright" format="1">
  <advance width="386"/>
  <unicode hex="007D"/>
  <outline>
    <contour>
      <point x="55" y="-111" type="curve"/>
      <point x="175" y="-111"/>
      <point x="257" y="-51"/>
      <point x="257" y="63" type="curve"/>
      <point x="257" y="117"/>
      <point x="257" y="171"/>
      <point x="257" y="225" type="curve"/>
      <point x="257" y="272"/>
      <point x="294" y="292"/>
      <point x="345" y="292" type="curve"/>
      <point x="345" y="390"/>
      <point x="345" y="292"/>
      <point x="345" y="390" type="curve"/>
      <point x="226" y="390"/>
      <point x="143" y="328"/>
      <point x="143" y="216" type="curve"/>
      <point x="143" y="163"/>
      <point x="143" y="111"/>
      <point x="143" y="58" type="curve"/>
      <point x="143" y="8"/>
      <point x="108" y="-18"/>
      <point x="55" y="-18" type="curve"/>
      <point x="55" y="-111"/>
      <point x="55" y="-18"/>
    </contour>
    <contour>
      <point x="55" y="698" type="curve"/>
      <point x="108" y="698"/>
      <point x="143" y="672"/>
      <point x="143" y="621" type="curve"/>
      <point x="143" y="569"/>
      <point x="143" y="518"/>
      <point x="143" y="467" type="curve"/>
      <point x="143" y="352"/>
      <point x="225" y="292"/>
      <point x="345" y="292" type="curve"/>
      <point x="345" y="390"/>
      <point x="345" y="292"/>
      <point x="345" y="390" type="curve"/>
      <point x="294" y="390"/>
      <point x="257" y="407"/>
      <point x="257" y="453" type="curve"/>
      <point x="257" y="509"/>
      <point x="257" y="565"/>
      <point x="257" y="621" type="curve"/>
      <point x="257" y="734"/>
      <point x="174" y="792"/>
      <point x="55" y="792" type="curve"/>
      <point x="55" y="698"/>
      <point x="55" y="792"/>
    </contour>
  </outline>
</glyph>
<glyph name="asciitilde" format="1">
  <advance width="836"/>
  <unicode hex="007E"/>
  <outline>
    <contour>
      <point x="668" y="372" type="curve"/>
      <point x="647" y="326"/>
      <point x="626" y="290"/>
      <point x="575" y="290" type="curve"/>
      <point x="524" y="290"/>
      <point x="492" y="300"/>
      <point x="449" y="326" type="curve"/>
      <point x="386" y="364"/>
      <point x="345" y="383"/>
      <point x="272" y="383" type="curve"/>
      <point x="167" y="383"/>
      <point x="109" y="340"/>
      <point x="72" y="244" type="curve"/>
      <point x="109" y="226"/>
      <point x="124" y="220"/>
      <point x="161" y="204" type="curve"/>
      <point x="181" y="256"/>
      <point x="209" y="290"/>
      <point x="266" y="290" type="curve"/>
      <point x="310" y="290"/>
      <point x="336" y="281"/>
      <point x="373" y="258" type="curve"/>
      <point x="440" y="218"/>
      <point x="485" y="198"/>
      <point x="564" y="197" type="curve"/>
      <point x="666" y="197"/>
      <point x="721" y="240"/>
      <point x="764" y="330" type="curve"/>
      <point x="724" y="348"/>
      <point x="709" y="355"/>
    </contour>
  </outline>
</glyph>
<glyph name="exclamdown" format="1">
  <advance width="289"/>
  <unicode hex="00A1"/>
  <outline>
    <contour>
      <point x="95" y="306" type="line"/>
      <point x="79" y="-187" type="line"/>
      <point x="209" y="-187" type="line"/>
      <point x="194" y="306" type="line"/>
    </contour>
    <contour>
      <point x="69" y="483" type="curve"/>
      <point x="69" y="441"/>
      <point x="102" y="422"/>
      <point x="145" y="422" type="curve"/>
      <point x="189" y="422"/>
      <point x="218" y="444"/>
      <point x="218" y="483" type="curve"/>
      <point x="75" y="483"/>
      <point x="213" y="483"/>
      <point x="69" y="483" type="curve"/>
      <point x="69" y="526"/>
      <point x="102" y="544"/>
      <point x="146" y="544" type="curve"/>
      <point x="189" y="544"/>
      <point x="218" y="523"/>
      <point x="218" y="483" type="curve"/>
      <point x="75" y="483"/>
      <point x="213" y="483"/>
    </contour>
  </outline>
</glyph>
<glyph name="sterling" format="1">
  <advance width="641"/>
  <unicode hex="00A3"/>
  <outline>
    <contour>
      <point x="561" y="93" type="curve"/>
      <point x="392" y="93"/>
      <point x="223" y="93"/>
      <point x="55" y="93" type="curve"/>
      <point x="55" y="0"/>
      <point x="55" y="93"/>
      <point x="55" y="0" type="curve"/>
      <point x="223" y="0"/>
      <point x="392" y="0"/>
      <point x="561" y="0" type="curve"/>
      <point x="561" y="93"/>
      <point x="561" y="0"/>
    </contour>
    <contour>
      <point x="501" y="422" type="curve"/>
      <point x="367" y="422"/>
      <point x="232" y="422"/>
      <point x="98" y="422" type="curve"/>
      <point x="98" y="329"/>
      <point x="98" y="422"/>
      <point x="98" y="329" type="curve"/>
      <point x="232" y="329"/>
      <point x="367" y="329"/>
      <point x="501" y="329" type="curve"/>
      <point x="501" y="422"/>
      <point x="501" y="329"/>
    </contour>
    <contour>
      <point x="594" y="664" type="curve"/>
      <point x="532" y="707"/>
      <point x="480" y="721"/>
      <point x="407" y="721" type="curve"/>
      <point x="219" y="721"/>
      <point x="114" y="562"/>
      <point x="170" y="366" type="curve"/>
      <point x="211" y="220"/>
      <point x="170" y="93"/>
      <point x="55" y="93" type="curve"/>
      <point x="55" y="0"/>
      <point x="55" y="93"/>
      <point x="55" y="0" type="curve"/>
      <point x="256" y="0"/>
      <point x="353" y="175"/>
      <point x="294" y="384" type="curve"/>
      <point x="258" y="517"/>
      <point x="300" y="632"/>
      <point x="401" y="632" type="curve"/>
      <point x="453" y="632"/>
      <point x="488" y="620"/>
      <point x="535" y="595" type="curve"/>
      <point x="594" y="664"/>
      <point x="535" y="595"/>
    </contour>
  </outline>
</glyph>
<glyph name="currency" format="1">
  <advance width="779"/>
  <unicode hex="00A4"/>
  <outline>
    <contour>
      <point x="268" y="315" type="curve"/>
      <point x="268" y="379"/>
      <point x="319" y="411"/>
      <point x="388" y="411" type="curve"/>
      <point x="460" y="411"/>
      <point x="511" y="380"/>
      <point x="511" y="314" type="curve"/>
      <point x="511" y="249"/>
      <point x="465" y="214"/>
      <point x="398" y="214" type="curve"/>
      <point x="322" y="214"/>
      <point x="268" y="246"/>
      <point x="268" y="315" type="curve"/>
      <point x="142" y="315"/>
      <point x="269" y="315"/>
      <point x="143" y="315" type="curve"/>
      <point x="143" y="182"/>
      <point x="249" y="121"/>
      <point x="393" y="121" type="curve"/>
      <point x="534" y="121"/>
      <point x="637" y="187"/>
      <point x="637" y="318" type="curve"/>
      <point x="637" y="444"/>
      <point x="535" y="505"/>
      <point x="399" y="505" type="curve"/>
      <point x="253" y="505"/>
      <point x="143" y="447"/>
      <point x="143" y="315" type="curve"/>
      <point x="269" y="315"/>
      <point x="142" y="315"/>
    </contour>
    <contour>
      <point x="553" y="321" type="line"/>
      <point x="717" y="473" type="line"/>
      <point x="617" y="572" type="line"/>
      <point x="466" y="409" type="line"/>
    </contour>
    <contour>
      <point x="466" y="222" type="line"/>
      <point x="618" y="58" type="line"/>
      <point x="717" y="158" type="line"/>
      <point x="554" y="309" type="line"/>
    </contour>
    <contour>
      <point x="224" y="311" type="line"/>
      <point x="61" y="160" type="line"/>
      <point x="160" y="60" type="line"/>
      <point x="312" y="224" type="line"/>
    </contour>
    <contour>
      <point x="313" y="410" type="line"/>
      <point x="161" y="574" type="line"/>
      <point x="62" y="474" type="line"/>
      <point x="225" y="323" type="line"/>
    </contour>
  </outline>
</glyph>
<glyph name="yen" format="1">
  <advance width="879"/>
  <unicode hex="00A5"/>
  <outline>
    <contour>
      <point x="718" y="431" type="curve"/>
      <point x="630" y="431"/>
      <point x="542" y="431"/>
      <point x="453" y="431" type="curve"/>
      <point x="453" y="329"/>
      <point x="453" y="431"/>
      <point x="453" y="329" type="curve"/>
      <point x="542" y="329"/>
      <point x="630" y="329"/>
      <point x="718" y="329" type="curve"/>
      <point x="718" y="431"/>
      <point x="718" y="329"/>
    </contour>
    <contour>
      <point x="417" y="431" type="curve"/>
      <point x="331" y="431"/>
      <point x="244" y="431"/>
      <point x="157" y="431" type="curve"/>
      <point x="157" y="329"/>
      <point x="157" y="431"/>
      <point x="157" y="329" type="curve"/>
      <point x="244" y="329"/>
      <point x="331" y="329"/>
      <point x="417" y="329" type="curve"/>
      <point x="417" y="431"/>
      <point x="417" y="329"/>
    </contour>
    <contour>
      <point x="718" y="275" type="curve"/>
      <point x="531" y="275"/>
      <point x="344" y="275"/>
      <point x="157" y="275" type="curve"/>
      <point x="157" y="172"/>
      <point x="157" y="275"/>
      <point x="157" y="172" type="curve"/>
      <point x="344" y="172"/>
      <point x="531" y="172"/>
      <point x="718" y="172" type="curve"/>
      <point x="718" y="275"/>
      <point x="718" y="172"/>
    </contour>
    <contour>
      <point x="432" y="93" type="curve"/>
      <point x="263" y="93"/>
      <point x="432" y="93"/>
      <point x="263" y="93" type="curve"/>
      <point x="263" y="0"/>
      <point x="263" y="93"/>
      <point x="263" y="0" type="curve"/>
      <point x="320" y="0"/>
      <point x="375" y="0"/>
      <point x="432" y="0" type="curve"/>
      <point x="432" y="93"/>
      <point x="432" y="0"/>
    </contour>
    <contour>
      <point x="432" y="0" type="curve"/>
      <point x="488" y="0"/>
      <point x="544" y="0"/>
      <point x="600" y="0" type="curve"/>
      <point x="600" y="93"/>
      <point x="600" y="0"/>
      <point x="600" y="93" type="curve"/>
      <point x="431" y="93"/>
      <point x="600" y="93"/>
      <point x="432" y="93" type="curve"/>
      <point x="432" y="0"/>
      <point x="432" y="93"/>
    </contour>
    <contour>
      <point x="684" y="722" type="curve"/>
      <point x="627" y="722"/>
      <point x="572" y="722"/>
      <point x="516" y="722" type="curve"/>
      <point x="516" y="629"/>
      <point x="516" y="722"/>
      <point x="516" y="629" type="curve"/>
      <point x="684" y="629"/>
      <point x="516" y="629"/>
      <point x="684" y="629" type="curve"/>
      <point x="684" y="722"/>
      <point x="684" y="629"/>
    </contour>
    <contour>
      <point x="193" y="722" type="curve"/>
      <point x="142" y="722"/>
      <point x="91" y="722"/>
      <point x="41" y="722" type="curve"/>
      <point x="41" y="629"/>
      <point x="41" y="722"/>
      <point x="41" y="629" type="curve"/>
      <point x="193" y="629"/>
      <point x="40" y="629"/>
      <point x="193" y="629" type="curve"/>
      <point x="193" y="722"/>
      <point x="193" y="629"/>
    </contour>
    <contour>
      <point x="194" y="629" type="curve"/>
      <point x="362" y="629"/>
      <point x="194" y="629"/>
      <point x="362" y="629" type="curve"/>
      <point x="362" y="722"/>
      <point x="362" y="629"/>
      <point x="362" y="722" type="curve"/>
      <point x="306" y="722"/>
      <point x="250" y="722"/>
      <point x="194" y="722" type="curve"/>
      <point x="194" y="629"/>
      <point x="194" y="722"/>
    </contour>
    <contour>
      <point x="685" y="629" type="curve"/>
      <point x="838" y="629"/>
      <point x="685" y="629"/>
      <point x="838" y="629" type="curve"/>
      <point x="838" y="722"/>
      <point x="838" y="629"/>
      <point x="838" y="722" type="curve"/>
      <point x="787" y="722"/>
      <point x="736" y="722"/>
      <point x="685" y="722" type="curve"/>
      <point x="685" y="629"/>
      <point x="685" y="722"/>
    </contour>
    <contour>
      <point x="96" y="693" type="curve"/>
      <point x="187" y="575"/>
      <point x="277" y="456"/>
      <point x="368" y="337" type="curve"/>
      <point x="495" y="337"/>
      <point x="366" y="337"/>
      <point x="493" y="337" type="curve"/>
      <point x="395" y="465"/>
      <point x="298" y="594"/>
      <point x="201" y="722" type="curve"/>
      <point x="96" y="722"/>
      <point x="201" y="693"/>
    </contour>
    <contour>
      <point x="679" y="722" type="curve"/>
      <point x="576" y="593"/>
      <point x="473" y="465"/>
      <point x="369" y="337" type="curve"/>
      <point x="496" y="337"/>
      <point x="369" y="337"/>
      <point x="495" y="337" type="curve"/>
      <point x="592" y="456"/>
      <point x="688" y="576"/>
      <point x="784" y="695" type="curve"/>
      <point x="679" y="695"/>
      <point x="784" y="722"/>
    </contour>
    <contour>
      <point x="500" y="0" type="curve"/>
      <point x="500" y="114"/>
      <point x="500" y="229"/>
      <point x="500" y="343" type="curve"/>
      <point x="363" y="343"/>
      <point x="500" y="343"/>
      <point x="363" y="343" type="curve"/>
      <point x="363" y="229"/>
      <point x="363" y="114"/>
      <point x="363" y="0" type="curve"/>
      <point x="500" y="0"/>
      <point x="363" y="0"/>
    </contour>
  </outline>
</glyph>
<glyph name="copyright" format="1">
  <advance width="985"/>
  <unicode hex="00A9"/>
  <outline>
    <contour>
      <point x="164" y="323" type="curve"/>
      <point x="164" y="491"/>
      <point x="315" y="569"/>
      <point x="497" y="569" type="curve"/>
      <point x="676" y="569"/>
      <point x="822" y="487"/>
      <point x="822" y="321" type="curve"/>
      <point x="822" y="161"/>
      <point x="680" y="79"/>
      <point x="506" y="79" type="curve"/>
      <point x="322" y="79"/>
      <point x="164" y="154"/>
      <point x="164" y="323" type="curve"/>
      <point x="62" y="323"/>
      <point x="165" y="323"/>
      <point x="63" y="323" type="curve"/>
      <point x="63" y="106"/>
      <point x="262" y="4"/>
      <point x="502" y="4" type="curve"/>
      <point x="734" y="4"/>
      <point x="923" y="111"/>
      <point x="923" y="325" type="curve"/>
      <point x="923" y="539"/>
      <point x="731" y="645"/>
      <point x="497" y="645" type="curve"/>
      <point x="260" y="645"/>
      <point x="63" y="542"/>
      <point x="63" y="323" type="curve"/>
      <point x="165" y="323"/>
      <point x="62" y="323"/>
    </contour>
    <contour>
      <point x="582" y="421" type="curve"/>
      <point x="582" y="406"/>
      <point x="582" y="394"/>
      <point x="582" y="378" type="curve"/>
      <point x="674" y="378"/>
      <point x="583" y="378"/>
      <point x="676" y="378" type="curve"/>
      <point x="676" y="408"/>
      <point x="676" y="439"/>
      <point x="676" y="469" type="curve"/>
      <point x="583" y="427"/>
      <point x="674" y="463"/>
    </contour>
    <contour>
      <point x="676" y="469" type="curve"/>
      <point x="624" y="497"/>
      <point x="570" y="510"/>
      <point x="503" y="510" type="curve"/>
      <point x="364" y="510"/>
      <point x="260" y="450"/>
      <point x="260" y="322" type="curve"/>
      <point x="260" y="200"/>
      <point x="355" y="140"/>
      <point x="485" y="140" type="curve"/>
      <point x="561" y="140"/>
      <point x="616" y="149"/>
      <point x="682" y="189" type="curve"/>
      <point x="632" y="248"/>
      <point x="682" y="189"/>
      <point x="632" y="248" type="curve"/>
      <point x="574" y="222"/>
      <point x="539" y="215"/>
      <point x="489" y="215" type="curve"/>
      <point x="413" y="215"/>
      <point x="362" y="254"/>
      <point x="362" y="326" type="curve"/>
      <point x="362" y="400"/>
      <point x="419" y="434"/>
      <point x="499" y="434" type="curve"/>
      <point x="533" y="434"/>
      <point x="559" y="429"/>
      <point x="582" y="422" type="curve"/>
      <point x="674" y="463"/>
      <point x="583" y="427"/>
    </contour>
  </outline>
</glyph>
<glyph name="ordfeminine" format="1">
  <advance width="554"/>
  <unicode hex="00AA"/>
  <outline>
    <contour>
      <point x="82" y="730" type="curve"/>
      <point x="82" y="663"/>
      <point x="82" y="716"/>
      <point x="82" y="649" type="curve"/>
      <point x="146" y="649"/>
      <point x="85" y="649"/>
      <point x="150" y="649" type="curve"/>
      <point x="150" y="716"/>
      <point x="150" y="663"/>
      <point x="150" y="730" type="curve"/>
      <point x="85" y="730"/>
      <point x="146" y="730"/>
    </contour>
    <contour>
      <point x="438" y="426" type="curve"/>
      <point x="438" y="511"/>
      <point x="438" y="586"/>
      <point x="438" y="671" type="curve"/>
      <point x="438" y="761"/>
      <point x="357" y="781"/>
      <point x="258" y="781" type="curve"/>
      <point x="185" y="781"/>
      <point x="127" y="761"/>
      <point x="82" y="730" type="curve"/>
      <point x="113" y="678"/>
      <point x="88" y="725"/>
      <point x="119" y="673" type="curve"/>
      <point x="147" y="695"/>
      <point x="191" y="716"/>
      <point x="247" y="716" type="curve"/>
      <point x="302" y="716"/>
      <point x="351" y="707"/>
      <point x="351" y="656" type="curve"/>
      <point x="351" y="577"/>
      <point x="351" y="505"/>
      <point x="351" y="426" type="curve"/>
      <point x="434" y="426"/>
      <point x="355" y="426"/>
    </contour>
    <contour>
      <point x="396" y="426" type="curve"/>
      <point x="429" y="426"/>
      <point x="458" y="426"/>
      <point x="492" y="426" type="curve"/>
      <point x="492" y="487"/>
      <point x="492" y="429"/>
      <point x="492" y="490" type="curve"/>
      <point x="409" y="490"/>
      <point x="479" y="490"/>
      <point x="396" y="490" type="curve"/>
      <point x="396" y="429"/>
      <point x="396" y="487"/>
    </contour>
    <contour>
      <point x="392" y="653" type="curve"/>
      <point x="327" y="646"/>
      <point x="287" y="645"/>
      <point x="222" y="639" type="curve"/>
      <point x="131" y="630"/>
      <point x="59" y="612"/>
      <point x="59" y="531" type="curve"/>
      <point x="59" y="451"/>
      <point x="124" y="421"/>
      <point x="213" y="421" type="curve"/>
      <point x="302" y="421"/>
      <point x="349" y="461"/>
      <point x="413" y="526" type="curve"/>
      <point x="375" y="557"/>
      <point x="410" y="528"/>
      <point x="372" y="559" type="curve"/>
      <point x="328" y="516"/>
      <point x="287" y="484"/>
      <point x="227" y="484" type="curve"/>
      <point x="180" y="484"/>
      <point x="145" y="495"/>
      <point x="145" y="532" type="curve"/>
      <point x="145" y="568"/>
      <point x="179" y="577"/>
      <point x="219" y="581" type="curve"/>
      <point x="286" y="587"/>
      <point x="327" y="591"/>
      <point x="396" y="598" type="curve"/>
      <point x="392" y="650"/>
      <point x="395" y="601"/>
    </contour>
  </outline>
</glyph>
<glyph name="guillemotleft" format="1">
  <advance width="703"/>
  <unicode hex="00AB"/>
  <outline>
    <contour>
      <point x="325" y="462" type="curve"/>
      <point x="272" y="436"/>
      <point x="112" y="363"/>
      <point x="58" y="337" type="curve"/>
      <point x="58" y="234"/>
      <point x="58" y="335"/>
      <point x="58" y="233" type="curve"/>
      <point x="112" y="259"/>
      <point x="272" y="333"/>
      <point x="325" y="359" type="curve"/>
      <point x="325" y="461"/>
      <point x="325" y="360"/>
    </contour>
    <contour>
      <point x="325" y="213" type="curve"/>
      <point x="272" y="238"/>
      <point x="112" y="310"/>
      <point x="58" y="337" type="curve"/>
      <point x="58" y="234"/>
      <point x="58" y="335"/>
      <point x="58" y="233" type="curve"/>
      <point x="112" y="207"/>
      <point x="272" y="136"/>
      <point x="325" y="109" type="curve"/>
      <point x="325" y="212"/>
      <point x="325" y="110"/>
    </contour>
    <contour>
      <point x="619" y="462" type="curve"/>
      <point x="566" y="436"/>
      <point x="406" y="363"/>
      <point x="352" y="337" type="curve"/>
      <point x="352" y="234"/>
      <point x="352" y="335"/>
      <point x="352" y="233" type="curve"/>
      <point x="406" y="259"/>
      <point x="566" y="333"/>
      <point x="619" y="359" type="curve"/>
      <point x="619" y="461"/>
      <point x="619" y="360"/>
    </contour>
    <contour>
      <point x="619" y="213" type="curve"/>
      <point x="566" y="238"/>
      <point x="406" y="310"/>
      <point x="352" y="337" type="curve"/>
      <point x="352" y="234"/>
      <point x="352" y="335"/>
      <point x="352" y="233" type="curve"/>
      <point x="406" y="207"/>
      <point x="566" y="136"/>
      <point x="619" y="109" type="curve"/>
      <point x="619" y="212"/>
      <point x="619" y="110"/>
    </contour>
  </outline>
</glyph>
<glyph name="logicalnot" format="1">
  <advance width="788"/>
  <unicode hex="00AC"/>
  <outline>
    <contour>
      <point x="90" y="261" type="curve"/>
      <point x="706" y="261" type="line"/>
      <point x="706" y="363"/>
      <point x="706" y="261"/>
      <point x="706" y="363" type="curve"/>
      <point x="90" y="363" type="line"/>
      <point x="90" y="261"/>
      <point x="90" y="363"/>
    </contour>
    <contour>
      <point x="706" y="142" type="curve"/>
      <point x="706" y="363" type="line"/>
      <point x="581" y="363"/>
      <point x="713" y="363"/>
      <point x="588" y="363" type="curve"/>
      <point x="588" y="142" type="line"/>
      <point x="713" y="142"/>
      <point x="581" y="142"/>
    </contour>
  </outline>
</glyph>
<glyph name="registered" format="1">
  <advance width="988"/>
  <unicode hex="00AE"/>
  <outline>
    <contour>
      <point x="157" y="323" type="curve"/>
      <point x="157" y="500"/>
      <point x="305" y="577"/>
      <point x="499" y="577" type="curve"/>
      <point x="689" y="577"/>
      <point x="832" y="496"/>
      <point x="832" y="321" type="curve"/>
      <point x="832" y="151"/>
      <point x="693" y="72"/>
      <point x="508" y="72" type="curve"/>
      <point x="311" y="72"/>
      <point x="157" y="145"/>
      <point x="157" y="323" type="curve"/>
      <point x="119" y="323"/>
      <point x="101" y="323"/>
      <point x="63" y="323" type="curve"/>
      <point x="63" y="98"/>
      <point x="255" y="4"/>
      <point x="504" y="4" type="curve"/>
      <point x="744" y="4"/>
      <point x="925" y="104"/>
      <point x="925" y="325" type="curve"/>
      <point x="925" y="547"/>
      <point x="741" y="645"/>
      <point x="499" y="645" type="curve"/>
      <point x="253" y="645"/>
      <point x="63" y="548"/>
      <point x="63" y="323" type="curve"/>
      <point x="101" y="323"/>
      <point x="119" y="323"/>
    </contour>
    <contour>
      <point x="596" y="142" type="curve"/>
      <point x="639" y="142"/>
      <point x="667" y="142"/>
      <point x="710" y="142" type="curve"/>
      <point x="710" y="218"/>
      <point x="710" y="142"/>
      <point x="710" y="218" type="curve"/>
      <point x="691" y="218"/>
      <point x="687" y="218"/>
      <point x="669" y="218" type="curve"/>
      <point x="594" y="142"/>
      <point x="671" y="218"/>
    </contour>
    <contour>
      <point x="455" y="505" type="curve"/>
      <point x="401" y="505"/>
      <point x="356" y="505"/>
      <point x="303" y="505" type="curve"/>
      <point x="303" y="430"/>
      <point x="303" y="505"/>
      <point x="303" y="430" type="curve"/>
      <point x="322" y="430"/>
      <point x="333" y="430"/>
      <point x="352" y="430" type="curve"/>
      <point x="455" y="505"/>
      <point x="352" y="430"/>
    </contour>
    <contour>
      <point x="455" y="218" type="curve"/>
      <point x="401" y="218"/>
      <point x="356" y="218"/>
      <point x="303" y="218" type="curve"/>
      <point x="303" y="142"/>
      <point x="303" y="218"/>
      <point x="303" y="142" type="curve"/>
      <point x="322" y="142"/>
      <point x="333" y="142"/>
      <point x="352" y="142" type="curve"/>
      <point x="455" y="218"/>
      <point x="352" y="142"/>
    </contour>
    <contour>
      <point x="352" y="142" type="curve"/>
      <point x="402" y="142"/>
      <point x="441" y="142"/>
      <point x="491" y="142" type="curve"/>
      <point x="491" y="218"/>
      <point x="491" y="142"/>
      <point x="491" y="218" type="curve"/>
      <point x="475" y="218"/>
      <point x="470" y="218"/>
      <point x="454" y="218" type="curve"/>
      <point x="352" y="142"/>
      <point x="454" y="218"/>
    </contour>
    <contour>
      <point x="467" y="315" type="curve"/>
      <point x="509" y="263"/>
      <point x="555" y="195"/>
      <point x="596" y="142" type="curve"/>
      <point x="671" y="218"/>
      <point x="594" y="142"/>
      <point x="669" y="218" type="curve"/>
      <point x="644" y="248"/>
      <point x="614" y="284"/>
      <point x="590" y="314" type="curve"/>
      <point x="465" y="314"/>
      <point x="592" y="315"/>
    </contour>
    <contour>
      <point x="454" y="218" type="curve"/>
      <point x="454" y="314"/>
      <point x="454" y="410"/>
      <point x="454" y="505" type="curve"/>
      <point x="352" y="430"/>
      <point x="455" y="505"/>
      <point x="352" y="430" type="curve"/>
      <point x="352" y="334"/>
      <point x="352" y="238"/>
      <point x="352" y="142" type="curve"/>
      <point x="455" y="218"/>
      <point x="352" y="142"/>
    </contour>
    <contour>
      <point x="406" y="274" type="curve"/>
      <point x="430" y="274"/>
      <point x="455" y="274"/>
      <point x="480" y="274" type="curve"/>
      <point x="584" y="274"/>
      <point x="665" y="296"/>
      <point x="665" y="392" type="curve"/>
      <point x="665" y="474"/>
      <point x="593" y="505"/>
      <point x="502" y="505" type="curve"/>
      <point x="486" y="505"/>
      <point x="470" y="505"/>
      <point x="455" y="505" type="curve"/>
      <point x="352" y="430"/>
      <point x="455" y="505"/>
      <point x="352" y="430" type="curve"/>
      <point x="396" y="430"/>
      <point x="440" y="430"/>
      <point x="483" y="430" type="curve"/>
      <point x="527" y="430"/>
      <point x="565" y="426"/>
      <point x="565" y="388" type="curve"/>
      <point x="565" y="352"/>
      <point x="533" y="349"/>
      <point x="494" y="349" type="curve"/>
      <point x="465" y="349"/>
      <point x="435" y="349"/>
      <point x="406" y="349" type="curve"/>
      <point x="406" y="274"/>
      <point x="406" y="349"/>
    </contour>
  </outline>
</glyph>
<glyph name="macron" format="1">
  <advance width="380"/>
  <unicode hex="00AF"/>
  <outline>
    <contour>
      <point x="318" y="664" type="curve"/>
      <point x="223" y="664"/>
      <point x="130" y="664"/>
      <point x="35" y="664" type="curve"/>
      <point x="35" y="571"/>
      <point x="35" y="664"/>
      <point x="35" y="571" type="curve"/>
      <point x="130" y="571"/>
      <point x="223" y="571"/>
      <point x="318" y="571" type="curve"/>
      <point x="318" y="664"/>
      <point x="318" y="571"/>
    </contour>
    <contour>
      <point x="179" y="571" type="move" name="_top"/>
    </contour>
  </outline>
</glyph>
<glyph name="degree" format="1">
  <advance width="607"/>
  <unicode hex="00B0"/>
  <outline>
    <contour>
      <point x="543" y="482" type="curve"/>
      <point x="543" y="617"/>
      <point x="446" y="692"/>
      <point x="305" y="692" type="curve"/>
      <point x="163" y="692"/>
      <point x="64" y="619"/>
      <point x="64" y="484" type="curve"/>
      <point x="169" y="484"/>
      <point x="70" y="484"/>
      <point x="175" y="484" type="curve"/>
      <point x="175" y="557"/>
      <point x="224" y="602"/>
      <point x="302" y="602" type="curve"/>
      <point x="378" y="602"/>
      <point x="431" y="559"/>
      <point x="431" y="482" type="curve"/>
      <point x="431" y="404"/>
      <point x="382" y="355"/>
      <point x="305" y="355" type="curve"/>
      <point x="225" y="355"/>
      <point x="175" y="405"/>
      <point x="175" y="484" type="curve"/>
      <point x="70" y="484"/>
      <point x="169" y="484"/>
      <point x="64" y="484" type="curve"/>
      <point x="64" y="345"/>
      <point x="159" y="266"/>
      <point x="301" y="266" type="curve"/>
      <point x="444" y="266"/>
      <point x="543" y="343"/>
    </contour>
  </outline>
</glyph>
<glyph name="plusminus" format="1">
  <advance width="764"/>
  <unicode hex="00B1"/>
  <outline>
    <contour>
      <point x="68" y="21" type="line"/>
      <point x="696" y="21" type="line"/>
      <point x="696" y="123" type="line"/>
      <point x="68" y="123" type="line"/>
    </contour>
    <contour>
      <point x="68" y="261" type="curve"/>
      <point x="696" y="261" type="line"/>
      <point x="696" y="363"/>
      <point x="696" y="261"/>
      <point x="696" y="363" type="curve"/>
      <point x="68" y="363" type="line"/>
      <point x="68" y="261"/>
      <point x="68" y="363"/>
    </contour>
    <contour>
      <point x="443" y="21" type="curve"/>
      <point x="443" y="587" type="line"/>
      <point x="318" y="587"/>
      <point x="451" y="587"/>
      <point x="325" y="587" type="curve"/>
      <point x="325" y="21" type="line"/>
      <point x="451" y="21"/>
      <point x="318" y="21"/>
    </contour>
  </outline>
</glyph>
<glyph name="twosuperior" format="1">
  <advance width="597"/>
  <unicode hex="00B2"/>
  <outline>
    <contour>
      <point x="533" y="271" type="curve"/>
      <point x="533" y="317"/>
      <point x="533" y="363"/>
      <point x="533" y="410" type="curve"/>
      <point x="442" y="410"/>
      <point x="535" y="410"/>
      <point x="444" y="410" type="curve"/>
      <point x="444" y="394"/>
      <point x="444" y="378"/>
      <point x="444" y="362" type="curve"/>
      <point x="543" y="281"/>
      <point x="433" y="352"/>
    </contour>
    <contour>
      <point x="73" y="271" type="curve"/>
      <point x="261" y="271"/>
      <point x="398" y="271"/>
      <point x="533" y="271" type="curve"/>
      <point x="433" y="352"/>
      <point x="543" y="281"/>
      <point x="444" y="362" type="curve"/>
      <point x="321" y="362"/>
      <point x="196" y="362"/>
      <point x="73" y="362" type="curve"/>
      <point x="73" y="271"/>
      <point x="73" y="362"/>
    </contour>
    <contour>
      <point x="168" y="569" type="curve"/>
      <point x="205" y="607"/>
      <point x="239" y="623"/>
      <point x="287" y="623" type="curve"/>
      <point x="338" y="623"/>
      <point x="379" y="610"/>
      <point x="379" y="571" type="curve"/>
      <point x="379" y="531"/>
      <point x="344" y="515"/>
      <point x="310" y="493" type="curve"/>
      <point x="231" y="448"/>
      <point x="152" y="406"/>
      <point x="73" y="362" type="curve"/>
      <point x="75" y="274"/>
      <point x="76" y="362"/>
      <point x="79" y="274" type="curve"/>
      <point x="197" y="335"/>
      <point x="290" y="376"/>
      <point x="373" y="423" type="curve"/>
      <point x="443" y="467"/>
      <point x="503" y="498"/>
      <point x="503" y="574" type="curve"/>
      <point x="503" y="676"/>
      <point x="414" y="715"/>
      <point x="301" y="715" type="curve"/>
      <point x="208" y="715"/>
      <point x="135" y="689"/>
      <point x="85" y="623" type="curve"/>
      <point x="168" y="569"/>
      <point x="85" y="623"/>
    </contour>
    <contour>
      <point x="292" y="714" type="move" name="_top"/>
    </contour>
    <contour>
      <point x="307" y="271" type="move" name="_bottom"/>
    </contour>
  </outline>
</glyph>
<glyph name="threesuperior" format="1">
  <advance width="534"/>
  <unicode hex="00B3"/>
  <outline>
    <contour>
      <point x="119" y="587" type="curve"/>
      <point x="158" y="615"/>
      <point x="200" y="625"/>
      <point x="233" y="625" type="curve"/>
      <point x="285" y="625"/>
      <point x="326" y="618"/>
      <point x="326" y="580" type="curve"/>
      <point x="326" y="534"/>
      <point x="249" y="533"/>
      <point x="181" y="531" type="curve"/>
      <point x="181" y="456"/>
      <point x="181" y="531"/>
      <point x="181" y="456" type="curve"/>
      <point x="322" y="457"/>
      <point x="450" y="467"/>
      <point x="450" y="586" type="curve"/>
      <point x="450" y="686"/>
      <point x="359" y="713"/>
      <point x="246" y="713" type="curve"/>
      <point x="179" y="713"/>
      <point x="116" y="691"/>
      <point x="67" y="652" type="curve"/>
      <point x="119" y="587"/>
      <point x="67" y="652"/>
    </contour>
    <contour>
      <point x="63" y="303" type="curve"/>
      <point x="116" y="279"/>
      <point x="166" y="264"/>
      <point x="223" y="264" type="curve"/>
      <point x="360" y="261"/>
      <point x="473" y="286"/>
      <point x="469" y="403" type="curve"/>
      <point x="469" y="531"/>
      <point x="328" y="520"/>
      <point x="181" y="522" type="curve"/>
      <point x="181" y="454"/>
      <point x="181" y="522"/>
      <point x="181" y="454" type="curve"/>
      <point x="264" y="452"/>
      <point x="345" y="454"/>
      <point x="345" y="403" type="curve"/>
      <point x="345" y="357"/>
      <point x="294" y="348"/>
      <point x="235" y="349" type="curve"/>
      <point x="197" y="349"/>
      <point x="160" y="357"/>
      <point x="111" y="374" type="curve"/>
      <point x="63" y="303"/>
      <point x="111" y="374"/>
    </contour>
    <contour>
      <point x="261" y="714" type="move" name="_top"/>
    </contour>
    <contour>
      <point x="247" y="264" type="move" name="_bottom"/>
    </contour>
  </outline>
</glyph>
<glyph name="acute" format="1">
  <advance width="523"/>
  <unicode hex="00B4"/>
  <outline>
    <contour>
      <point x="175" y="588" type="line"/>
      <point x="362" y="754" type="line"/>
      <point x="197" y="754" type="line"/>
      <point x="49" y="588" type="line"/>
    </contour>
    <contour>
      <point x="123" y="588" type="move" name="_top"/>
    </contour>
  </outline>
</glyph>
<glyph name="paragraph" format="1">
  <advance width="957"/>
  <unicode hex="00B6"/>
  <outline>
    <contour>
      <point x="560" y="629" type="curve"/>
      <point x="749" y="629"/>
      <point x="560" y="629"/>
      <point x="749" y="629" type="curve"/>
      <point x="749" y="722"/>
      <point x="749" y="629"/>
      <point x="749" y="722" type="curve"/>
      <point x="686" y="722"/>
      <point x="623" y="722"/>
      <point x="560" y="722" type="curve"/>
      <point x="560" y="629"/>
      <point x="560" y="722"/>
    </contour>
    <contour>
      <point x="560" y="0" type="curve"/>
      <point x="623" y="0"/>
      <point x="686" y="0"/>
      <point x="749" y="0" type="curve"/>
      <point x="749" y="93"/>
      <point x="749" y="0"/>
      <point x="749" y="93" type="curve"/>
      <point x="560" y="93"/>
      <point x="749" y="93"/>
      <point x="560" y="93" type="curve"/>
      <point x="560" y="0"/>
      <point x="560" y="93"/>
    </contour>
    <contour>
      <point x="560" y="93" type="curve"/>
      <point x="372" y="93"/>
      <point x="560" y="93"/>
      <point x="372" y="93" type="curve"/>
      <point x="372" y="0"/>
      <point x="372" y="93"/>
      <point x="372" y="0" type="curve"/>
      <point x="560" y="0"/>
      <point x="497" y="0"/>
      <point x="560" y="0" type="curve"/>
      <point x="560" y="93"/>
      <point x="560" y="0"/>
    </contour>
    <contour>
      <point x="538" y="381" type="curve"/>
      <point x="475" y="357"/>
      <point x="426" y="345"/>
      <point x="359" y="345" type="curve"/>
      <point x="254" y="345"/>
      <point x="169" y="383"/>
      <point x="169" y="477" type="curve"/>
      <point x="169" y="592"/>
      <point x="277" y="629"/>
      <point x="406" y="629" type="curve"/>
      <point x="456" y="629"/>
      <point x="506" y="629"/>
      <point x="556" y="629" type="curve"/>
      <point x="556" y="722"/>
      <point x="556" y="629"/>
      <point x="556" y="722" type="curve"/>
      <point x="500" y="722"/>
      <point x="445" y="722"/>
      <point x="389" y="722" type="curve"/>
      <point x="198" y="722"/>
      <point x="43" y="653"/>
      <point x="43" y="482" type="curve"/>
      <point x="43" y="319"/>
      <point x="189" y="255"/>
      <point x="370" y="252" type="curve"/>
      <point x="445" y="252"/>
      <point x="508" y="271"/>
      <point x="578" y="297" type="curve"/>
      <point x="538" y="381"/>
      <point x="578" y="298"/>
    </contour>
    <contour>
      <point x="624" y="0" type="curve"/>
      <point x="624" y="241"/>
      <point x="624" y="481"/>
      <point x="624" y="722" type="curve"/>
      <point x="498" y="722"/>
      <point x="624" y="722"/>
      <point x="498" y="722" type="curve"/>
      <point x="498" y="481"/>
      <point x="498" y="241"/>
      <point x="498" y="0" type="curve"/>
      <point x="624" y="0"/>
      <point x="498" y="0"/>
    </contour>
    <contour>
      <point x="866" y="0" type="curve"/>
      <point x="866" y="241"/>
      <point x="866" y="481"/>
      <point x="866" y="722" type="curve"/>
      <point x="740" y="722"/>
      <point x="866" y="722"/>
      <point x="740" y="722" type="curve"/>
      <point x="740" y="481"/>
      <point x="740" y="241"/>
      <point x="740" y="0" type="curve"/>
      <point x="866" y="0"/>
      <point x="740" y="0"/>
    </contour>
  </outline>
</glyph>
<glyph name="periodcentered" format="1">
  <advance width="286"/>
  <unicode hex="00B7"/>
  <outline>
    <contour>
      <point x="217" y="440" type="curve"/>
      <point x="217" y="482"/>
      <point x="185" y="502"/>
      <point x="142" y="502" type="curve"/>
      <point x="98" y="502"/>
      <point x="69" y="479"/>
      <point x="69" y="440" type="curve"/>
      <point x="212" y="440"/>
      <point x="74" y="440"/>
      <point x="217" y="440" type="curve"/>
      <point x="217" y="398"/>
      <point x="185" y="379"/>
      <point x="141" y="379" type="curve"/>
      <point x="98" y="379"/>
      <point x="69" y="400"/>
      <point x="69" y="440" type="curve"/>
      <point x="212" y="440"/>
      <point x="74" y="440"/>
    </contour>
  </outline>
</glyph>
<glyph name="cedilla" format="1">
  <advance width="445"/>
  <unicode hex="00B8"/>
  <outline>
    <contour>
      <point x="189" y="141" type="curve"/>
      <point x="172" y="119"/>
      <point x="108" y="32"/>
      <point x="91" y="10" type="curve"/>
      <point x="176" y="-65"/>
      <point x="91" y="10"/>
      <point x="176" y="-65" type="curve"/>
      <point x="197" y="-38"/>
      <point x="266" y="50"/>
      <point x="286" y="77" type="curve"/>
      <point x="189" y="141"/>
      <point x="286" y="77"/>
    </contour>
    <contour>
      <point x="176" y="-65" type="curve"/>
      <point x="184" y="-60"/>
      <point x="191" y="-58"/>
      <point x="201" y="-58" type="curve"/>
      <point x="217" y="-58"/>
      <point x="230" y="-64"/>
      <point x="230" y="-79" type="curve"/>
      <point x="230" y="-99"/>
      <point x="210" y="-104"/>
      <point x="188" y="-104" type="curve"/>
      <point x="159" y="-104"/>
      <point x="136" y="-97"/>
      <point x="101" y="-83" type="curve"/>
      <point x="66" y="-154"/>
      <point x="101" y="-83"/>
      <point x="66" y="-154" type="curve"/>
      <point x="106" y="-171"/>
      <point x="138" y="-181"/>
      <point x="182" y="-181" type="curve"/>
      <point x="273" y="-181"/>
      <point x="345" y="-156"/>
      <point x="345" y="-75" type="curve"/>
      <point x="345" y="-3"/>
      <point x="286" y="32"/>
      <point x="208" y="32" type="curve"/>
      <point x="164" y="32"/>
      <point x="133" y="24"/>
      <point x="91" y="10" type="curve"/>
      <point x="176" y="-65"/>
      <point x="91" y="10"/>
    </contour>
    <contour>
      <point x="266" y="77" type="move" name="_bottom"/>
    </contour>
  </outline>
</glyph>
<glyph name="onesuperior" format="1">
  <advance width="449"/>
  <unicode hex="00B9"/>
  <outline>
    <contour>
      <point x="196" y="272" type="curve"/>
      <point x="259" y="272"/>
      <point x="322" y="272"/>
      <point x="385" y="272" type="curve"/>
      <point x="385" y="363"/>
      <point x="385" y="265"/>
      <point x="385" y="356" type="curve"/>
      <point x="363" y="356"/>
      <point x="341" y="356"/>
      <point x="320" y="356" type="curve"/>
      <point x="196" y="265"/>
      <point x="320" y="363"/>
    </contour>
    <contour>
      <point x="320" y="356" type="curve"/>
      <point x="255" y="356"/>
      <point x="191" y="356"/>
      <point x="126" y="356" type="curve"/>
      <point x="126" y="265"/>
      <point x="126" y="363"/>
      <point x="126" y="272" type="curve"/>
      <point x="149" y="272"/>
      <point x="173" y="272"/>
      <point x="196" y="272" type="curve"/>
      <point x="320" y="363"/>
      <point x="196" y="265"/>
    </contour>
    <contour>
      <point x="106" y="531" type="line"/>
      <point x="320" y="703" type="line"/>
      <point x="196" y="706" type="line"/>
      <point x="52" y="597" type="line"/>
    </contour>
    <contour>
      <point x="320" y="356" type="curve"/>
      <point x="320" y="706" type="line"/>
      <point x="196" y="706" type="line"/>
      <point x="196" y="272" type="line"/>
      <point x="320" y="363"/>
      <point x="196" y="265"/>
    </contour>
    <contour>
      <point x="250" y="704" type="move" name="_top"/>
    </contour>
    <contour>
      <point x="261" y="272" type="move" name="_bottom"/>
    </contour>
  </outline>
</glyph>
<glyph name="ordmasculine" format="1">
  <advance width="551"/>
  <unicode hex="00BA"/>
  <outline>
    <contour>
      <point x="142" y="604" type="curve"/>
      <point x="142" y="677"/>
      <point x="193" y="719"/>
      <point x="272" y="719" type="curve"/>
      <point x="354" y="719"/>
      <point x="408" y="678"/>
      <point x="408" y="603" type="curve"/>
      <point x="408" y="525"/>
      <point x="355" y="485"/>
      <point x="279" y="485" type="curve"/>
      <point x="197" y="485"/>
      <point x="142" y="525"/>
      <point x="142" y="604" type="curve"/>
      <point x="65" y="604"/>
      <point x="132" y="604"/>
      <point x="55" y="604" type="curve"/>
      <point x="55" y="480"/>
      <point x="146" y="420"/>
      <point x="275" y="420" type="curve"/>
      <point x="404" y="420"/>
      <point x="496" y="479"/>
      <point x="496" y="603" type="curve"/>
      <point x="496" y="722"/>
      <point x="406" y="784"/>
      <point x="276" y="784" type="curve"/>
      <point x="145" y="784"/>
      <point x="55" y="722"/>
      <point x="55" y="604" type="curve"/>
      <point x="132" y="604"/>
      <point x="65" y="604"/>
    </contour>
  </outline>
</glyph>
